<svg id="Layer_1" data-name="Layer 1" xmlns="http://www.w3.org/2000/svg" viewBox="0 0 1195 2500"><defs><style>.cls-1{fill:#fdfdfd;}.cls-2{fill:#2c689e;}.cls-3{fill:#2c699e;}.cls-4{fill:#08131e;}.cls-5{fill:#071018;}.cls-6{fill:#dfe4e9;}.cls-7{fill:#5a7a97;}.cls-8{fill:#010101;}.cls-9{fill:#82a2be;}.cls-10{fill:#1b5c96;}.cls-11{fill:#205f98;}.cls-12{fill:#1a5c96;}.cls-13{fill:#7298ba;}.cls-14{fill:#1c5c96;}.cls-15{fill:#1e5e97;}.cls-16{fill:#165893;}.cls-17{fill:#d7e1ea;}.cls-18{fill:#1d5d97;}.cls-19{fill:#084184;}.cls-20{fill:#cacaca;}.cls-21{fill:#074386;}.cls-22{fill:#0e4f8e;}.cls-23{fill:#010304;}.cls-24{fill:#020507;}.cls-25{fill:#010204;}.cls-26{fill:#010203;}.cls-27{fill:#020406;}.cls-28{fill:#020508;}.cls-29{fill:#03060a;}.cls-30{fill:#030609;}.cls-31{fill:#03080d;}.cls-32{fill:#040a0f;}.cls-33{fill:#050b11;}.cls-34{fill:#050c13;}.cls-35{fill:#04090e;}.cls-36{fill:#04080d;}.cls-37{fill:#060f16;}.cls-38{fill:#050d14;}.cls-39{fill:#040a10;}.cls-40{fill:#0a1723;}.cls-41{fill:#000001;}.cls-42{fill:#07111a;}.cls-43{fill:#014084;}.cls-44{fill:#165994;}.cls-45{fill:#03080b;}.cls-46{fill:#013f84;}.cls-47{fill:#0c518f;}.cls-48{fill:#115592;}.cls-49{fill:#587691;}.cls-50{fill:#fefefe;}.cls-51{fill:#303940;}.cls-52{fill:#eef0f2;}.cls-53{fill:#6a87a2;}.cls-54{fill:#7d8f9f;}.cls-55{fill:#5b6c7c;}.cls-56{fill:#618aad;}.cls-57{fill:#2a679d;}.cls-58{fill:#08131d;}.cls-59{fill:#bac9d8;}</style></defs><path d="M201.13,751q0-535.14-.13-1070.28c0-4.31,1.18-4.73,5-4.73q592.56.15,1185.12,0c4,0,4.89.71,4.89,4.83q-.18,888.56-.11,1777.13a1.17,1.17,0,0,1-1.42.11c-2.88-2.62-1.73-6.57-3.27-9.72-5.25-10.73-11.44-21-15-32.53-.61-1.93-2.14-3.34-3.39-4.9-5-6.22-7.11-13.05-4.46-20.88a9.65,9.65,0,0,0-.5-6.79c-4.18-11-8.09-22.16-12.13-33.23-.86-2.38-1.9-4.62-4-6.15-1.63-1.6-4.1-2-5.54-3.84-6.23-5.18-6-13.13-8.23-19.92-4.45-13.76-8.78-27.58-11.63-41.79-1.08-5.38-1.79-10.82-2.64-16.22-1.27-8-2.77-16-4.28-24-2.23-11.7-4.36-23.53-8.19-34.91-.58-1.71-1.57-3.68.38-5,3-2,2.32-4.55,1.27-7.07-2.55-6.13-4.91-12.34-7.49-18.46-3.61-8.58-5.87-17.62-8.58-26.5-3.06-10.05-4.54-20.46-6.49-30.76-1.12-5.87-1.17-11.91-1.81-17.86-1.19-11-5-21.36-7.67-32a204.42,204.42,0,0,0-18.82-47.65c-14.23-26.06-32.54-48.74-57.59-65.18-5.68-3.73-10.91-8.42-17-11.16-8.78-4-14.72-10.35-19.91-17.94a12.11,12.11,0,0,0-4.53-3.83c-7.81-4.09-15.53-8.35-23.64-11.81-4.65-2-8.15-5.7-12.8-7.73-7.31-3.2-14.89-3.13-22.56-2.86-2.19.08-4.29.08-6.31-1-8.64-4.7-17.95-8-26.76-12.32a18.78,18.78,0,0,1-6.64-5.1c-5-6.27-11.35-11.11-19.18-12.83-9-2-15-7.69-20.1-14.59-3.16-4.22-7-7.52-12.2-7.89-10.49-.75-16.29-7.72-21.42-15.4a33,33,0,0,1-5.64-19.89c.13-3.14-1.16-5.22-3.78-7A21.3,21.3,0,0,1,976.69,771a179.9,179.9,0,0,0,15-24.12,11.63,11.63,0,0,1,3.06-3.91c3.81-3,5.9-7.16,7.75-11.47.92-2.14,1.53-4.56,3.2-6.17,6.07-5.83,5.92-13.6,7.54-21.05,3.3-15.2,2.32-30.49,2.34-45.75,0-10.12.37-20.27-1-30.38-.82-6.1-3-11.18-8-14.92a26.15,26.15,0,0,1-6.75-6.6,5.21,5.21,0,0,0-4.72-2.28c-1.82,0-3.68.07-5.37-.84-2.49-1.94-2.13-4.74-2.14-7.36-.06-11,0-22,0-33a35,35,0,0,0-1.13-9.39c-5.06-18.48-10.3-36.91-15.13-55.45a26.37,26.37,0,0,0-3.87-8.07c-12.3-18.43-24.64-36.84-36.84-55.34a15.45,15.45,0,0,0-8.92-6.7c-19.8-5.89-39.49-12.12-59.29-18a19.34,19.34,0,0,0-7.42-.59c-14.9,1.36-29.85,2.44-44.8,2.68-11.86.19-22.42,4.26-33,8.76-11.5,4.9-23,9.76-34.61,14.4a37.65,37.65,0,0,0-14,9.31c-5.45,5.84-11.08,11.55-16.95,17A64.48,64.48,0,0,0,695,486.26c-1.68,4.36-3.81,8.51-5.91,12.68a18.29,18.29,0,0,0-1.87,4.33c-8.57,16.76-8.59,34.94-8.77,53.09-.08,7.33,0,14.66,0,22a216,216,0,0,1-2.09,31.35c-2.25,15.4-8.42,29.4-16.66,42.48-2.8,4.45-7.57,5.85-12.54,6.19-10.93.75-21.77,2.25-32.75,2.8-8.83.45-17.81,1.6-26.7,2.62-7.83.89-15.55-.46-23.38.45-10.54,1.22-21.24,1.88-31.8-.6a7.58,7.58,0,0,0-4.45.26c-5.28,2.08-9-.29-12.23-4.09a42.46,42.46,0,0,0-4-4.43c-5.18-4.5-10.37-8.14-17.84-4.42-6.35,3.16-13.17.76-19.72.2-7.45-.64-14.94-.92-22.39-1.68-3.06-.32-5.41-1.11-7-4-1.85-3.44-4.74-6-7.84-8.28-4.31-3.2-5.93-7.17-4.72-12.63,4.06-18.35,7.68-36.85,10.47-55.39,2.52-16.76,5.08-33.53,7.9-50.24,8.38-49.61,17.11-99.16,25.79-148.72.81-4.64,2.74-7.61,6.9-10.94,8.64-6.93,14.53-16.53,13.31-28.63-.33-3.25-.38-6.3,1.34-9.18a3.73,3.73,0,0,0,.8-1.82c-.41-9.17,3.49-17.77,3.53-26.85,0-2.88-.26-5.8,1.3-8.25,2.38-3.72,2.9-7.72,2.75-11.95-.14-4,1.61-7.89,1.9-11.64.61-7.95,2.9-15.51,3.8-23.27.55-4.77.22-9.53,2.54-13.95a3.93,3.93,0,0,0,.62-2.39c-1.49-7.2,1.55-14,1.57-21.17,0-8.17,2.76-16,4.41-24,1-5,1.3-10.28,3.62-15a3.5,3.5,0,0,0-.64-4.17c-2.7-3-4.66-6.48-6.94-9.77s-5.1-5.62-9.65-4.54c-2.89.7-5-1.3-7.19-2.85-10.19-7.34-10.14-7.34-7.8-19.54,4.76-24.86,7.45-50.06,11.92-75,3.36-18.69,6.28-37.45,9.5-56.16.52-3,1.4-5.77,3.71-8,2.15-2.06,2.8-4.89,3.2-7.72,1.34-9.55,3.21-19,4.89-28.5,3.15-17.71,5.74-35.51,9.4-53.14,1.74-8.41-1.28-12.27-9.76-13.21a32.35,32.35,0,0,0-8.45.51c-3.91.59-6.33-.82-7.27-4.92-1.15-5-5.25-6-9-2.33-2.14,2.1-2.78,4.87-3.2,7.7-2.27,15.16-5,30.25-7.4,45.37-1.9,11.83-3.87,23.62-6.38,35.33-.84,3.93-1.06,7.91.66,11.78,1.06,2.39.66,4.88.22,7.37C477.54,20,471.07,60.62,464,101.16c-.77,4.43-1.28,8.91-2.32,13.29-1.16,4.9-2.52,5.93-7.63,6-3.84,0-7.53-1.17-11.41-1.06-4.27.12-6.29,2-7.1,6.09-2.27,11.47-2.36,11.45-13.9,10.32-4.75-.46-6.05.66-5.05,5.2,1.45,6.56,1.19,12.56-3.85,17.66-1.25,1.26-1.24,3-1.26,4.72-.05,3.5-.2,7,0,10.49.49,7.85-.75,15.23-4.79,22.1-1.62,2.75-2.36,5.62-1,9,1.32,3.2-.18,6.58-1.14,9.75a25.27,25.27,0,0,0-1.37,9.82,7.4,7.4,0,0,1-.17,3.48c-3.82,9-3.6,18.89-5.54,28.31-1.63,7.86-3.39,15.93-3.11,24.14a13.84,13.84,0,0,1-1,6.37c-2.21,4.75-2.61,9.82-3.42,14.93-1.38,8.69-2.51,17.39-3.73,26.08-1.53,10.79-3.34,21.57-5.43,32.24-1.87,9.6-2.29,19.4-5,29-2.22,7.87-2.93,16.29-4.25,24.48-1.74,10.8-3.61,21.58-5.41,32.37-1.38,8.33-3.55,16.54-4.14,25a26.22,26.22,0,0,1-.53,3.95,300.94,300.94,0,0,0-6.23,38.79,24.45,24.45,0,0,1-1.83,6.22,16.26,16.26,0,0,0-1.32,8.29,5.88,5.88,0,0,1-.09,3c-3.46,8.81-3.43,18.28-4.92,27.43-1.52,9.34-3.27,18.65-4.86,28-2.05,12.11-3.44,24.37-6.76,36.25-1.38,4.93-2.76,5.35-7.57,4a47.83,47.83,0,0,0-29.46,1.34A105.3,105.3,0,0,0,259,653.6a42.62,42.62,0,0,0-12.47,26.08c-.48,4.4.55,8.91,1.36,13.33.54,2.92,1.46,5.83.55,8.84-4.27.6-1.91,3.67-2.11,5.78-.33,6.89-3.25,12.09-9.7,15a5.21,5.21,0,0,0-1.65,1.11c-4,4.4-8.67,5.45-14.69,4.85-7.63-.76-11.18,2.4-13.71,9.68a41.68,41.68,0,0,0-2.18,8.7C204.14,748.92,204,751.14,201.13,751Z" transform="translate(-201 324)"/><path class="cls-1" d="M989.77,602.87a24.92,24.92,0,0,0,3,.07c3.9-.33,7-.05,9.35,4.19,1.65,3,5.17,5,8,7.34,4,3.3,5.13,7.81,5.63,12.65,1.49,14.36.55,28.77,1,43.14a212.8,212.8,0,0,1-1.15,28.7c-.68,6.84-2.53,13.56-3.88,20.33-.09.48-.11,1.15-.43,1.38-8.75,6.5-8.74,18.73-17.27,25.78-4.14,3.42-5.67,9.91-8.72,14.84-1.91,3.1-4,6-6.11,9-8.73,12.18-6.86,23,5.56,31.28,2.39,1.59,2.45,3.91,2.38,6.05-.43,12.8,5.42,22.44,14.7,30.56a14,14,0,0,0,9.41,3.84c6.32-.1,10.54,3.36,14,7.81,5.79,7.45,11.94,13.68,21.92,15.71A27.83,27.83,0,0,1,1064,876.94c2.92,4.17,7.08,5.66,11.11,7.63,7.74,3.78,15.65,7.23,23.47,10.86a6.81,6.81,0,0,0,3.72.41c12.94-1.12,24.82.95,35.32,9.75,3.2,2.67,8.4,3.83,12.17,6,7.92,4.63,18.12,6.43,22.28,16.56,1.77,4.3,7.58,5.5,9.59,10,7.14-.09,10.26,6.76,15.69,9.16,11,4.86,19.7,12.59,28.13,20.51a193.78,193.78,0,0,1,15.73,16.85c7.49,9,13.41,18.86,19.57,28.65a158.14,158.14,0,0,1,17.37,38.48c3.82,12.6,7.68,25.24,10.42,38.09a146,146,0,0,1,2.47,20.5c.51,7.57,2.8,15,4,22.54a127.43,127.43,0,0,0,7,26.14c1.76,4.53,2.3,9.35,4.87,13.85,3.91,6.83,5.81,14.81,8.49,22.33.31.87.51,2.45-.6,2.6-5,.69-2.88,3.47-2.17,6.19,3,11.5,6.42,22.93,8.52,34.6,1.13,6.24,2.27,12.53,3.22,18.81,1.4,9.29,3.38,18.45,4.94,27.7,2.06,12.19,7.29,23.42,10,35.42,1,4.28,2.56,8.65,3.57,13,.62,2.71,4.73,2.66,4.17,6,.45,1.45-.61,1.91-1.56,2.45-6.62,2.37-12.61,6-18.71,9.42-13.92,7.78-29.24,12-44.1,17.35q-37.59,13.53-75.31,26.73c-6.5,2.29-12.67.12-18.85-1.67-1.18-5.34-3.61-10.26-5.41-15.38-8.49-24.23-14.14-49.24-21.25-73.85-1-3.52-2.15-7-2.86-10.61-.35-1.76-1-3.81-3.16-4-1.94-.21-2.71,1.64-3.59,3a65.06,65.06,0,0,0-9.88,33.63c-.18,7.34-1.35,14.22-5.74,20.29-2.58,3.56-3.12,7.09-.55,11.09,1.69,2.63,2.63,5.74,3.92,8.63a25.44,25.44,0,0,1-.14,21.35c-4.85,11-7.56,22.73-11.55,34-3.64,10.34-1.93,20.26,3.45,29.7,3.71,6.52,6.06,13.72,9.38,20.35,3.57,7.14,4.52,14.49,5.66,22a12.75,12.75,0,0,1,0,5.43,15.81,15.81,0,0,0-.38,7.44c1.61,7.71,1.52,15.55,2.29,23.31.61,6.09.71,12-1.42,17.72a23.82,23.82,0,0,0-.72,12.78c1.41,7.77.66,15.62.57,23.44,0,3.34-2.16,5.87-3.77,8.59-3.72,6.3-2.92,8.78,3.91,11.05s12.26,5.74,13.82,13.52c.58,2.9.79,5.54-.4,8.27-2.15,5-1.79,9.9-.75,15.15,2.42,12.3,6.44,24.11,10,36.07,4,13.45,4.28,26.86-1.73,40-3.64,8-4.26,16.38-2.71,24.95a30.55,30.55,0,0,1-.44,13.84c-1.27,4.64.13,9.31,1.16,13.8,1.34,5.84,1.61,11.48-.35,17.19a25.26,25.26,0,0,0-.67,13.31,41.22,41.22,0,0,1,.54,12.41c-.59,5.55,2.33,10.65,2.94,16.14.54,4.87.69,9.27-3.1,13-1.75,1.72-1.33,4-1.14,6.15,1.36,15.93,5,31.58,6.2,47.52.87,11.27,2.41,22.51,1.69,33.87-.49,7.64.35,15.28.1,23-.26,8.14-2.3,16-2.08,24.29.12,4.65.59,9.24.81,13.86.49,10.68-.56,21.27-1.93,31.85-1.65,12.79-5.32,25.51-1.26,38.54.88,2.82.49,6,.25,9-1.36,17.39-1.27,35-7.33,51.72-2.86,7.89-3.89,16-4.55,24.36-.71,8.87-3,17.65-4.41,26.51-.23,1.47-.5,3-2,3.78H554.05c-1.79-2.47-.42-4.84.41-7.11,3.06-8.33,4.08-16.83,2.17-25.53-2-9.26-.73-18.26,2-27.1a43.26,43.26,0,0,0,2-13.26c-.07-22.66-1-45.37.21-68,.73-14.12.69-28.25,1.13-42.34.34-10.7,1.87-21.57,0-32.35-.59-3.5.91-7,.56-10.45-1.58-15.57,0-31.26-2.28-46.84-.88-6.17-.31-12.59-.44-18.89-.33-15.78-2.16-31.51-.57-47.4.91-9-1.7-18.15-2.18-27.3-.3-5.8,0-11.66-1-17.44-5.67-32.44-6.09-65.18-5.48-98a40.15,40.15,0,0,1,2.18-11.25c3.39-11,4.57-22.49,9-33.21,1.52-3.71.33-7.91.41-11.87.4-20.12.24-40.17-2-60.3-1.4-12.38,0-25.21,1.94-37.78,2.09-13.64,2.48-27.48,3.53-41.23a14.34,14.34,0,0,0-.35-5,4.21,4.21,0,0,0-3.8-3.45,4.13,4.13,0,0,0-4.34,2.71,14,14,0,0,0-1.41,6.3c.4,10-4.54,17.29-12.09,22.86-9.4,6.93-19.36,13.07-30.46,16.92-17.13,5.94-34.29,3.68-51.15-1a171.16,171.16,0,0,1-45.56-20,54.26,54.26,0,0,1-13.81-12.16c-2.07-2.6-4.13-5.24-6.92-7.15a3.61,3.61,0,0,1-1.65-1.82c-3.59-12.06-10.25-23-12.39-35.63a75.9,75.9,0,0,1-.23-20.63c.42-4,.16-7-1.69-10.32-6.13-11-7.08-23.5-10.35-35.33a2.62,2.62,0,0,1,.3-1.45c1.38-1.64,3.26-1.47,5.07-1.28,3.15.33,6.36.46,9.37,1.46,11.66,3.91,24,3.23,35.89,5.48a9.44,9.44,0,0,1,1.58.33c5.42,1.19,11.1-.3,16.45,1.61a13.12,13.12,0,0,1,1.49.4c5.9,1,11.77,1.65,17.77.49,3.67-.71,5.56-2.52,6.91-6.12,3.05-8.18,1-15.35-2.36-22.9-7.53-16.84-15.85-33.27-24-49.83-9.47-19.38-20.37-38-29.27-57.68-2.51-5.55-4.48-11.36-7.48-16.72-.11-1.59.74-2.81,1.55-4,3.2-4.59,4.78-5.39,9.72-3.49s9.78,1.46,14.69,2c1.69,2.07,1.8-.08,2.39-.92a6.65,6.65,0,0,0-.19-6.68c-6.7-11.69-11.42-24.35-18-36.08a35.32,35.32,0,0,0-5-6.81c-3.51-7.34-6.94-14.71-10.38-22.09a36.54,36.54,0,0,1,1.14-13.45c1.51-6.88.14-13.87.84-20.77a9,9,0,0,1,.33-1.72c1.24-13.71,5.1-27.14,4.49-41,.07-6.32.56-12.69-2.38-18.63-2.32-7.3-2.74-15.08-5.47-22.29-6.78-17.86-11.73-36.4-20.26-53.62-9.36-18.92-12-38.78-5.84-59.15,2.68-8.88,7-17.25,10-26.1,4.23-12.81,11.73-23.85,18.42-35.34a137.87,137.87,0,0,0,10.16-15.36,13.28,13.28,0,0,1,1.49-1.51c4.72-5.11,7.28-11.87,12.55-16.58,5.36-5.28,9.05-11.88,14-17.52,5.8-6.58,12.88-9.19,21.17-9.36a18.36,18.36,0,0,0,9.05-2.25c4.75-.23,9.5-1.05,14.22.53,1.57.52,3.26.6,4.47,1.91.66.93.18,2.53,1.75,2.93,3.61,1.26,7.6,1.82,9.85,5.49.76,5.91-1.11,11.5-2.31,17.14a103.58,103.58,0,0,0-2.38,16.24c-.14,2.53.7,3.65,3.18,4,5.12.66,10.22,1.47,15.21-.64,11.35,2.36,20.78,7.52,27,17.79,2.4,4,5.06,7.77,7,12a29.13,29.13,0,0,1,2.9,11c.46,8.51,5.78,11.83,13.54,8.45,16.45-7.15,32.93-14.13,47.7-24.78a83,83,0,0,1,26.87-12.7c12.3-3.36,23.58-9.78,35.07-15.4,7.64-3.72,14.75-8.41,22.52-11.86,2.54-1.13,3.46-2.87,2.48-5.61a17.72,17.72,0,0,1-.32-11.32c2.72-8.68.13-16.3-3.66-24-2.86-5.8-5.15-11.87-4.87-18.55,1.26-2.49,3.6-2.46,5.9-2.57,3.4-.16,6.85.44,10.2-.62,5.45-.67,10.41-3.21,15.88-4,3.69-.5,6.49-5.37,6.88-10.45.8-10.29-.42-20.52-1.37-30.7-.88-9.51-.08-18.84.66-28.23a7.92,7.92,0,0,0-.11-5.59c-1.85-7.44-1.05-15-1.22-22.53,0-2.13.18-4.28-.59-6.34-.71-3.1-.13-6.32-.74-9.41-.82-4.2,1.06-6.17,5-7,6.66-1.45,13.37-2.56,20.07-3.78,5.55-1,11.08-2.11,16.63-3.18a30.63,30.63,0,0,0,11.16-2.38c8.56-3.69,17.66-4.28,26.65-5.78,10-1.65,20.11-2.33,30-4.71,2.27-.54,4.64-.27,7-.31,6.3-.13,12.62.35,18.9-.85a20.49,20.49,0,0,1,7.93.4,27.4,27.4,0,0,0,10.9,0,23.07,23.07,0,0,1,9.89,0,20,20,0,0,0,8.92.3c8.44-2,16.48.8,24.71,1.36,12.78.87,25.21,4,37.86,5.65,8.55,1.12,15-3.11,19.91-13,4.51-6.74,6.4-14.77,10.57-21.69.6-1,.25-2.26.27-3.41C987.94,607.11,986.71,604.26,989.77,602.87Z" transform="translate(-201 324)"/><path d="M370.05,1393c2.56,9.77,5.37,19.49,7.59,29.33.88,3.93,4.25,6.24,5.17,10,.58,2.37,1.41,4-.35,6.8-2,3.17-.29,7.5,1.33,11.1.24.55.85,1.27.69,1.6-2.33,4.67-2.14,5.27-.92,10,2.84,10.92,6.12,21.63,12.38,31.17,1.15,1.75.17,2.74-1.61,3.61,5.13-.77,6.45,3.83,8.52,6.47,8.63,11,20.22,17.58,32.63,23.12,11.39,5.08,22.85,9.86,35.2,12.3,19.76,3.89,38.6,3.25,56.35-8,8.07-5.11,16.6-9.28,22.88-16.86,1.91-2.31,3.24-4.43,3.53-7.33.43-4.31.81-8.62,1.4-12.91.52-3.82,2.71-6.15,6.73-5.82,3.74.3,5.72,2.77,5.66,6.39-.1,5.31-.53,10.64-.71,15.93-.63,18.63-5.13,36.87-4.75,55.6.55,27.22,3.31,54.4,1.78,81.67-.27,4.84-2.63,9.27-4.13,13.71-9.29,27.63-8.27,56.1-7.45,84.47.28,9.67.43,19.61,3.84,29.16,2.51,7,1.4,14.82,2.23,22.26,1.31,11.88,1.3,23.9,2.66,35.82.65,5.73-.15,11.62-.38,17.43-.65,17,.72,33.9,1.57,50.76.7,13.72-.26,27.59,2.16,41.26a34.78,34.78,0,0,1-.66,14.38,7.69,7.69,0,0,0,0,3.93,25.66,25.66,0,0,1,.81,11.39c-1.85,10.27-.15,20.56-.64,30.83-.34,7.31-.19,14.66,0,22,.12,4.79-2.09,9.08-1.95,14,.61,22.44.53,44.89.72,67.34a20.63,20.63,0,0,1-1.38,7.79,51.88,51.88,0,0,0-2.9,29.44,46,46,0,0,1-2.34,26.41,57,57,0,0,0-1.65,6.26q-174.21,0-348.43.1c-3.74,0-4.59-.85-4.59-4.6q.15-706.19.1-1412.38c2.32-.3,2.72,1.44,3.15,3.05a32.78,32.78,0,0,1,.62,3.95c1.17,8.36,4.85,14.8,13.32,17.67,1.95.66,3.11,2,2.63,4.18a3.18,3.18,0,0,1-3.72,2.6c-6.37-.6-8.51,3.95-9.9,8.63a19.45,19.45,0,0,0,2,15.91c1,1.63,2.23,3.22,4.07,3.47,4.54.63,7.33,4.5,11.48,5.78,1.88.58,1.85,2,1.39,3.63-2.85,10.42-4.68,21.06-6.72,31.65-.72,3.74,1.31,5.64,4.09,7.14a107.74,107.74,0,0,0,25.62,9.76c12.14,3,24.33,5.84,37,3.31,3.63-.73,4.25,1.85,4.16,4.57-.16,4.67-1.28,9.24-1.76,13.87-1.64,15.8-6.62,30.94-9,46.6-.47,3.17-2.41,4.56-5.53,4.57-4.21,0-8.09.63-9.29,5.66-1.37,5.72-.1,10,5,12.83,7.62,4.25,14.31,10.48,23.55,11.56,2.43.29,3.3,1.63,1.62,4.2-2.1,3.22-1.29,6.1,2.39,7.69,1.57.68,2.86,1.5,2.08,3.27-2.82,6.37-2.46,13.38-3.62,20-1.44,8.29-2.65,16.74-3.65,25.17-1.09,9-2,18.24-4.09,27.13a242.53,242.53,0,0,0-6.09,37.43c-.87,11.51-4.62,22.48-5.95,33.92-1.56,13.37-3.81,26.67-5.83,40-3.15,20.71-6.73,41.34-9.95,62-5.35,34.39-11.38,68.67-16.32,103.12-.55,3.79-.75,7.61-1.39,11.4-1.14,6.71,1.22,11.18,7.28,14.4,6.41,3.41,13.4,5,20.47,6.24,29.06,5,58.4,8.19,87.51,12.9,2.31.37,4.67.06,7,.44C367.33,1389.18,369.86,1389.72,370.05,1393Z" transform="translate(-201 324)"/><path class="cls-2" d="M370.05,1393a7.68,7.68,0,0,0-6.33-3.21c-11.45.08-22.51-3.1-33.83-4.28-11.12-1.17-22.21-2.8-33.26-4.6-15.08-2.46-30.48-3.4-44.91-9.07-8.81-3.46-11.91-8.26-10.61-17.52,2.31-16.44,4.49-32.88,7.57-49.23,2.15-11.44,3.1-23.16,5.27-34.63,3.42-18,5.08-36.2,8.95-54.11,2.38-11,2.92-22.42,4.6-33.59.94-6.31,2.48-12.52,3.86-18.76,2-9,2.37-18.32,3.67-27.46,1.12-8,3.43-15.64,4.39-23.59,1.17-9.64,2.77-19.23,3.75-28.88.67-6.62,3.11-12.81,4-19.33,1.68-11.88,3.21-23.79,5-35.67,1.4-9.51,3.15-19,4.53-28.5.33-2.28-2-5.17,2-6.39.58-.18.54-1.74-1.22-1.39-4.73.94-4.17-3.41-5.17-5.78s0-4.72,3.18-5.56c-11.65-1.22-19.84-8.66-28.92-14.23-3.77-2.31-4.83-7.84-3.22-13.45,1.34-4.69,4.81-6.4,9.14-5.85,4.64.59,6-1.63,6.53-5.58,2.35-17.63,8-34.67,9.22-52.52.19-2.91,1.36-5.77.73-9-21.86,3.78-42-2.49-61.82-10.72a30.39,30.39,0,0,1-6.52-3.47c-2.64-2-3.83-4.29-2.53-8.16,1.71-5.09,1.21-11,3.36-15.84,2.43-5.45-.53-12.12,4.78-17-4.07,1-5.92-1.44-7.79-4-.36-.49-1.08-1.08-1.6-1-7.69.53-9.6-5.08-11.23-10.72-2.21-7.66-.21-14.41,5.26-20.1,1.73-1.79,4-1.28,6.13-.77,1.43.35,2.73.73,3.16-1.1s-.34-2.74-2.2-3.2c-11-2.66-13.81-11.3-15.09-20.95-.24-1.81.18-3.72-1.8-4.82v-8c3.38-3.11,2.11-7.67,3.34-11.47,3.14-9.75,8.44-14.35,20.83-12,1.32.26,2.92.71,3.78-.41,3.12-4.09,7.85-5.92,11.79-8.84,3.56-2.65,3.39-7.24,4.31-11.19a29,29,0,0,1,2.08-5.07c1.18-6.05-1.22-11.85-2.15-17.58-.81-5,.56-9.2,1.53-13.32,2.52-10.7,10.09-18.24,18.31-25.2a105.49,105.49,0,0,1,32.46-19c10.37-3.74,21.19-5.59,31.91-1.06,3.24,1.37,4.35,0,4.91-2.63q2.86-13.51,5.28-27.12c1.38-7.77,2.48-15.62,3.81-23.38,1.55-9.06,4.29-18,4-27.44a23.44,23.44,0,0,1,1.86-8.64c1.2-3.16,2.74-6.34,1.34-10-.94-2.47.59-5,1.7-7,2.86-5.12.75-10.79,2.42-15.93,3.32-10.23,3.24-21.08,5.78-31.52,1.26-5.19,3.36-10.9,2.95-16.13-.69-8.68,2.94-16.36,4-24.57,1.2-9.33,1.59-19.06,5-28.08,1.59-4.23-.22-8.8,1.47-13,3.88-9.59,3.86-20,5.52-30,2.12-12.68,5.51-25.31,6.1-38.08.41-8.72,3.1-16.88,3.91-25.47a174.89,174.89,0,0,1,4.82-25.5c1.35-5.36.1-10.89,2.06-16.14,3.3-8.81,2.95-18.37,5.18-27.51,1.58-6.49,2.42-13.62,3.66-20.46.12-.64.28-1.58-.06-2-4.27-4.68-.1-8.68,1.59-12.27,2.07-4.4,3.71-8.6,3.55-13.5-.14-4.32-.07-8.66,0-13,.06-4.16-.62-8.07,3.61-11.53,3.39-2.76,2.92-7.8,1.74-12.18-2.22-8.22-.52-10,7.64-8.16a34.42,34.42,0,0,0,4.44.45c3.23.3,5.66-.28,5.39-4.41-.07-1.1.7-2.21.84-3.35,1.5-11.88,4.06-9.54,14.18-9.54.94,0,1.86.72,2.82.85,7.91,1,9.07.28,10.37-7.63,3-18.51,5.9-37.06,8.95-55.58,2.27-13.78,4.7-27.54,7.1-41.3,2.18-12.47,4.43-24.94,6.61-37.41a5,5,0,0,0-.52-3.87c-2.79-3.93-2.19-8.48-1.12-12.42,3.79-14,5-28.48,7.6-42.7,2.54-14,4.72-28,6.95-42,1-6.34,7.18-8.29,11.92-7.73,2.92.35,2.55,2.51,2.65,4.5.26,5.19,1.53,6.35,6.41,5,4.72-1.31,9.25-.65,13.7.65s6.25,5,5.65,9.23c-1.4,9.77-3.41,19.45-5.07,29.19-2,11.84-3.35,23.84-6.13,35.5-1.89,7.9-1.57,16-3.68,23.83-.49,1.81-.86,4-2.13,4.93-5.73,4.29-4.59,10.9-5.74,16.56-3,14.82-4.85,29.85-7.8,44.7-2.79,14-4.41,28.26-6.64,42.38-2.38,15.12-4.81,30.23-7.44,45.3-.33,1.9,0,2.61,1.47,3.56,3.05,2,5.84,4.38,8.93,6.29,1.84,1.13,3.14,2.59,6.44,1.11,4.23-1.89,7.48,2.57,9.72,6,2.44,3.69,4.21,7.81,8.12,10.33,1.59,1,.29,2.09-.12,3-4.16,9.12-4.65,19.12-6.78,28.72-1.23,5.52-3.61,11.13-1.12,17-5.56,7.23.42,16.91-5.35,24.36-2.43,3.13,1.73,7.53-.35,11.57-2.57,5-4.5,10.26-2.15,16a2.51,2.51,0,0,1-.32,1.92c-3.36,5.27-3.57,11.07-3.07,17a11,11,0,0,1-2.28,7.38A9.93,9.93,0,0,0,504,292c.7,3.9.7,7.83-1.86,11.42a9,9,0,0,0-1.24,7.6c1,4,.82,8-1.95,11.36a7.14,7.14,0,0,0-1.25,6.16c2.8,13.75-5.44,23.07-12.91,32.71-.2.25-.5.63-.73.61-6.54-.54-5.43,4.74-6.07,8.3q-7.53,42-14.82,84.07c-4,22.88-8.33,45.71-11.71,68.68-2.15,14.63-5.38,29.07-6.57,43.93-.77,9.55-3.94,19.08-5.62,28.72-1.85,10.53-4,21-6.26,31.46-1.08,5,2.84,6.68,5.29,9.35,1.32,1.45,3.8,2.2,4.49,3.81,3.77,8.79,11.66,8.06,18.94,8.51A209.17,209.17,0,0,1,484,650.88c5,.85,9.69-.69,14-2.65,2.9-1.31,4.62-.58,7.07.62,5.86,2.87,9.93,7.69,14.18,12.29,2.15,2.34,4.13,3,6.95,1.66,4.94-2.27,9.81-.07,14.64.57,9.66,1.29,19.14-.66,28.7-1,1.15-.05,2.34-.52,3.44-.36,11.75,1.77,23.39-.31,35-1.11,13.65-.93,27.28-2.34,40.86-4,3.8-.46,7.76-1.74,10-5.66,6.57-11.4,12.39-23.11,15.14-36.08a119.4,119.4,0,0,0,2-13.3,280.23,280.23,0,0,0,.83-37.33c-.57-14.71,1.15-29.28,2.48-43.87.62-6.74,5.18-12.18,7.08-18.55a4.06,4.06,0,0,0,1.57-3.17c3.74-8.34,7.28-16.79,11.36-25,1.43-2.89,4.05-5.24,6.35-7.63,7.4-7.67,15.06-15.1,22.31-22.91a35.12,35.12,0,0,1,13-8.79c17.28-7,34.48-14.13,51.66-21.34,4.15-1.74,8.53-1.49,12.78-1.81,16.92-1.28,33.87-2.26,50.82-3.12,8.71-.44,16.44,3.79,24.55,6.07,14.71,4.15,29.22,9,43.87,13.33a9.82,9.82,0,0,1,5.75,4.34q19.64,29.55,39.36,59c2,3,2.73,6.39,3.65,9.75,4.91,18.1,9.81,36.21,14.85,54.27a23.61,23.61,0,0,1,.79,6.39q0,18,0,36c0,1.81-.25,3.67.69,5.37-1.31,2.25-.22,4.8-.88,7.14-4.67,8-7.21,17.1-12.06,25-3.77,11.1-11.23,14.7-26.77,11.87-11.23-2-22.5-3.74-33.85-5-7.54-.84-14.9-2.76-22.61-1a17.63,17.63,0,0,1-9.36-.68,11.87,11.87,0,0,0-6-.11c-5.78,1.23-11.57-.12-17.21.2-14,.8-28.07.34-42.06,2.88-8.87,1.62-17.79,3.78-27,4a33.63,33.63,0,0,0-13,3A83.7,83.7,0,0,1,763,655c-11.86,3-23.95,4.7-35.95,6.92-3.24.59-6,.84-4.38,5.65,1,2.84.32,6.23.41,9.38.26,9.69-1.24,19.47,1.41,29,.2,1.64.7,3.25.41,4.93-.39,7.81-1.57,15.67-1,23.4.78,10.17,1.79,20.31,2,30.51.06,3.09.75,6.6-.43,9.2-3,6.66-2.53,8.84-11.17,8.84-4.2,0-7.84,3.47-12.33,3-5.14.55-10.39-.85-15.48.81-6.43,2.11-13.21,4.06-19.76,4-10.38-.1-20.52,1.71-30.8,2.12-3.15.12-6.29.66-9.43,0-2.25-.69-3.58,1.59-5.57,1.75-16-.46-31.86.68-47.79,2a133.72,133.72,0,0,1-28.4-.67c-7.77-1-14.55-.49-18.91,7.39-1.81,3.28-5.78,4.78-7.78,8.28-1.56,2.72-2.71,5.28-2.55,8.39a41.37,41.37,0,0,1-2.11,14.26,37.32,37.32,0,0,0-1.88,12.8,66.89,66.89,0,0,1-1.83,16.8c-3.2,3.35-7.12,2.66-11,1.84-3-.63-6.9.85-9-1.42s-.09-6,.24-8.93c.91-7.9,2.77-15.7,4.24-23.54.36-1.93.64-3.88,1-5.82-1.08-3.84-.1-7.57.57-11.32,1.56-8.76-6.05-15.27-14.46-12.25-5.33,1.92-9.66,5.09-12,10.53-.59,1.36-.75,3.46-3.17,3.07-1.64,3-4.33,3.3-7.44,3.12-12.25-.73-21,5-27.59,14.94-2.7,4.09-6,7.81-9,11.7-2.12-.37-2.95,1.47-3.69,2.66-2.91,4.76-6.79,8.89-9.17,14l-.92,1a68.34,68.34,0,0,0-10.08,15.17c-2.15,6-6.24,10.79-9.49,16.11-4.84,7.92-8.12,16.61-11.09,25.34-3.57,10.5-9.55,20.18-10.28,31.7-.83,13.12-.73,25.92,5,38.22,9.88,21.24,17.63,43.32,24.81,65.59,1.93,6,2.64,12.33,3.9,18.51a64.87,64.87,0,0,1,2.29,18.33c.23,12.31-2.47,24.26-4.18,36.34-.3,2.15.12,4.3.1,6.46l0-.18c-1.44,5-.29,10.06-.66,15.08-.18,2.44.41,4.93-.4,7.34q-.59,6.8-1.18,13.59c-2.93-2.45-.76-5.48-1.28-8.2-.18,3.85-.59,7.57,1.76,11.27,2.64,4.15,5.26,8.37,6.23,13.42.34,1.72,1,4,3.38,4.54,5.5,4.8,8.62,11.35,11.12,17.8,3.23,8.37,8.05,15.82,11.87,23.82,1.6,3.35,2.49,6.38.15,9.64-.67-.57-1-1.18-.23-1.91-.84.22-.36,1.07-.75,1.56-.57.71-1.39.64-2.1.92-1.61-.46-3.3-.86-4.81,0-2.08,1.19-3.53-.23-5.35-.6-3.34-.69-6.42-3.39-10.2-1.8-1.58.67-3.12,1.17-2.82,3.34-1.55,1.38-2.23.07-3-1s-.34-3-2.11-3.87c.75,3,2.75,5.28,3.13,8.18,7.82,13.37,12.56,28.26,20.28,41.64,10.47,18.14,18.36,37.57,28.51,55.85,6.65,12,11.46,24.78,16.61,37.44,2,5-2,8.65-2.18,13.15-.29,6.15-5.4,5.79-9.74,6.8-5.67,1.32-11-.2-16.4-1a6.67,6.67,0,0,1,4.13-.41c-.72.15-2.46-.62-4.13.42-5.8-2.31-12.09-.24-17.95-2,3.88-1,7.83-.19,11.73-.55-3.9.45-7.86-.54-11.74.54-3.13.16-6.17-.7-9.21-1a258.89,258.89,0,0,1-36.93-5.92A22.46,22.46,0,0,0,370.05,1393Z" transform="translate(-201 324)"/><path d="M1149.94,2175.9c1.78-10.14,3.8-20.25,5.26-30.44.65-4.6.67-9.28,1.39-13.94,1.05-6.79,4.34-12.8,5.64-19.48,1.88-9.76,4.27-19.32,3.09-29.47-.45-3.86,1.24-8,1.78-12,1.06-7.83-1.46-15.35-2.44-23a26.69,26.69,0,0,1,.69-8.54c2.66-14.39,4.57-28.84,4.51-43.47,0-8.28-1.35-16.55-.83-24.85s2.33-16.23,2.52-24.5c.07-2.65-.77-5-.64-7.69.36-7.74.71-15.56,0-23.26-1.43-15.61-1.84-31.32-5.45-46.75-1.94-8.25-1.75-17-2.65-25.51a1.86,1.86,0,0,1,1.24-2.25c3.46-1.76,4.48-4.92,3.84-8.41-.73-4-.65-8.12-2.1-12-1.35-3.64-2.22-7.24-1-11.45.85-2.92.17-6.67-.89-9.68-2.1-6,.21-11.53,1.69-16.84,1-3.41.5-6.21.06-9.26-1.07-7.33-4-14.46-.75-22.1,1.43-3.36-.42-7.17-1-10.7-1.6-10.19,1.52-19.21,4.92-28.63,2.79-7.72,3.23-16,1.76-24.8-2.53-15.05-9-28.88-11.57-43.84-1.24-7.08-2-13.54,1.13-20.23,1.47-3.17-2.61-12.57-5.83-14.18-2.95-1.48-6-2.78-9.1-4-6-2.3-8-5.74-4.08-10.8,7.67-9.86,4.67-20.69,4.17-31.21-.27-5.68-.88-11,1-16.62,3.48-10.12.37-20.47-.07-30.68-.25-6-.47-11.89-.57-17.79-.12-7-.14-15-4.71-21.75-2.57-3.79-3.56-8.65-5.3-13-3.23-8.07-8.13-15.36-10.57-23.85-1.66-5.78.07-11.11,1.62-16.07,1.86-6,3.8-12,5.37-18,1.91-7.36,5.47-14,7.53-21.38,2.19-7.82-.28-14.18-3.14-20.82-1.08-2.51-1.7-5.22-3.54-7.44a3.86,3.86,0,0,1-.11-4.74c8-9.4,7.92-21,9-32.26.95-10,5-18.86,9.79-27.46,1-1.79,2.69-3.58,4.58-3.42s3.26,2.58,3.61,4.39c1,5,2.79,9.79,4.15,14.69,2.27,8.26,4.57,16.51,6.75,24.79,1.48,5.64,3.32,11.18,4.29,17,.51,3,1.93,5.89,2.73,8.88,2.27,8.45,5.37,16.65,7.82,25,1.18,4,5.91,7.24,3.35,12.27,6.12,2.83,7.12,4.64,5.73,11.07a6,6,0,0,0,1.47,5.51c1.79,2.17,3.86,4.14,5,6.79a10.92,10.92,0,0,1,.93,5.32,19.34,19.34,0,0,1-.74,4.89c-1.56,4.33-.8,7.7,2.54,11.18,4.72,4.9,4.92,11.32,4,17.74-.36,2.61-1.08,5.2-.16,7.83a17.38,17.38,0,0,0,1.69,5.24c2.6,7.51,5.44,14.8,4.62,23.19-.57,5.87,1.75,11.79,2.59,17.72.4,2.79,1.7,5.72,1.24,8.35-2.66,14.88,3.94,28.75,4.35,43.27a132.12,132.12,0,0,1-1,23.87c.12.7-.55,1.77.38,2s1-.92,1.47-1.52c.39-.81.76-1.61,1.17-2.41,1.1-1.87,2.05-3.85,3.8-5.26,1.27-.64,2.53-1.09,3.7.19a16.18,16.18,0,0,1,2.23,13.69,31.24,31.24,0,0,0,.34,17.27c1.64,5.28,1.86,10.9,2.3,16.2.65,7.74,2.75,15.31,2.69,23.1a20.28,20.28,0,0,0,1,5.87c3.84,13,5.24,26.45,7.24,39.8,1,6.7,1.11,13.57,3.11,20.11a19.43,19.43,0,0,1,.65,6.43c-.46,12.37,1.38,24.45,3.44,36.63,1.36,8.07,1.59,16.47,2.65,24.62,1.66,12.91,2,25.81,2,38.75,0,1.6.73,3.23-.13,4.8-6.45,2.68-12.42,7.33-20.13,5.14-2.31-.67-4.61-1.36-7.07-1-5-.24-9.88-1.5-14.85-2-5.4-.51-8.43,1.42-10.48,6.4-3.15,7.69-3.65,15.83-4.36,24-.22,2.55,1.25,3.85,3.31,5,4.13,2.38,8.61,3.39,13.26,4,2.57.36,5.12,1.1,4.74,4.55-.34,3.19-2.92,3.17-5.27,3.33-8.24.58-8.38.59-6.84,8.91a15.79,15.79,0,0,1-2,11c-3.28,6-6,12.23-10.07,17.79a11.87,11.87,0,0,0-2,5.09c-1.73,11-4.87,21.71-6.78,32.71-3.63,20.9-6.54,42-13.9,62.14-3.79,10.38-4.6,21.52-5.73,32.41-.67,6.44,4.9,10.62,9.56,14.3,3.37,2.67,7.62,4.07,11.5,6,1.58.8,3.23,1.08,4.73-.05,3.7-2.8,7.71-5.25,9.93-9.64,6.6-13.08,13.24-26.11,18.78-39.72,3.49-8.58,3.78-17.5,4.82-26.39.36-3.12-.32-7.13,2.56-8.73,3.24-1.81,5.42,2.2,8.13,3.53,6.69,3.28,8.69,8.47,6.71,15.64-3.17,11.48-1.63,23.47-3.56,35.13-2.42,14.57-7.51,28.31-12.16,42.19-1.4,4.17-4.08,7.63-6.74,11-6.13,7.89-12.32,15.73-18.91,23.25s-4,16.38,5.1,20.13c7.63,3.14,15.11.75,22.68.36,11.69-.59,20.85-7.39,30.79-12.26a10.59,10.59,0,0,0,3.84-3.88c11.55-17.3,28.34-27.79,46.83-36.06,1.82-.82,3.59-1.73,5.36-2.66,5-2.58,7.92-6.34,8.37-12.09.66-8.44,4.35-15.4,10.06-21.71,8.07-8.9,14.19-19.32,21.16-29.07,3-4.25,6.18-8.37,10.74-11,7.44-4.27,8-10.71,4.54-17.71-7.12-14.25-11.82-29.33-17.29-44.16-1.21-3.29-2-6.71-3.32-10-1.1-2.7-.27-5.23.74-7.74,2.13-5.28,3.72-10.6,3.47-16.47-.16-4-1.08-7.24-4.21-9.66-6.55-5.05-8.3-11.15-7.35-19.64a102.58,102.58,0,0,1,9-33c1.61-3.42,1.39-5.57-2.56-6.78a4.83,4.83,0,0,1-3.49-3.92c.72-21.12,1.39-42.24,3.63-63.25,1.45-13.54,3.54-27,5.49-40.53,3.11-21.57,6.73-43.07,9.56-64.69,2-15.53,3.33-31.06,4.69-46.63.74-8.46.63-16.94,1.52-25.37.34-3.15,1-5.87,3.56-7.91a53.1,53.1,0,0,1,5-3.22,7.76,7.76,0,0,0,3.91-6.53c1.08-14.74,2-29.51,1.82-44.26-.1-8.72-1.81-17.46-1.87-26.24-.06-10.23,3.06-20,5.19-29.86.23-1.06.77-2.28,2.33-2.11q0,348.22.09,696.44c0,3.75-.84,4.61-4.59,4.6Q1270.66,2175.8,1149.94,2175.9Z" transform="translate(-201 324)"/><path class="cls-3" d="M1199.91,1417.75c-1.87-2.3-3.64-4.68-5.63-6.87-1.38-1.52-2.12-3.22-1.1-5,2.36-4,.92-6.78-2.42-9.23a11,11,0,0,1-1.8-2.27c2.06-1.23,4.24-.83,6.29-.21,5.33,1.62,10.24.75,15.45-1.13,34-12.26,68.24-24.16,102.3-36.4,8.77-3.15,16.52-8.52,24.82-12.72,2.22-1.12,4.36-2.43,6.86-2.88,2.6.37,5.25.56,7.61,1.89,2.6.52,3.12,2.77,3.85,4.75,4.61,12.46,9.13,25,13.78,37.4a5.43,5.43,0,0,1-.05,4.28c-3.18,7.94-1.19,14.9,4.26,21a19.88,19.88,0,0,1,4.52,8.19c1.65,6.16,4.95,11.59,7.7,17.26,3.45,7.12,7.89,13.87,8.42,22.1,1.56,2.13-.29,4.81,1.12,7v10c-3.55,12.89-7.58,25.79-5.69,39.37,2.38,17.11,1.18,34.2.57,51.31-.1,2.95-1,6-.56,8.83,1.17,8.21-4.06,11.11-10.3,13.41-2.52-.06-2.12-2.13-2.34-3.62-.55-3.87,1.06-8.31-2.07-11.48-4-4-9.53-5.8-14.78-6.75-11.9-2.16-23.77-4.92-36-4.66a371.1,371.1,0,0,0-67.68,8c-7.2,1.49-13.65,5.19-20.45,7.88-1.82.73-3.53,2-5.67,1.49l-2.84,1.21c-1.43,1.51-3,2.92-3,5.29.24.89.26,1.64-1,1.67-1.11,1.15-2.16,2.56-3.94.94-.3-6.8,1.78-13.51,1-20.3-1.31-11.34-1.05-23-5.6-33.76-.81-1.91.06-3.64.42-5.37,2.2-10.67-1.82-20.7-3-31-.17-1.49-1-3.11-.61-4.4,2.5-8.43-2.16-15.48-4.16-23-.29-1.71.34-3.68-1.39-5-1.87-4.91.43-9.79.22-14.73a15.44,15.44,0,0,0-5.49-11.73c-3-2.44-2.93-4.83-2.26-7.85.56-2.56,1.11-5.13,1.67-7.69C1202,1421,1201.76,1419.21,1199.91,1417.75Z" transform="translate(-201 324)"/><path class="cls-4" d="M1395.89,1465c-1.72-2.1-1-4.61-1.12-7l1.12,0Z" transform="translate(-201 324)"/><path class="cls-5" d="M247.26,702.07c1.07,2.41-1.07,3.51-2.08,5.07C245.39,705.25,242.89,702.25,247.26,702.07Z" transform="translate(-201 324)"/><path class="cls-6" d="M1352.29,1343a23.32,23.32,0,0,1-7.61-1.89c.94-.25,1.93-.44,2.41-1.46C1348.87,1340.67,1351.15,1340.94,1352.29,1343Z" transform="translate(-201 324)"/><path class="cls-7" d="M687.92,498.91c1.05,1.84,0,2.66-1.57,3.17A3.86,3.86,0,0,1,687.92,498.91Z" transform="translate(-201 324)"/><path d="M509.7,863.83c-.27-1-2.18-1-1.63-2.2,3.73-7.86.52-16.57,3.1-24.56,2.15-6.69,2.65-13.6,3.21-20.59.38-4.69,3-9.45,8.23-11.34,1.69-.61,2.08-2.31,2.58-3.41,3.82-8.31,11.16-8.15,18.19-7.21,5.49.74,10.91.45,16.35.78,16.86,1,33.51-2.84,50.36-2,4,.18,8,.12,11.95.18a31.56,31.56,0,0,1,4.27-2.24c6.8,1.58,13.45-.79,20.21-.8,6.32,0,12.52-2.36,19-.81a8.76,8.76,0,0,0,6.72-.84c4.2-2.63,9.07-1.48,13.59-2.34,1.11.56.66,1.41.42,2.22,2.11,8.23,4.6,16.28,8.6,23.87,2.86,5.44,2.9,11.38,1.25,17.3-1.31,4.72-1.79,9.37.68,14,1.21,2.23-.44,3.25-2.19,4.17-11.86,6.23-23.42,13.16-35.67,18.51-9.55,4.18-18.84,9.08-29.18,11.61-9.49,2.32-17.74,7.86-25.79,13.29-4,2.67-7.63,5.78-12,7.82-10.87,5.12-21.71,10.31-32.72,15.11a10,10,0,0,1-14.35-8.88c-.65-13.44-8-23-16.87-32.1C522.86,867.94,515.8,867,509.7,863.83Z" transform="translate(-201 324)"/><path class="cls-8" d="M466.06,816c2.52-2.27,2.26-6,4.92-8.4,7.61-6.74,13.31-9.23,21.3-5,4.07,2.17,6,5.28,4.86,10.17-1,4.32-1.34,8.78-2,13.18-3.69-1.26-6.9-3.86-11-4-.58-2.46,2.35-1.56,2.84-2.93a1.8,1.8,0,0,1-2.88-.11c-4.88-1.29-9.53-4.45-14.9-1.51C468,818.11,466.78,817.21,466.06,816Z" transform="translate(-201 324)"/><path class="cls-9" d="M763,655c11.49-3.43,22.28-8.51,34.73-9.6a199.68,199.68,0,0,0,30.42-4.61,18.58,18.58,0,0,1,5.89-.77c11.44.94,22.85-.66,34.29-.57,10.34.09,20.83,1.55,31.22-.31,3-.54,6.24,0,9.41.53q24,3.85,48.14,7.19c8.44,1.17,14.43-2.62,17.88-10.67a12.1,12.1,0,0,1,1.75-2.34.85.85,0,0,1,1.29.17c-4.25,12.3-11.2,16.22-24,14.23-16.22-2.54-32.43-5.67-48.76-6.66a206.7,206.7,0,0,0-30.27.09,21.45,21.45,0,0,1-5,.22c-10.79-1.65-21.56.12-32.33.23-13,.13-25.55,4-38.4,5.1-10.75.93-20.7,4.4-30.92,7.15A13.37,13.37,0,0,1,763,655Z" transform="translate(-201 324)"/><path class="cls-10" d="M399.25,1135.14c-2.27-3.48-.48-7-.24-10.57.71-10.34,4.06-20.4,3.18-30.9-.05-.53.58-1.11.9-1.67a3.09,3.09,0,0,1,1,1c1.66,8.85-1.36,17.35-2.15,26-.38,4.2-1.3,8.4-1.58,12.65C400.26,1132.88,400.94,1134.4,399.25,1135.14Z" transform="translate(-201 324)"/><path class="cls-11" d="M407.08,1192c-.86,1.09-2.07.88-2.35-.13-2.74-9.95-11.36-18-9.46-29.44,0-.15.17-.28.32-.49,1.49,2.89-.72,6.31,1.4,9C401.52,1177.42,404,1184.86,407.08,1192Z" transform="translate(-201 324)"/><path class="cls-12" d="M724.21,707.16c-3.39-8.3-1.93-17-2.16-25.59,0-1.57-.55-3.35,1.05-4.58,1.21,3.55.49,7.22.51,10.82,0,6.45,0,12.89,1.26,19.26Z" transform="translate(-201 324)"/><path class="cls-13" d="M978,634.06l-1.29-.17c4.48-7.74,5.8-17.08,12.14-23.88-1.23,7.09-5.64,12.88-8,19.51C980.29,631.1,979.87,633.11,978,634.06Z" transform="translate(-201 324)"/><path class="cls-14" d="M404.07,1093l-1-1c-.72-6-2.51-11.86-2-18C405.11,1079.85,404.43,1086.45,404.07,1093Z" transform="translate(-201 324)"/><path class="cls-15" d="M409.2,862.4c2.05-7.45,7.68-12.55,12.19-18.37.43-.56.43,1.1.67,1.72-4.29,4.08-6.77,9.47-10.18,14.19C411.14,861,410.92,862.47,409.2,862.4Z" transform="translate(-201 324)"/><path class="cls-16" d="M686.25,788.62l-.42-2.22c5.33-2.45,10.74-1.79,16.16-.45-3.71,1.64-7.59.27-11.38.66C688.88,786.79,686.94,786.27,686.25,788.62Z" transform="translate(-201 324)"/><path class="cls-17" d="M402,1248.14c-3-2.74-3.74-6.59-5.77-11.22,2.9,2,6.38,1.68,5.32,5.94a1.65,1.65,0,0,0,2.42,1.93C403.69,1246.14,401.79,1246.52,402,1248.14Z" transform="translate(-201 324)"/><path class="cls-18" d="M398.2,878.54c.76-6.51,6.32-10.31,8.93-15.78l1.15.61A59.59,59.59,0,0,1,398.2,878.54Z" transform="translate(-201 324)"/><path class="cls-19" d="M398.17,1157.38c0-6.12-.09-12.23-.09-18.35,0-1.44-.37-3,1.15-4.06,0,5.94,0,11.89,0,17.84C399.19,1154.37,399.89,1156.18,398.17,1157.38Z" transform="translate(-201 324)"/><path class="cls-20" d="M484.11,818.94h3.36c-.3,2.16-2.85,1.39-3.32,3C482.13,821,484.1,820,484.11,818.94Z" transform="translate(-201 324)"/><path class="cls-21" d="M724.21,707.16l.66-.09c1.32,1.28,1.24,2.59,0,3.9C723.6,709.91,724,708.51,724.21,707.16Z" transform="translate(-201 324)"/><path class="cls-22" d="M427.14,1243.83l2.73-3,.35,2.44C429.38,1244.45,428.43,1245.08,427.14,1243.83Z" transform="translate(-201 324)"/><path class="cls-23" d="M419.25,343.4a8.22,8.22,0,0,1,2-6.52c1.37-1.62,3-2.89,3.23-5.32.15-1.67,1.73-2.46,3.35-2.16s2,1.83,1.83,3.12c-.8,5.71-1.69,11.4-2.74,17.07-.46,2.46-2.53,1.92-3.95,1.19A6.77,6.77,0,0,1,419.25,343.4Z" transform="translate(-201 324)"/><path class="cls-24" d="M416.84,411c-.61,3.7-1.25,8-2,12.18-.27,1.47-.87,2.82-2.63,3.27-2,.51-3.22-.73-4.17-2-2.54-3.45-2.26-7.14-.35-10.76.91-1.74,2.18-3.3,3.1-5s2.15-3,4.31-2.36S416.68,408.89,416.84,411Z" transform="translate(-201 324)"/><path class="cls-25" d="M460.28,343.1c-.17,4.6-1.84,9-1.22,13.76.34,2.6-1.81,3.4-4,3.08s-4.17-1.31-3.68-4.21q1.33-7.8,2.65-15.61c.28-1.62,1-3.06,2.84-2.72C459.94,338,460.5,340.38,460.28,343.1Z" transform="translate(-201 324)"/><path class="cls-26" d="M423.26,373c-1,4.72-2,9.59-2.94,14.47-.51,2.58-1.79,2.23-3.55,1.15-4.3-2.63-5.31-9.15-2-13.65a27.14,27.14,0,0,0,2.59-3.61c.9-1.79,1.4-4,4.11-3.2C423.87,368.89,422.94,371.13,423.26,373Z" transform="translate(-201 324)"/><path class="cls-25" d="M454,382.58c0,3.28-2.31,7.76-1.53,12.71.36,2.28-2.11,2.06-3.73,2-2.64-.15-4-1.63-3.65-4.25.6-4.26,1.24-8.52,2.21-12.7.42-1.83.17-4.72,3.52-4.4S454,378.75,454,382.58Z" transform="translate(-201 324)"/><path class="cls-23" d="M400.29,455.91c-.51-4.89,3-7.61,6-10.26,2.08-1.86,4-.19,3.75,2.31a94.65,94.65,0,0,1-2.29,14.12c-.58,2.31-2.81,2.63-4.79,1C400.72,461.2,400.38,458.58,400.29,455.91Z" transform="translate(-201 324)"/><path class="cls-27" d="M447.21,420c-.51,4.81-.95,8.59-1.29,12.39-.16,1.85-1,2.66-2.88,2.58s-3.89-.13-4-2.67c-.2-5.7,1.33-11.16,2.51-16.66.28-1.28,1.48-1.74,2.75-1.64a2.63,2.63,0,0,1,2.52,2.08A28,28,0,0,1,447.21,420Z" transform="translate(-201 324)"/><path class="cls-25" d="M394.25,493.43c-1.24-4.82,2.52-7.2,5.26-9.36,2-1.59,3.27,1.75,3.48,3.25.57,4.1-.55,8.16-1.82,12.05-.93,2.86-3,2.08-4.69.68A6.5,6.5,0,0,1,394.25,493.43Z" transform="translate(-201 324)"/><path class="cls-28" d="M440.82,458.83c-.41,3.23-2,7.43-2.1,11.9-.06,1.83-1.92,1.43-3.17,1.34a2.53,2.53,0,0,1-2.6-3c.67-4.88,1.49-9.75,2.35-14.61.31-1.72,1.73-1.86,3.1-1.55C441,453.51,440.83,455.66,440.82,458.83Z" transform="translate(-201 324)"/><path class="cls-29" d="M434.07,496.86c-.48,3.6-.88,6.87-1.38,10.13-.29,1.89-1.48,3.11-3.43,2.77s-3.3-1.51-2.88-3.85c.56-3.09,1.11-6.19,1.63-9.29.37-2.24.17-5.48,3.15-5.34C434.47,491.44,433.83,494.79,434.07,496.86Z" transform="translate(-201 324)"/><path class="cls-28" d="M427.85,523.57c-2.13-.11-3.84-1.18-3.64-3.6.26-3.17,2.4-5.07,5.47-5.57,2.28-.37,4.2.76,4.09,3.2C433.62,521,431.38,522.92,427.85,523.57Z" transform="translate(-201 324)"/><path class="cls-30" d="M434.27,485.3c-2.19-.21-4.37-.29-3.92-2.93.56-3.31,2.78-5.14,6.18-5.34a2.81,2.81,0,0,1,3.24,3.39C439.37,483.63,437.15,485.18,434.27,485.3Z" transform="translate(-201 324)"/><path class="cls-31" d="M446.15,442.43c-.16,4.36-3.71,4.53-6.65,5.13-1.86.38-2.68-1.32-2.56-2.83.28-3.51,2.86-5.07,5.93-5.53C445,438.88,446.26,440.14,446.15,442.43Z" transform="translate(-201 324)"/><path class="cls-28" d="M448.35,402c2.34-.1,4.14.33,4.12,2.42,0,3.67-3,4.4-5.85,4.78-1.78.24-3.72-.47-3.38-2.53A5.62,5.62,0,0,1,448.35,402Z" transform="translate(-201 324)"/><path class="cls-32" d="M392.75,522.19c1.29,4.66-1.22,8.11-2,11.84-.09.42-1,.92-1.49,1-1.2.06-1.65-.91-1.83-1.92C386.63,528.51,388.36,525.11,392.75,522.19Z" transform="translate(-201 324)"/><path class="cls-31" d="M430.06,300.82c-.31,2.48-.59,4.78-.9,7.07-.15,1.08.29,2.6-1.21,2.91-1.8.37-2.14-1.33-2.51-2.49a9.15,9.15,0,0,1,1.41-8.47c.57-.79,1.19-1.77,2.35-1.39S429.93,300.1,430.06,300.82Z" transform="translate(-201 324)"/><path class="cls-33" d="M400.16,509.69c-.52,3.1-.49,6.29-4.4,6.35-1.71,0-2.66-1.23-2.4-3,.43-3,2.09-5.37,4.91-6.07C400.11,506.49,400.19,508.58,400.16,509.69Z" transform="translate(-201 324)"/><path class="cls-34" d="M436.34,263.88c-.37,1.9-.78,4-1.18,6.09-.22,1.09-.07,2.55-1.72,2.47-1.17-.06-1.36-1.26-1.76-2.16-1.12-2.55.1-4.89.65-7.26.3-1.28,1.15-2.75,2.62-2.59C436.83,260.63,436,262.47,436.34,263.88Z" transform="translate(-201 324)"/><path class="cls-35" d="M406.25,472.5c-.14,2.68-.5,5.24-3.89,5.32-1.66,0-2.93-.91-2.62-2.82.46-2.88,2.12-5.05,5-5.43C406.79,469.31,406,471.4,406.25,472.5Z" transform="translate(-201 324)"/><path class="cls-36" d="M458.8,366.28c-.77,3.54-3.35,4.34-6,4.41-1.28,0-3.33-.93-2.65-2.77,1-2.71,3.64-3.68,6.36-3.88A2.1,2.1,0,0,1,458.8,366.28Z" transform="translate(-201 324)"/><path class="cls-37" d="M412.92,435.39a3.5,3.5,0,0,1-3.27,4.27,2.67,2.67,0,0,1-3.25-2.82,4.84,4.84,0,0,1,4.29-4.72C413,431.78,412.89,433.5,412.92,435.39Z" transform="translate(-201 324)"/><path class="cls-38" d="M460.2,332.15c-1.59-.35-3.71-.43-3.49-2.18.33-2.6,2.9-3.35,5.12-3.84,1.61-.35,3.15.43,2.86,2.33C464.33,330.93,462.18,331.64,460.2,332.15Z" transform="translate(-201 324)"/><path class="cls-39" d="M416.66,394.4c1.69,0,2.65.77,2.58,2.31-.1,2.25-.83,4.28-3.5,4.5-1.46.11-3.31,0-3.25-2C412.57,396.62,414.57,395.34,416.66,394.4Z" transform="translate(-201 324)"/><path class="cls-5" d="M425.09,359.69c.11,2-1.15,2.58-2.82,2.45-1.14-.09-3,.62-2.89-1.5a3.75,3.75,0,0,1,3.26-3.25C424.41,357,424.87,358.3,425.09,359.69Z" transform="translate(-201 324)"/><path class="cls-40" d="M466.09,317.94c0,1.88-.76,3.33-2.59,3.69a1.62,1.62,0,0,1-2-2c.38-1.54,1-3.32,2.74-3.78S465.91,316.87,466.09,317.94Z" transform="translate(-201 324)"/><path class="cls-41" d="M425.25,538.54a21.11,21.11,0,0,1-.16-3.13c.18-1.56-.65-3.36.91-4.59a1.32,1.32,0,0,1,1.26.14c1.24,1.62.8,3.41.3,5.14A2.82,2.82,0,0,1,425.25,538.54Z" transform="translate(-201 324)"/><path class="cls-42" d="M431.19,321.3c-.26,1.71-1.19,2.66-2.95,2.45-1-.12-2.08-.53-2-1.69a3.26,3.26,0,0,1,2.91-2.8C430.58,319,431.12,320,431.19,321.3Z" transform="translate(-201 324)"/><path class="cls-43" d="M724.19,764.84V753.23h.44v11.53Z" transform="translate(-201 324)"/><path class="cls-44" d="M421.11,1399.93c4.22-2.1,8.57-.37,12.87,0H421.11Z" transform="translate(-201 324)"/><path class="cls-45" d="M426.41,551.55c.85.45.86,1.25.77,2s-.52,1.64-1.51,1.18c-.8-.38-.78-1.29-.57-2.1A1.27,1.27,0,0,1,426.41,551.55Z" transform="translate(-201 324)"/><path class="cls-46" d="M724.14,774.06c0-3-.5-4.57.4-6.28A8.78,8.78,0,0,1,724.14,774.06Z" transform="translate(-201 324)"/><path class="cls-47" d="M366.83,974.21v5.49C365.78,977.32,366,975.69,366.83,974.21Z" transform="translate(-201 324)"/><path class="cls-48" d="M439.07,1402c1.79-1.78,3.87-.82,5.9-.28l-5.9.27Z" transform="translate(-201 324)"/><path class="cls-49" d="M626.31,791.19a4.62,4.62,0,0,1-4.27,2.24C622.89,791.59,624.44,791.08,626.31,791.19Z" transform="translate(-201 324)"/><path class="cls-3" d="M1351.75,1836.12a7.75,7.75,0,0,0,1.35,1.44c2.21,1.43,6.55,1.32,6.72,3.5.25,3.16-1.22,6.85-3,9.69-4.35,7-5.08,15-6.93,22.71-.08.32,0,.67-.05,1-2.27,10.71-.06,19.29,9,26.79,4.62,3.82,3.21,11.79.91,16.9-4,8.88-2.76,16.6.52,25.16,5.59,14.61,10.14,29.58,17.41,43.55a14,14,0,0,1-4.83,18.13c-6.46,4.14-10.27,10.35-14.43,16.33-7.43,10.66-14.75,21.4-23.37,31.16-3.25,3.67-3.52,8.43-3.75,12.7-.47,8.94-5.93,13.31-13.1,16.35a148.38,148.38,0,0,0-33.77,20.12c-5.4,4.23-9.15,9.64-13.15,14.91-2.69,3.55-6,5.91-9.73,8.23-12.58,7.81-26.35,10.68-40.83,11.33a24.16,24.16,0,0,1-14.53-4.37c-5.28-3.54-5.81-13.71-1.43-18.8,8-9.34,15.79-18.93,23.08-28.87a20.65,20.65,0,0,0,2.94-5.18c5.68-16.33,12-32.66,13.11-50,.74-11.78,1.91-23.41,3.74-35a2.92,2.92,0,0,0-1.44-2.95l-12.83-9.32c-1.69,6.72-1.73,13-2.38,19.2a55.93,55.93,0,0,1-3.22,14.54,431.57,431.57,0,0,1-19.56,42.08c-2.71,5.23-7.73,7.66-11.62,11.44-.87.85-1.84.44-2.76,0-8.7-4.41-18.12-7.79-23-17.36a8.41,8.41,0,0,1-1.26-5.42c2.5-21.24,8.4-41.64,14.59-62,1.53-5,1.46-10.51,2.17-15.77,2.24-16.6,6.58-32.78,9.84-49.18a14.84,14.84,0,0,1,2.9-6.85c4.92-5.8,7-13.17,11-19.5,2.55-4,0-8.18-.66-12.1-.78-4.38.3-5.86,4.59-5.48a45.75,45.75,0,0,0,5.49-.05c1.61-.06,3.41.34,3.57-2.27s-1.59-2.93-3.5-3c-6-.29-11.25-2.59-16.42-5.36-1.69-.91-2.5-1.81-2.27-3.83,1-8.9,1.39-17.9,5-26.36,2.2-5.22,6.1-7.65,11.61-6.76,5.08.83,10.18,1.54,15.27,2.3,2.18.26,4.34.65,6.49,1.07,5.78.82,11.13-.19,15.63-4.06,1.63-1.4,2.7.66,4.07.2a13,13,0,0,1,5,1.69c7.08,5.31,14.37,8.9,23.49,4.7,16.6-7.64,33.57-4.25,50.42-1.05C1342.53,1833.23,1347.38,1833.89,1351.75,1836.12Z" transform="translate(-201 324)"/><path class="cls-50" d="M1351.75,1836.12c-6.71.3-12.81-2.73-19.32-3.53-14.75-1.81-29.59-5-44,1.88-10,4.82-18.22,1.55-25.7-5.4.58-.82,1.39-.7,2.21-.52a4.08,4.08,0,0,0-1.68-.51c-3.48,0-3.35-3.68-5.38-5.13-.12-8.14.67-16.44-.66-24.38-1-6.32-.19-13-3.19-19-.55-1.08.2-1.33.85-1.86a3.31,3.31,0,0,0,.61-4.11c-3.4-3.94-.58-8.82-2.12-12.67-2.54-6.36-.25-13.43-3.59-19.56-.57-1-.29-2.64-.14-4,1.3-11.35-.94-22.58-2.34-33.67-.67-5.37.14-11.45-2-16s.69-9.58-3.35-13.17c-.59-.52-.61-2.89-.08-3.28,2.91-2.14.32-4.17-.24-5.74-2-5.65-3.68-11.26-3.91-17.33-.1-2.51,2.1-6.09-2.44-7.43-.92-.27.48-1.39.43-2-.4-5.07,2.12-10.48-1.7-15.16a1.54,1.54,0,0,1-.15-1c.64-9.5-4.31-19-1.6-28.15,1.76-6-.15-10.54-1.38-15.67,11.57-6.31,23.61-11,36.78-13,17.73-2.77,35.43-5.34,53.43-5.56,17.58-.2,34.69,2,51.17,8.38,4.64,1.81,6.69,4.73,6.64,9.78,0,3.14-1.46,6.6,1,9.53-3.36,3.45-2.26,7.91-2.57,12-.48,6.37-.67,12.7-1.55,19.1-1.08,7.79-1,15.89-1.84,23.83-.72,7-1.22,14-2.61,20.83-1.52,7.48-1.71,15.06-2.78,22.55-1.22,8.6-2.87,17.14-4.26,25.73-.94,5.78-1.38,11.67-2.71,17.36-2,8.47-2,17.17-3.44,25.71a216.49,216.49,0,0,0-2.83,25.88c-.48,9.83-2.29,19.65-2.19,29.45.06,5.87-.93,11.7-.32,17.56A16.69,16.69,0,0,1,1351.75,1836.12Z" transform="translate(-201 324)"/><path class="cls-51" d="M1257.93,1822.91c2,1.79,3.77,3.91,6.45,4.84.63.22,1.19.73.26,1.21a4.72,4.72,0,0,1-1.86.11c-1.55-.23-3.17-.31-3.9-2.07C1258.56,1825.64,1258.25,1824.27,1257.93,1822.91Z" transform="translate(-201 324)"/><path class="cls-52" d="M1220.16,1587.88a4.09,4.09,0,0,0,3.94-.94c-.6,1.06.88,3.11-1.58,3.31C1220.76,1590.4,1219.69,1589.92,1220.16,1587.88Z" transform="translate(-201 324)"/><path class="cls-53" d="M1206.77,1465c.3-.34.6-1.65.91-.84.68,1.8,2.33,3.75.48,5.83A7.78,7.78,0,0,1,1206.77,1465Z" transform="translate(-201 324)"/><path class="cls-54" d="M1225.08,1585.27c-.65-2.69.2-4.53,3-5.29C1227.59,1582,1226.26,1583.61,1225.08,1585.27Z" transform="translate(-201 324)"/><path class="cls-55" d="M1239.18,1830.86c-2.25.19-4.47.2-6.49-1.07C1235.14,1828.44,1237.07,1830.21,1239.18,1830.86Z" transform="translate(-201 324)"/><path class="cls-56" d="M1199.91,1417.75c2.93,1.26,2.44,3.17,1,5.26C1200.57,1421.26,1200.24,1419.5,1199.91,1417.75Z" transform="translate(-201 324)"/><path class="cls-50" d="M1271.9,1510.93c-14.56,2.8-28.67,6.91-41.59,14.45-1.31.76-2.54,2.5-4.31.71l-.1-.29c4.92-8,9.57-16.26,18-21.36.28-.17.58-.33.85-.53,17.26-12.89,37.25-19.47,57.72-25,4.29-1.16,8.6-.17,12.9-.38,16.14-.81,31.78,2,47.21,6.4,1.44.41,3.06.5,3.94,1.88,4.48,7,10.74,13.13,10.39,22.57-.19,5.34-1,6.37-6,4.63-3-1-6-2-9-3-3.11,1.34-5.24-1.55-8-1.87-15.14-1.78-30.16-3.88-45.58-2.73C1296.07,1507.33,1284.1,1509.87,1271.9,1510.93Z" transform="translate(-201 324)"/><path class="cls-50" d="M1206,1422.11c2.71-8.34,9.63-10.71,17.13-13.35,16.63-5.84,33-12.49,49.34-19.07a338.06,338.06,0,0,1,43.1-14.23,53.85,53.85,0,0,1,29,.19c2.51.77,5.3.44,7.66,1.93,1.26.79,3,1.41,2.36,3.27a3,3,0,0,1-3.7,1.85c-15.39-3.21-29.53,3.23-44.1,5.87-32.82,5.93-62.42,20.71-92.26,34.72a16.8,16.8,0,0,0-6.77,5.76c-1,1.45-2,3.78-4.15,2.44-2.59-1.63-1.1-3.73.3-5.51C1205,1424.86,1205.21,1423.33,1206,1422.11Z" transform="translate(-201 324)"/><path class="cls-57" d="M1271.9,1510.93c30-7.19,60-9.55,90,.1-1.6,1.54-3.37,1-5.12.36-7.47-2.52-15.35-2.18-23-3.42-14.09-2.29-28.06.54-42.08,1.1-3.92.16-7.78,1.55-11.67,2.35C1277.26,1512,1274.5,1512.82,1271.9,1510.93Z" transform="translate(-201 324)"/><path class="cls-58" d="M1226,1526.09c-.27,1,.47,2.52-1.38,2.56a1.35,1.35,0,0,1-1-.85c-.08-1.53,1.1-1.78,2.26-2Z" transform="translate(-201 324)"/><path class="cls-59" d="M1206,1422.11c0,1.68-.32,3.15-2.08,3.87A5.73,5.73,0,0,1,1206,1422.11Z" transform="translate(-201 324)"/><path class="cls-1" d="M1245.41,1900.66c-.46-8.57,8.18-18.26,16.5-18.64,1.95-.08,2.6,1,2.89,2.63,1,5.88,2.65,11.72,2.91,17.63.18,4.21-1.36,8.48-1.56,12.87-.16,3.62-3.36,3.3-5.62,1.87-5.36-3.38-9.68-8-14.39-12.22C1244.68,1903.51,1246,1901.94,1245.41,1900.66Z" transform="translate(-201 324)"/></svg>