<svg id="Layer_1" data-name="Layer 1" xmlns="http://www.w3.org/2000/svg" viewBox="0 0 1006 2500"><defs><style>.cls-1{fill:#fefefe;}.cls-2{fill:#2c699e;}.cls-3{fill:#f6f8fb;}.cls-4{fill:#2c689e;}.cls-5{fill:#fdfdfd;}.cls-6{fill:#a0bbd3;}.cls-7{fill:#91b1cc;}.cls-8{fill:#f4f7f9;}.cls-9{fill:#8e9194;}.cls-10{fill:#dde2e6;}.cls-11{fill:#4278a8;}.cls-12{fill:#e1e8ee;}.cls-13{fill:#ddd;}.cls-14{fill:#83a6c6;}.cls-15{fill:#4c7fad;}.cls-16{fill:#477cab;}</style></defs><path class="cls-1" d="M785.81,2571.8H645a85.87,85.87,0,0,1-4.48-18.81c-1.66-11.6-1.84-23.44-4.3-34.89-3.68-17.13-5.22-34.72-10-51.56-3.5-12.39-5.2-25.1-8.43-37.51-3.95-15.17-6.42-30.53-5.2-46.3.86-11.2-3-22.12-2-33.34.39-4.63.4-9.29,2.21-13.68,6-1,11.6,1.59,16.51,4,6.49,3.15,13,5.24,20,5.43,17.29.44,34.47,2.53,51.73,3.33a70.16,70.16,0,0,0,27.42-4.4,68.61,68.61,0,0,1,11.58-3,108,108,0,0,0,44.35-18.38c3.58-2.56,7.63-4.08,11.62-5.72,3.23-1.32,4.62-3.36,4.43-6.88-.4-7.29-2.79-14.35-2.27-21.76a52.55,52.55,0,0,0-1.78-17.32,7.14,7.14,0,0,1,1.56-6.54,34.51,34.51,0,0,0,7.51-25.59c-.57-6.44.13-13-.92-19.43a17.49,17.49,0,0,1,1.34-10.28c4.36-9.35,7.81-19.08,12.93-28.11,3.22-5.66,4.94-12,3.24-18.69-1.07-4.22.8-8.22,1.22-12.33a100.49,100.49,0,0,1,7.07-29.48c1.94-4.56,1.07-9.52.51-14.32-.31-2.7-2.44-2.79-4.49-2.85-5.66-.19-11.32-.13-17-.06-16,.22-32,.73-47.91-.08-15.72-.81-31.51-1.68-47.06-4.7-14.85-2.87-29.79-5.32-44.83-7a48.27,48.27,0,0,1-9.23-2c-9.57-3-19.5-4.28-29.34-5.82-6.85-1.08-13.55-.48-16.46,7.65a3.32,3.32,0,0,1-1.72,1.74,3,3,0,0,1-2-1c-1.41-1.19-2.61-2.5-2.38-4.55a4.16,4.16,0,0,0-.25-1.11c-1.23-.75-2.53-.09-3.78-.2-1,0-1.95.09-2.93.09-6.22.34-11.52-3.74-17.75-3.61-3.59.08-7.1-1.39-10.76-1.09a6.92,6.92,0,0,1-1.51.06,60.19,60.19,0,0,1-7-1.67,5.67,5.67,0,0,1-1.78-1,11.75,11.75,0,0,0-3.17-2.08,9.38,9.38,0,0,1-1.12-.62,26.86,26.86,0,0,0-4.35-2.8c-7.86-6.9-12.51-15.8-15.9-25.49-.28-2.11-.2-4.31-1.64-6.11a7.57,7.57,0,0,1-.58-2.18c.17-5.89-2.78-11.34-2.36-17.25-.22-.43-.41-.87-.59-1.32-1.31-2.3-.53-5.13-1.89-7.42a7.66,7.66,0,0,1-.84-1.87c-.85-2.44.44-5.1-.77-7.51-1.3-.88-1.61-2.39-2.32-3.65-.89-1.83-2.56-2.92-4-4.18a4.14,4.14,0,0,1-.74-1.2,11.94,11.94,0,0,1,0-5.79,5.37,5.37,0,0,1,.64-1.32,10.43,10.43,0,0,1,8.37-4.4c2.85,0,4-1.66,4.68-4.08a22.5,22.5,0,0,0,1.77-10c-.06-2.12-.07-4.27,1.34-6.08,1.31-4.83,1-9.84,1.4-14.74.71-7.71,1.71-15.46,1.32-23.26a9.17,9.17,0,0,1,1-3.18c1.72-3,.63-6.25,1.09-9.37a7.85,7.85,0,0,1,.65-2.33c2.45-4.24.48-9,1.52-13.38a11.18,11.18,0,0,1,.88-2.25c1.61-4.35.52-8.85.76-13.26-.23-2.49-1-5.1,1.45-7,1.6-3.23,0-6.8,1-10.1a7.42,7.42,0,0,1,.58-1.53c1.93-5.08.62-10.35.93-15.51.16-2.77.06-5.55,0-8.33.26-8.33-.94-16.83,2.74-24.79,1.88-2.68,1.24-5.76,1.28-8.7.06-4.81.06-9.62,0-14.44s-.35-9.78,1.72-14.4c.6-1.88.2-3.89.65-5.79a7.4,7.4,0,0,1,.55-1.58c2.4-5.23.5-10.81,1.26-16.17a9.76,9.76,0,0,1,1-3.12c1.56-3,.69-6.28.81-9.44a78.13,78.13,0,0,0-.3-8.92c-.21-1.63-.48-3.37,1.44-4.32,2.1-2.83.48-6.06.9-9.07.25-1.8-.06-3.66.33-5.47a7.51,7.51,0,0,1,.56-1.59c2.14-4.76.76-9.78,1.08-14.67.17-2.47,0-5,0-7.43a26.59,26.59,0,0,1,.37-5.91c.49-4.94,2.81-9.76.9-14.85-1.75-7.56-1.09-15.26-1.25-22.91.14-4-.16-7.95.19-11.92a6.3,6.3,0,0,1,.46-1.59c2-2.82,1.4-6,1.25-9.13.34-5.55-.81-11.21,1.17-16.64,4.09-3.93,3-8.92,2.75-13.74a6.38,6.38,0,0,1-.06-1.38c.47-1.84-.33-3.6-.38-5.41a8.43,8.43,0,0,1,.26-2.12c.7-2.12.31-4.38.77-6.53a12.14,12.14,0,0,1,1.11-2.78,8.75,8.75,0,0,0,.89-7.15c-1.52-4.55,1.75-8.65,1.29-13.11a6.54,6.54,0,0,1,.05-1.53c1.56-6.64,2.39-13.26-.53-19.78a47.8,47.8,0,0,1-.28-20.72,6.28,6.28,0,0,0,1-7.6c-.08-7.16-.67-14.34.91-21.43,1.28-1.78,1.14-3.93,1.51-6a6.27,6.27,0,0,1,.54-1.48c1.83-2.91.93-6.12,1-9.23.28-7-.7-14.11.59-21.11.77-1.48,3.1-2.11,2.44-4.41-.43-4.34-2.51-8.61-.58-13,1.29-2.26.4-5,1.68-7.3.18-.41.4-.8.61-1.19a10.72,10.72,0,0,0,1.1-8.12,2.23,2.23,0,0,1,.83-2.26c1.43-1.21.26-2.92.82-4.3a6.34,6.34,0,0,1,1.78-2.94c1.71-2.52.39-5.49,1.17-8.14a6.72,6.72,0,0,1,.8-1.89,4.78,4.78,0,0,0-.08-6c-1.85-2.2-.54-4.17.4-6.19.76-6.51,1-13-.28-19.48-1.76-5-1.22-10.28-1.3-15.47-.05-3.72.71-7.48-.58-11.14-1.56-2.26-1.69-4.92-2-7.52a64.64,64.64,0,0,1,1.81-14.23c1.95-8.84,0-17.43-1-26.1a55.85,55.85,0,0,1-.12-6.47,25.11,25.11,0,0,0-.14-5.81c-.15-.44-.27-.89-.38-1.34-.21-1.34-1-2.66-.12-4a3.55,3.55,0,0,1,1.93-.55c3.25-.91,1.25-3.83,2.13-5.63a12.25,12.25,0,0,1,.33-1.39,25.82,25.82,0,0,0,1.32-9.27,10.46,10.46,0,0,1,2.09-6.33c1.58-3.15.94-6.43.56-9.68a10.73,10.73,0,0,1-.32-1.36c-.87-2.89,1.08-6.52-2.32-8.75-1.76-2.67-.63-5.79-1.37-8.61-1.77-2-2.51-4.13-1.38-6.7.8-1.83.61-3.84,1-5.76a6.07,6.07,0,0,1,.72-1.81c.06-.34.63-.83.06-1s-.93.55-1.37.91a21.29,21.29,0,0,1-2.6,2.25c-15.41,10.94-32.1,13.7-49.44,6a97.27,97.27,0,0,1-25.83-17.32c-9.26-8.44-13.38-19.16-18.49-29.68-1-2.09-1.67-4.35-3.48-6-1.84-1.81-2.58-4.17-3.26-6.56a8.86,8.86,0,0,0-2.29-5,9.15,9.15,0,0,1-2-4.92c-.18-1.82.14-3.7-.39-5.46-3.94-13-3.56-26.25-1.6-39.41,1.74-11.66,6.31-22.62,9.78-33.86,3.61-11.69,10.9-21.59,15.1-32.94.32-3.7,5.13-5.38,4.3-9.6-1.85-3.57-5-3.1-8.13-2.6a18.36,18.36,0,0,0-5,1.86,8.13,8.13,0,0,1-1.28.46,34,34,0,0,0-9.64,2.73,18.41,18.41,0,0,1-2.34,1.09,9.67,9.67,0,0,0-4,1.66,8.66,8.66,0,0,1-1.09.68,15.31,15.31,0,0,0-6.75,6,12.92,12.92,0,0,1-1.27,1.58c-1.85,2-4,3.68-5.39,6a9.14,9.14,0,0,1-.79,1.09,18,18,0,0,0-3.3,4.92,8.17,8.17,0,0,1-.73,1.11c-2.77,2.71-3.77,6.37-5.22,9.79a8.11,8.11,0,0,1-.67,1.14,34.57,34.57,0,0,0-3.52,6.28c-.39.81-.79,1.6-1.19,2.4a48.08,48.08,0,0,0-3.62,8,12,12,0,0,1-.52,1.29c-2,3.61-2.28,7.75-3.78,11.52a5.33,5.33,0,0,1-.93,1.32c-4.66,1.93-4.39-2.06-4.85-4.4A76.17,76.17,0,0,1,434.9,1066c.1-2.48,0-5,0-7.43,1.63-9.9,6.77-17.94,13.4-25.18,1.28-.89,2.57-1.78,3.11-3.37a5.56,5.56,0,0,1,1.48-1.92c.07-.06.17-.15.28-.23-13.59,3.13-27.13,6.39-39,14.15a53.54,53.54,0,0,0-5.83,6.12c-1.74.92-3.32,2.62-5.52,1-2.08-6.79.43-13.31,2.05-19.57,6.19-23.83,9.63-48.29,16.86-71.87a24.64,24.64,0,0,0,1.08-11.36,27.69,27.69,0,0,1,1.61-14.23c9.23-25.45,12.31-52,14.61-78.73,2-23.39,4.44-46.76,10.89-69.41a305.56,305.56,0,0,1,27.29-64.72c6.4-11.51,13.22-22.67,21.62-32.87a92.91,92.91,0,0,1,20.73-18.56q10.62-7,20.92-14.46a15.89,15.89,0,0,0,4.27-4.11,10.47,10.47,0,0,1,6-4.23c11.31-3.34,22.1-8.09,33.23-11.93,17.74-6.11,35.4-12.51,51.87-21.69,3.8-2.12,8-3.3,11.8-5.37,2.43-1.31,4.66-1.43,6.89.51s4.48,1.79,7,.8c4.91-1.91,9.61-4.63,15.19-4.23a3.27,3.27,0,0,0,2.29-.88c6.5-5.78,14.89-7.11,22.71-9.78,2.48.29,3.61-1.89,5.34-3a16.39,16.39,0,0,1,2.55-1.58c5.73-3,6.9-2.48,8.38,3.83,1.43-6.58,3-12.71,6.28-18.47a13.42,13.42,0,0,0-.77-14.29c-3-4.43-3.55-9-1.54-13.75,3.22-7.6,2.11-14.36-2.3-21.27-5.56-8.73-6.43-18.41-5.6-28.78,1.59-19.66.48-39.26-5-58.41a17.64,17.64,0,0,1-.8-2.88c-1.27-13.31-9.32-23.26-16.64-33.54-2.34-3.31-3.23-3.14-4.76.63-1,2.37-2.29,4.33-5,4s-2.92-2.84-3.2-5a456.89,456.89,0,0,1-4.15-65.19c.05-4.5,1.07-7.5,6-8.82,4.22-1.13,7.09-4.79,10.2-7.77a2.36,2.36,0,0,0,.71-2.74c-.54-1.08-1.7-.79-2.68-.67a14.49,14.49,0,0,1-3.48.16,6.91,6.91,0,0,1-5.43-3.94c-1.2-2.24.51-3.76,1.77-5.27s2.31-3.44,4-4.4c5.47-3.05,6.35-7.75,6-13.5s-.83-11.85,2.8-17.34c1.76-2.67.56-6.11-.12-9.26-6.22-28.67-1.85-55.07,16.42-78.74,7.11-9.2,12.94-19.4,21.54-27.42,6.72-6.26,13.84-12,22.3-15.77,3.68-1.65,6.73-4.31,9.8-6.84,7.81-6.4,16.77-10.77,25.8-15a19,19,0,0,1,8.74-1.81,88.15,88.15,0,0,0,18.84-1.7c2.18-.18,3.83.86,5.33,2.27,1.09,1,2.15,2.09,3.21,3.15L1037.48,330.7a25.1,25.1,0,0,1,3.07,3.28c2.22,5.3,2.7,10.94,3.21,16.57.14,1.49-.17,3.06.27,4.48,2.43,7.85-1.07,13.44-6.62,18.48-2.23,2-3.92,2.38-6.51.55-3.82-2.7-5.58-2-7.6,2.39a24.26,24.26,0,0,0-2.51,11.09,105.73,105.73,0,0,1-4.64,33.89c-2.75,9.31-7.29,18.25-7.56,28.29a8.91,8.91,0,0,1-2.12,5.53c-3.59,4.14-3.88,8.93-3.22,14.09,1,8.11.58,16.26.22,24.41-.24,5.65-1.63,11.14-1.65,16.8,0,3.45,1.43,5,4.63,6.59,9.55,4.78,14.51,7.64,12.32,19.67a5.7,5.7,0,0,0,1.52,5c3.71,4.48,7.15,9,8.16,15.14a8.63,8.63,0,0,0,8.06,7.19c14,.75,25.36,7.22,36.09,15.36a76.23,76.23,0,0,0,17.32,9.74c8.48,3.49,15.56,9.6,24,13.33a96.49,96.49,0,0,0,19.43,6.08c7.15,1.52,13.8,4.71,20.68,7.17,15.25,5.46,29.43,13.75,46,16,12.11,1.66,22.9,7.89,33.6,13.64,14.28,7.68,27.64,16.82,38,29.42,6,7.28,10.5,15.75,15.79,23.6,3,4.4,5.39,9.16,8.56,13.47a34.12,34.12,0,0,1,5.82,13.18c1.75,8.32,3.71,16.54,7.12,24.38a11.88,11.88,0,0,1,1.08,6.33c-.58,2.24-2.4,3.55-3.91,5.07q-147.72,147.89-295.52,295.72c-1.94,1.93-3.42,5.33-7.3,3.87-2.46-4.17-6.26-6-10.86-7.12-9.8-2.33-10-3-11.35-12.9-4.5-34-8.84-68-13.23-102q-8.36-64.85-16.73-129.7c-3-23.6-5.49-47.3-9.4-70.76a118.68,118.68,0,0,0-16.31-43.16c-2.88-4.64-7.2-7.79-11.34-11.13-1.89-1.51-4-1.32-6.18-.93q-70.95,12.76-141.93,25.41c-9.49,1.69-18.92,3.72-28.51,4.84a18.58,18.58,0,0,0-6.47.55c-8.16,1-16,3.39-24,5.17-2.54.08-2.77,1.77-2.58,3.75a40.78,40.78,0,0,1-.36,7.81c-.84,2.49-.68,5.08-.64,7.64.1,1.14.16,2.49,1.24,3,4.12,2,4.9,6.18,6.49,9.83,1.61,2.63,4.57,1,6.66,2.1a8.41,8.41,0,0,1,2.77,2.1c10.48,11.18,22.28,21,33,31.94,18.48,18.94,38.24,36.58,56.58,55.66,1.27,1.32,2.82,2.34,4.13,3.61,1.07,1,3,2.07,1.1,4-2,.83-4.16.71-6.17,1.42-3.91.62-7.85.31-11.77.38-3.29,0-6.62-.65-9.85.46-2,2-.71,4.09,0,5.93,1.93,5,4.17,9.93,7.77,14,2.46,1.43,5.14.53,7.71.72a16.82,16.82,0,0,1,14.38,5c3.78,3.71,7.7,7.29,11.54,11,2.81,2.7,5.23,5.42,4.86,9.82-.22,2.53,1.85,4.27,3.72,5.6,3.41,2.43,4.76,5.75,5.18,9.73.39,3.63.87,7.25,1.34,10.87.52,4-1.1,6.83-5.17,7.81-11.48,2.78-9.4,2.86-9.69,13.61-.06,1.85-.15,3.73,2.69,2.6,13.47-3.53,13.77-3.34,16.42,9.93,1.08,5.38,2.49,10.72,3.12,16.14.48,4.17,1.9,6.7,6.36,6.77,1.51,1.43,1.27,3.5,1.92,5.24.45,3.79,1.15,7.59,1.29,11.38s1.48,6,4.8,7.34c2.45,1,4.67,2.64,7.2,3.44,14,4.4,20.18,15.22,22.41,28.5,3.45,20.59,11.42,39.51,19.71,58.42,6,13.63,13.57,26.31,21.42,38.84,5.88,9.39,7.38,20.25,11,30.4a67.37,67.37,0,0,1,3.45,12c.13,2.43,0,4.9.81,7.26a57.82,57.82,0,0,1,.41,9.48c-.25,3.4.1,6.82-.27,10.21-1.41,4.28-3.8,8.11-6,12-2.37,4.08-8,5.91-12.7,4.33s-9.28-3.61-13.89-5.49a8.34,8.34,0,0,1-4.35-3.9,494,494,0,0,1-28.3-63.11,9.83,9.83,0,0,1-.4-1.94c-.56-.91-.33-2.2-1.32-2.92.9,1.09,1,2.47,1.32,3.76,2.57,12.24,5.39,24.68,5.3,37-.14,19-4.83,37.25-15.16,53.64-2.75,4.36-5.55,8.73-8,13.26-2.84,5.26-7.57,7.19-12.75,8.73-1.3.39-2.78.66-3.9-.1-5.45-3.68-11.52-6.67-15-12.75-.67-3.68.24-7.49-1-11.11-.75-5.7-.29-11.43-.41-17.15.11-3.77.55-7.55-.48-11.27a35.26,35.26,0,0,1-.44-6.88,19.61,19.61,0,0,0-.58-7.47c-1-9.29-4.37-18.22-4.42-27.66,0-3.58.45-7.17-.44-10.7-.35-.9-.05-2-.83-3-3.43,8.76-7,17.29-10,26-1.08,3.07-.84,6.2-.38,9.38,3.8,26.69,8,53.31,11.78,80,.81,5.82-1.53,11.42-1.92,17.19-.19,2.88-3.39,3.33-5.82,3.86s-4.77,1.11-5.38,4.27c-.41,2-2.57,2.43-4.32,2.92-8.81,2.45-17.71,5-26.71,6.11-5.49.66-11.06-.81-15,4.51-12,2.47-23.47,7.36-36,7-2.91-.08-6.07.11-7.62,3.55-.82,1.83-2.75,2.33-4.49,2.88-9.34,3-18.75,5.78-28.12,8.68-.64.2.17.08-.49.12-18.93,1.35-35.54,11.17-53.87,14.81-5.74,1.14-7.08,4.66-4.79,10.08q22.54,53.36,45,106.75c1.49,3.54,3.62,5.45,7.54,5,1.84,0,3.82.37,4.73-1.92,2.25-6.26,6.52-10.08,13-12,6.83-2,13.19-5.56,20.6-5.35,1.5,0,3.25-.41,4-1.77,2.1-4.08,6.08-4.9,9.84-6.11,8.2-2.62,16.13-6.33,25-6.26a6.54,6.54,0,0,0,3.78-1.14c9-6.39,19.38-8.2,30.06-9,3-.24,5.85-.9,7.79-3.71,1.31-1.89,3.6-2.27,5.7-2.8,6.76-1.73,13.48-4.47,20.33-4.83a69.28,69.28,0,0,0,24.38-6c3.15-1.37,6.46-1.31,9.32,1.32,1.9,1.74,4,1.68,5.63-.43s4-2.73,6.54-3.11c10-1.47,20-3.21,30.14-3.88,3.75,0,7.49.06,11.24,0a39.13,39.13,0,0,1,7.8.38,19.83,19.83,0,0,0,7.47.63c6-.91,10.24,1.8,13.15,6.79,2.81,4.81,6.73,6.61,12.35,6.34,7.89-.39,7.9,0,9.11,8A37,37,0,0,1,970,1425a15.43,15.43,0,0,0,.64,5.73c.81,6.66,1.54,13.34,2.34,20a16.17,16.17,0,0,0,.54,5.58,20.78,20.78,0,0,1,.44,4,15.89,15.89,0,0,0,.69,5.56c.81,6.68,1.56,13.36,2.35,20a15.4,15.4,0,0,0,.63,5.76c.81,6.67,1.54,13.35,2.34,20a16.23,16.23,0,0,0,.54,5.59,20.78,20.78,0,0,1,.44,4,15.86,15.86,0,0,0,.69,5.56c.81,6.68,1.56,13.36,2.35,20a15.66,15.66,0,0,0,.63,5.77c.82,6.73,1.57,13.46,2.37,20.19a15.42,15.42,0,0,0,.62,5.77c.82,6.67,1.55,13.35,2.35,20a16.05,16.05,0,0,0,.53,5.56,20.16,20.16,0,0,1,.43,4,15.13,15.13,0,0,0,.62,5.39c.46,3.28.72,6.58,1.24,9.85.93,5.86,1,11.47-3.86,16-2.9,2.71-.73,6.32-1,9.51a14.73,14.73,0,0,0,.55,5.4,23.13,23.13,0,0,1,.43,4.69,14.59,14.59,0,0,0,.57,5.34,22.87,22.87,0,0,1,.43,4.67,14.56,14.56,0,0,0,.57,5.33,22.18,22.18,0,0,1,.42,4.67,15,15,0,0,0,.57,5.33,21.51,21.51,0,0,1,.43,4.66,15,15,0,0,0,.57,5.33,22.87,22.87,0,0,1,.43,4.67,14.8,14.8,0,0,0,.57,5.33,22.84,22.84,0,0,1,.43,4.66,14.53,14.53,0,0,0,.57,5.33,22.87,22.87,0,0,1,.43,4.67,14.58,14.58,0,0,0,.57,5.33,22.84,22.84,0,0,1,.43,4.66,14.53,14.53,0,0,0,.57,5.33,22.87,22.87,0,0,1,.43,4.67,14.58,14.58,0,0,0,.57,5.33,22.14,22.14,0,0,1,.42,4.66,15.05,15.05,0,0,0,.57,5.34,21.39,21.39,0,0,1,.43,4.66,15,15,0,0,0,.57,5.33,22.15,22.15,0,0,1,.43,4.66,14.83,14.83,0,0,0,.57,5.34,22.71,22.71,0,0,1,.43,4.66,14.56,14.56,0,0,0,.57,5.33,22.87,22.87,0,0,1,.43,4.67,14.58,14.58,0,0,0,.57,5.33,22.71,22.71,0,0,1,.43,4.66,14.56,14.56,0,0,0,.57,5.33,22.87,22.87,0,0,1,.43,4.67,14.58,14.58,0,0,0,.57,5.33,22.71,22.71,0,0,1,.43,4.66,14.71,14.71,0,0,0,.56,5.32,22.68,22.68,0,0,1,.43,4.65,14.63,14.63,0,0,0,.56,5.3,19.07,19.07,0,0,1,.42,3.85,18,18,0,0,0,.57,6.07,19.24,19.24,0,0,1,.43,3.85,14.84,14.84,0,0,0,.59,5.3,22.74,22.74,0,0,1,.43,4.65,14.5,14.5,0,0,0,.57,5.32,22.58,22.58,0,0,1,.43,4.64,14.54,14.54,0,0,0,.52,5.21,23.39,23.39,0,0,1,.45,4.33c-.14,2.16,1.41,2.51,3,2.79,8.93,1.76,17.92,3.09,26.88,4.61s9.1,1.57,10.11,10.9a15.76,15.76,0,0,0,.66,5.83c1.68,14.35,3.65,28.67,5.34,43a15.71,15.71,0,0,0,.65,5.9c1.68,14.38,3.66,28.71,5.35,43.09a15.94,15.94,0,0,0,.65,5.94c3.38,26.72,6.51,53.48,9.87,80.2.76,6-.48,7.77-6.34,9.12a14.55,14.55,0,0,1-3.45.52c-16.78-.24-32.86,3.61-48.91,8-6,1.66-12.44,1.92-18.64,3a14.15,14.15,0,0,0-6,.75,112.55,112.55,0,0,1-25.21,2.18c-10.83-.22-21.52,1.08-32.27,1.73-2.48.15-4.94.69-7.35-.37-.13-.09-.37-.17-.38-.29-1.68-12-8.85-22.3-10.65-34.28-.74-4.92-1.78-9.79-1.94-14.78,0-1.29,0-2.58.13-3.87.43-4.62-1.16-8.91-2.21-13.28a16.13,16.13,0,0,1,.73-4.37c1.1-3.6.26-7.45-.31-10.72-1.28-7.3.77-14.56-1.35-22-1.73-6-2-12.75-1.94-19.25a20.68,20.68,0,0,0-.31-4.65,97.19,97.19,0,0,1-2.79-23.65c0-4.62-2.91-8.41-3.53-12.93-.41-2.9-1.41-5.79-1.81-8.76a35.69,35.69,0,0,0-4.53-14.14,36.09,36.09,0,0,1-4.1-10.78c-2.16,3.42-4.17,6.89-4.74,10.58-1.46,9.41-6.11,17.93-7.19,27.4-1.1,9.71-3.94,19.11-5.24,28.79-.47,3.47-1,6.92-1.86,10.31-2.57,10.73-2.33,21.79-4,32.62-.87,5.74-2.08,11.42-3.43,17.06a18.26,18.26,0,0,0-.67,5.43c.67,11.44-1.86,22.88-.06,34.34.82,5.26-1.37,10.15-2.41,15.17a5,5,0,0,1-2.7,3.45c-5.64,2.79-10.36,7.28-16.58,9-2.84.79-5.19,2.56-4.54,5.64,2.15,10.09-2.89,18.85-4.74,28.19-1.79,8.95-4.11,17.84-3,27.12a29.82,29.82,0,0,1-4,18.74c-5.13,8.81-8,18.59-12.57,27.64-2.66,5.26-1.7,11.08-1.16,16.72.82,8.62-.89,17.26.25,25.89.22,1.67-.7,3.23-1.75,4.57-5.1,6.49-8.17,13.53-6.67,22.08a47.17,47.17,0,0,1,.05,12.45c-.72,7.9,1.88,15.45,2.65,23.2,1.06,10.69,2.48,21.36,3.65,32,1.63,14.78.94,29.53,1.91,44.24a106.12,106.12,0,0,1-1.94,29.83c-.63,2.94-.37,6-.77,8.94-1.62,12.2-5.05,24.23-3.56,36.75a8.64,8.64,0,0,1-1,5.83c-3.49,5.18-2.38,10.5-.56,15.73a6.19,6.19,0,0,1-.88,6.47c-2.08,2.72-1.59,5,1.79,6.2,2.57.92,3.33,2.52,2.34,5-5.93,15.08-9.85,30.73-13,46.56C792.3,2558.45,788.05,2564.72,785.81,2571.8Z" transform="translate(-371.26 -71.89)"/><path d="M703,592.92c-2.7,2.39-6.35,2.71-9.5,3.45-4.61,1.09-9,2.71-12.08,5.86-2.42,2.48-4.72,2.57-7.34,2.32-4.81-.48-8.25,2.72-12.17,4.41-3.41,1.47-7.64.76-8.36-1-1.51-3.69-3.18-2-4.78-1.21-10,4.74-19.7,10.14-29.9,14.36-15.94,6.59-32.09,12.62-48.55,18a204.32,204.32,0,0,0-20.67,7.76c-1.46.66-3.65,1.45-4.31,4.52-.51,2.33-4.84,3.93-7.47,5.74-8.79,6-17.79,11.71-26.25,18.25-5.68,4.38-9.94,9.9-14.51,15.24C486,703.6,478.5,719,470.74,734c-7,13.46-12.36,27.75-17.09,42.29a234.24,234.24,0,0,0-8.11,32.47c-2.14,12.35-3.44,24.94-4.54,37.51-1.37,15.62-3,31.22-5.34,46.77-2.21,14.53-6.75,28.31-10.79,42.29a23.5,23.5,0,0,0-.78,10.92c1.4,7.87-2.3,15-4,22.45-3.28,14.05-6.16,28.19-9.19,42.29-2.16,10.08-5.05,20.06-7.08,30.23a33.41,33.41,0,0,0-.36,8.33,4.42,4.42,0,0,1,1.21,3.11c.21,4.19-2.13,7.4-4.66,10.16-11.07,12.11-14.6,27.06-17.37,42.6-1.77,9.95-2.29,20.07-4.76,29.9-1.23,4.89.19,9.91,0,14.88a34.31,34.31,0,0,1-1.92,11.22c-.76,1.92-1.48,4.33-4.52,3.09V73c1.73-.92,3.6-.47,5.4-.47q496.79,0,993.57,0c6.63,0,6.13-.81,6.13,6.17q0,554.73,0,1109.43c-2.15,4.19-3.77.84-4.58-.69-2.55-4.76-3.78-10-5.14-15.23-.36-2.63.71-5.5-1.34-7.85-1.42-1.95-3.61-3.35-4.23-5.87a40,40,0,0,0-3.2-13.13,14.68,14.68,0,0,1-1.26-4.55c-.13-3.34-.09-6.68,0-10,1.39-15.84-1.79-31-6.2-46.11a48.07,48.07,0,0,1-3-15.59c-.12-6.66-2.88-12.87-3.28-19.62-1.29-22.25-2.65-44.48-.87-66.77.22-2.71-.51-5.29-.63-7.95-1-22.12-3.87-44-7.16-65.92-2-13-3.16-26.4-1.15-39.71.93-6.17.06-12.38-.94-18.4-2-12.25-2.5-24.89-8-36.4a42.91,42.91,0,0,1-3.28-10.47,171.08,171.08,0,0,0-11.7-37.55c-1.32-3-2.83-6.12-1.52-9.6.84-2.22-.31-4.52-1-6.1-3.79-8.09-5.77-16.66-7.53-25.29-1.49-7.29-6.28-12.72-9.79-18.91-5.91-10.4-12.76-20.2-19.51-30-7.51-10.91-18.89-18-29.88-25-12.36-7.88-25.49-14.55-39.86-18-7.62-1.84-15.91-1.79-22.76-5.8-10-5.87-21.5-8.06-31.83-13.29-5.26-2.66-11.7-4-18.06-5a58.35,58.35,0,0,1-23.37-9.7c-8.15-5.58-17.19-9.32-25.76-14-5.42-3-10.18-7.09-15.38-10.4-5-3.21-9.82-7.19-16.42-7.69-4.31-.32-8.44-2.06-13-1.92-3,.09-8.17-6.86-8.18-10.29,0-5.79-4.41-9.19-7.5-13-1.4-1.72-2.35-1.92-1.73-4.51.48-2,1.59-4.24,1.06-6.59-1.38-6.2-8-12.6-14.62-13.39a2.9,2.9,0,0,1-2.87-2.61c-.34-3.8-.81-7.75-.12-11.43a113.26,113.26,0,0,0,1-35c-.61-5-.93-10.26,4.14-14.17,1.62-1.26,2.26-4.67,2.19-7.06-.2-7.36,4.19-13.42,5.38-20,1.31-7.21,4.58-13.77,5.28-21.13a193.24,193.24,0,0,0,.78-21.23c-.07-4.79,2.46-8.64,4.13-12.74,1.13-2.75,6.16-2.29,8.33.83,1.51,2.18,2.18,2.35,3.73.19a31.52,31.52,0,0,1,4.44-4.66c2.44-2.24,3.94-4.87,3.37-8.25-1.49-8.89-.7-18.15-4.2-26.72-3.53-7.29-4.81-15.18-6.24-23-.48-2.63-1.21-5.19-1.76-7.79-.69-3.26-2.56-4.83-5.92-4.84-7.73,0-12.7-5.14-17.8-9.93-1.31-1.23-1.33-3-1.45-4.64a350.45,350.45,0,0,0-5.26-37c-1.7-9.31-2.75-18.7-5.23-27.91-4.86-18-13.33-34.39-22.9-50.18-4.38-7.22-10-13.66-15.48-20.17-1.92-2.3-3.68-4.69-5.38-7.17A35.17,35.17,0,0,0,940,130.07c-8.73-4.83-18.12-8.4-26.86-12.95-14.76-7.69-30.32-7.75-46-8.76-6.58-.43-12.87,1.45-19.08,3.31a41.33,41.33,0,0,1-17.17,1.8c-4.18-.53-8.16,1-12.25,1.46-6.08,1.34-12.19,2.32-18.44,1.91-7.84-.51-13.87,4.16-20.53,7.08-10.39,4.55-18,13.24-28.19,18.34-9.67,4.84-17.89,12.27-24.92,21-8,9.88-15.23,20.28-22.21,30.82-6.79,10.27-9.6,22.18-10.54,34.43-.41,5.42-1.12,10.79-1.13,16.26,0,6.69,2.28,12.8,3.53,19.17.74,3.8,1.48,7.89-2.88,10.53-.5.3-.4,1.77-.4,2.69,0,4.67-.53,9.4.12,14,.67,4.73-.79,7.82-4.84,9.78-3.43,1.66-4.64,5.35-7.39,7.63-1.4,1.16,1.57,5.28,4.06,5.46a7.46,7.46,0,0,0,4.35-.57,3.72,3.72,0,0,1,4.24.22c-1.32,1.58,1.47,4-1.34,5.48-4.88,2.61-7.43,8.91-14.15,8.78-1.81,0-2.16,1.73-2.17,3.34a467.61,467.61,0,0,0,1.8,47c.68,7.18,1.83,14.32,2.2,21.53.1,1.81-.07,4.3,2.07,4.51,2.38.24,3.86-1.58,4.22-4.2.19-1.4-1.37-3.78,1.2-4.08,2.23-.26,4,.84,5.36,3.18,3.74,6.24,7.86,12.27,12.16,18.15,2.66,3.64,2.85,7.95,3.8,12,2.05,8.66,4.49,17.24,5.57,26.16a187.81,187.81,0,0,1,.73,42.39,39.88,39.88,0,0,0,6.88,27.42c4.16,6,4.57,12.29,1.9,18.87-2.13,5.26-3.19,10.09,1.56,14.81,2.73,2.72,1.9,13.06-.47,16.25-3.33,4.51-4.32,9.87-5,15.27-.23,1.82.55,4.16-2.73,3.64-1.19-.2-1.75-.82-1.09-3.56,1.07-4.42-.65-4.35-3.7-2.71-1.84,1-3.6,2.12-5.4,3.19C705.54,591.55,704.29,592.29,703,592.92Z" transform="translate(-371.26 -71.89)"/><path d="M543.81,1923c-1,.25-1.06.91-.79,1.73-.39,7.07-.6,14.16-1.42,21.2-.7,6-.78,12.13-1.44,18.18-2,1.07-1,3-.93,4.37.15,4.26-.18,8.37-2.2,12.21-1.41,2.5-3.08,4.26-6.43,3.87s-5.6,2-7.64,4.41l.09-.06a14.64,14.64,0,0,0,0,7.32l-.06,0c2.08.92,3.45,2.69,5.06,4.19,1.34.85.37,3,2.11,3.66,1.18,2.75-.14,5.76.87,8.53a.52.52,0,0,0,.59.6c2.53,2.2-.54,6.06,2.4,8.14l-.15-.17c.68,6.49,2.2,12.84,3.15,19.28l.28,1.62c2.38,1.7.69,4.46,1.71,6.52,4.06,9,8.18,17.93,15.89,24.55,1.55.82,2.49,2.43,4.11,3.16l-.1-.09c1.32.8,2.93,1,4.11,2.1,0,.59.34.84.91.81a21.54,21.54,0,0,0,7.15,1.74h1c7.41.87,15,.41,22,3.7a10.67,10.67,0,0,0,8.1.55l2.71,0c1.12,1.37,2.9-.07,4.09,1v1c-.94,2.08-.66,3.52,1.95,3.75.69.3,1.11.73.71,1.53,3,5.91,1.33,11.27-2,16.43a5.78,5.78,0,0,1-3.15,2.28c-7.2,2.59-9.55,6.93-7.54,14.15,2.41,8.69,3.08,17.31-.36,25.92a22.52,22.52,0,0,0-1.43,10.75,22.46,22.46,0,0,1-1.31,11.28,7.44,7.44,0,0,0-.44,4.9,133.22,133.22,0,0,1,4.07,26.49,28.86,28.86,0,0,0,2.77,10c4.72,10.5,4.76,21.25,2.68,32.57a72.27,72.27,0,0,0-.11,25.28,88.26,88.26,0,0,1,1.43,14.27c.08,4.81-.16,9.63.44,14.45.49,3.93-.55,7.22-4.89,8.66-2.52.83-3.07,2.67-3.12,5.44-.16,8.14,4.84,12.26,11.08,15.62,2.09,1.12,4.41,2,3.5,5.1-3.13,15,.65,29.93.66,44.89,0,10.39-.55,20.86,1.38,31,1,5,2.58,9.93,3.38,15.06,1.59,10.18,5.86,19.86,6,30.27,0,2.6,2,3.71,2.43,5.62a144.77,144.77,0,0,1,2.73,16.39,25.5,25.5,0,0,0,2,7c2.92,7.27,2.26,15,2.91,22.55.17,2-.17,3.82,1.88,5.25,1.14.79,1.34,2.54,1.28,4.1-.13,3.44-.21,6.71,1.62,10.05,1,1.72.68,4.5.49,6.92-.3,3.95-1.22,8.21,1.79,11.75.2.23.44.63.37.86-2.54,8.39,4.38,15.77,2.59,24.08q-134.28,0-268.55.09c-4,0-5.21-.56-5.2-5q.19-696.71.12-1393.42c2-1.92,3.62-1.72,3.88,1.23a17.61,17.61,0,0,0,1.66,6.08,9.83,9.83,0,0,1,.43,1.33c3.57,19.8,14.15,35.29,29.61,47.61,17.21,13.71,36.2,24.09,57.62,29.7.48.09.94.22,1.41.35a16.89,16.89,0,0,0,5.21.31c5.69-.29,11.43.62,17.07-.78a34.61,34.61,0,0,0,14-3c12.84-5.25,26.33-9.27,37-18.78,4.1.84,5.09-3.8,8.22-4.69,10-1.22,20-2.37,29.44-6.11,2-.79,4-1.53,5.5-3.18,2.87-1,4.14-3.6,5.93-5.71,1.2-1.42,2.13-3.53,4.66-2.26.56,3.26-1.15,6.77,1,9.86,3.13,2.51.29,6.3,1.94,9.13l0,0a24.28,24.28,0,0,1,0,11c-2,1.39-2.13,3.48-2.06,5.63a67,67,0,0,1-2,10.33l0,0c-.95,1.7-.34,3.55-.46,5.33s-.72,2.48-2.48,2l-1.94-.52c-1,1.72.68,2.86.91,4.31v0c1.17,2.06-.06,4.47.94,6.55l.06,6.38c.77,4.44.26,9,1.24,13.44,1.18,5.34-.53,10.69-1.12,16-.47,4.14-2.46,8.17-1.09,12.47.13,1.86-.13,3.86,1.66,5.19,2.07,3.92-.15,8.27,1.2,12.27.3,5.22-.42,10.52,1.25,15.63.32,7,1.17,13.95-.45,20.87-1.33,1.35-2.67,2.69-.2,4.22a5.21,5.21,0,0,1,0,6.76.53.53,0,0,0-.6.6c-1.2,3.38.7,7.12-1.21,10.41-1.45-.14-1.85.66-1.72,1.93-1,1.25.1,3-.93,4.19-1.36.24-1,1.14-.76,2,.9,3.17-.53,6-1.22,9h0c-3.16,2-.42,5.54-2,8-2.43,4.4.6,8.43.87,12.66-.51,1.19-.37,2.75-1.87,3.4-2.12,2.17-.84,4.85-1,7.28-.25,5.08-.15,10.18-.19,15.27-1.36,3,1.13,6.7-1.81,9.37l-.31.25.12.37c-1,2,.45,4.41-1.11,6.3-1.42,7.16-.77,14.41-.93,21.62.28,2.55,1.15,5.2-1.19,7.33-1.42,1.88-1,4.23-.58,6,1.07,5-1.6,10.21,1,15.06a38.54,38.54,0,0,1,.11,20v1c.56,4.3-3.06,8.13-1.58,12.46a11.6,11.6,0,0,1-.57,8.52l-1.11,1.48c-.88,2.44.16,5.06-.72,7.49l-.19,1.86c-1.45,1.77,1.38,3.38.18,5.14l-.19,1c1,4.91,1.15,9.72-1.91,14.08-2.15,1.2-.84,3.19-1,4.76-.26,3.92-.15,7.86-.2,11.79-1.36,3,1.14,6.7-1.81,9.37l-.3.25.12.38c-.49,4.58-.87,9.16,0,13.74q.33,10.88.68,21.73c1.85,1.72,1.27,4.13.74,5.8-1,3-.62,6.07-1.11,9.06l-.23,5.89c-1,6-.2,12.14-.48,18.2-.08,1.74.55,3.71-1.41,4.92l-.31.24.12.38c-1.13,5.08.43,10.32-.86,15.39-2-.32-2.49,1-1.91,2.34,1.47,3.38.66,6.83.77,10.26-1.33,3.31.85,7-1.2,10.27-1,.24-1.06.9-.8,1.72-.81,4.28-.19,8.61-.38,12.91-.07,1.62.37,3.39-1.43,4.46l-.3.25.12.37a13.44,13.44,0,0,0,0,6.87c-2.9,4-1.52,8.72-2,13.12-.87,6.44-.14,12.9-.4,19.35-.07,1.76.54,3.72-1.31,5-3.09,7.64-1.79,15.71-2.28,23.61-.86,6.79-.15,13.6-.4,20.4-.07,1.75.56,3.74-1.42,5l-.3.25.12.38c-1.11,3.39.39,7-.87,10.39-2.08,1.46-2.4,3.28-1.13,5.44-.82,3.84-.11,7.74-.42,11.59-.11,1.29.84,3-1,3.83a.52.52,0,0,0-.59.59c-.79,3.35-.21,6.75-.38,10.13-.07,1.58.32,3.28-1.33,4.38-.09.54-.19,1.08-.28,1.62C543.69,1916.05,545.86,1919.77,543.81,1923Z" transform="translate(-371.26 -71.89)"/><path d="M1376,2571.8H1106.37c-1.54-4.08.4-7.9,1.33-11.61,2.28-9.22,3.81-18.57,5.75-27.85,1-4.72,1.73-9.52,5.49-13.11,1.34-1.28,1.06-3.09,1-4.73-.57-12.64,2.34-24.72,5.33-36.88,4.52-18.41,7.82-37.09,11.44-55.7,7-36.15,7.76-72.69,7-109.32-.11-5.62-.93-11.24-.82-16.91.07-3.19.86-5.9,3.3-8,.36-.38.75-.74,1.13-1.1a5.24,5.24,0,0,0,2.12-3.77c4.23-7.2.61-15.2,2.35-22.73,1.78-7.76,3.24-15.56,6.88-22.7a63.69,63.69,0,0,0,4.84-10.92c4.23-14.5,8.83-28.94,9.59-44.18a74.22,74.22,0,0,0-11.28-43.13c-.81-1.33-1.59-2.51-1.26-4.12a82.58,82.58,0,0,0-9.75-26.91c-2.47-4.33-5-8.25-1.71-13.3,1.2-1.81-.79-5.09,2-6.21s5.56.55,8,1.85a34.37,34.37,0,0,0,15.41,3.72c10.06.25,19.67,3.21,29.61,4.06,7.65.66,14.91-.44,21.5-4.66,4.42-2.84,6.4-6.68,6.37-12.11-.12-28.26-.07-56.54,1.21-84.73.8-17.66-.71-35.2,0-52.73.39-9.48-1-18.8-.49-28.21.58-10-1.24-19.87-2.78-29.71a7,7,0,0,1-.39-2.46c2.5-10.77-1.13-21.39-.94-32.18.16-9.5-.57-19.48-4.08-28.85-1.73-4.64-1.49-9.9-1.57-14.82-.21-13.51-2-26.91-3.64-40.23-1.15-9.34-3.1-18.63-3.9-28.07-1.51-17.55-3.65-35-4.78-52.61-.51-7.94-1.27-15.93-3.36-23.68a72.51,72.51,0,0,1-1.91-12.33c-.75-8.11-1.71-16.21-2.31-24.3-.65-8.72,1.76-17.43,2.72-26.16.57-5.27,2.11-10.4.43-15.76-.78-2.5.26-4.91,1.34-7.21,7-14.74,12.36-30.2,20.58-44.37,2-3.46,3-7.4,4.06-11.25,5-17.86,11.63-34.88,22.48-50.21a129.52,129.52,0,0,0,16-29.26,380.89,380.89,0,0,1,21.64-46.56c4.47-8.33,7.34-17.49,12.62-25.44a3.28,3.28,0,0,0,.74-1.84c-.59-8.25,4.43-13.93,8.94-19.85a22.76,22.76,0,0,1,8.06-9.91c5.56-3.91,5.91-10.53,7.69-16.31,2.48-8.08,4.16-16.42,8-24.08,1.19-2.4,2.34-4.9,2-7.63-.48-4,1.37-6.93,4.27-9,4.71-3.38,6.86-8.31,9.14-13.27,1.94-4.23,3.68-8.58,6.58-12.29a10.92,10.92,0,0,0,2.21-4.44c2.07-9.79,6.14-18.9,9.5-28.25,1-2.86,2.29-3.79,4.22-.63a35.43,35.43,0,0,1,.17,6q0,668.29,0,1336.58C1376.46,2567.53,1377,2569.73,1376,2571.8Z" transform="translate(-371.26 -71.89)"/><path d="M908.61,1982.18c-.93,2.47,3,5.4-.82,7.74-.64.4.78,1,1.45,1.4a2.58,2.58,0,0,1,1.32,3.39c-1.79,3.5-.31,6.51.76,9.74s1.79,6.49-.21,9.66a2.41,2.41,0,0,0-.1,2.75c3.06,5-.64,10.79,1.79,15.9.12.25-.75,1-1.16,1.47-.92,1.15-.36,2.79-1.28,3.93,3.21,3.73,3.21,8.27,3.24,12.8a3.48,3.48,0,0,0,0,4.13,93.09,93.09,0,0,0,6.33,29.62c1.39,3.53,1.91,7.34,4.58,10.47,2.12,2.47,1.49,5.81.23,8.79-.2,5.9,1.32,11.29,3.45,16.85,3.34,8.69,5.39,17.76,2.31,27.27-1.47,4.53-.51,9.57,1.43,13.63,2.43,5.08,3,10.86,6.62,15.49,1.82,2.35,1.49,5.74,2.08,8.66.64,3.16,1.48,6.11,3.92,8.43,1.37,1.3,2.47,3.12,2,4.92-2.08,7.43-.12,15.13-2,22.68-1.83,7.34-.33,14.88,2.5,22a6.81,6.81,0,0,0,3.39,3.5c6.62,3.5,8,6.85,5.65,14-.74,2.22-1.3,4.46-1.86,6.72a18.68,18.68,0,0,0-.27,4.42c.18,2.62,1,5.19,1.22,7.75.4,4.53,5,8.88.75,13.72-.52.59.45,1.83.69,2.79,2.53,25,3.37,50,3.66,75.15.12,10,.09,20.15,2.26,30.06,1,4.34-.12,8.68-.68,12.9-3,22.19-1.71,44.46-1.83,66.71a48.14,48.14,0,0,1-.69,10.45,8,8,0,0,0,1.68,7,18.4,18.4,0,0,1,3.73,13.62,11.71,11.71,0,0,0,1,6.32c2.38,5.16,3.16,10.82,4.84,16.19,1.09,3.46-.38,7.69,0,11.73.52,6.38,2.14,12.42,3.67,18.54.52,2.06,1.4,4.15.39,6.33H785.81c-1.34-4.8,2.18-7.9,3.79-11.77,3.79-9.11,4.55-19.12,7.23-28.58,2.86-10.07,5.43-20.24,10-29.95-1.08-1-2.63-.18-3.62-.78s-3.49.07-3.3-2-1.49-4.55,1.41-6c2.63-1.34,2.24-2.79,1-5.45-2.33-5-3.64-10.81.11-15.75a7,7,0,0,0,1.32-4.85c.09-6.16,0-12.32,0-18.48,0-3-.08-5.81,1.77-8.71,1.22-1.92,4.43-4.92.54-7.7,4-4.16-1-10.48,3.5-14.64.59-.55,0-2.26.18-3.4.87-5.64-2-11.72,1.94-17a1.27,1.27,0,0,0,0-1c-4.4-12.33,0-25.24-2.28-37.52-1.61-8.57-.55-17.12-1.93-25.45-1.56-9.43-1.87-19.17-4.16-28.28-2.52-10,.13-19.79-1.68-29.47-1.57-8.37,2.67-14.22,7.45-20a5.38,5.38,0,0,0,1.28-4.18c-.86-7-.36-13.88,0-20.88.28-5.25-1.09-10.72-.73-16.19a13.87,13.87,0,0,1,3.3-8.79,9.52,9.52,0,0,0,2.14-4.73c1.06-7.79,6.08-13.83,9.21-20.66a40.14,40.14,0,0,0,3.35-19.49,53.73,53.73,0,0,1,1.14-16.34c1.7-6.69,1.84-13.9,5.06-20,2.52-4.81,2-9.62,1.69-14.4-.41-7-.14-8.27,6.55-9.94,6.33-1.58,10.5-7,16.62-8.82a1.62,1.62,0,0,0,.81-1.17c.62-7.36,4.23-14.61,1.2-22.11-1.53-3.78.12-7.57.41-11.06.56-6.77-.93-13.76.82-20.14,1.32-4.78.66-9.94,3.37-14.51,1.4-2.36,1.07-5.89,1.05-8.63-.07-14.51,4.26-28.41,5.27-42.73.24-3.4,1.49-6.78,2.52-9.81,1.23-3.61,1-7,1.52-10.52.69-4.36,2.09-8.6,2.72-13,1-6.55,5.82-12,5.23-18.94-.11-1.35.64-2.4,1.29-3.59,1.2-2.17,3.19-4.17,2.46-7.12-.35-1.42,1.12-2.91,1.88-2.53,1.07.54,3.43-.28,3.19,1.39-1,7,4.18,11.73,6.26,17.56,1,2.83,1,5.73,1.55,8.53,1.17,5.95,2.18,11.79,4.93,17.32,1,2,.17,4.92.4,7.39.64,6.75.43,13.64,3,20.12A6.29,6.29,0,0,0,908.61,1982.18Z" transform="translate(-371.26 -71.89)"/><path class="cls-1" d="M974.55,2571.8c-3.72-10.08-4.78-20.72-6.65-31.19-.17-1-.09-1.38.87-1.84a2.67,2.67,0,0,0,1.13-3.41c-4.46-5-2.31-12.2-6.14-17.36a4.6,4.6,0,0,1-.66-4.16,14.8,14.8,0,0,0-3.63-14.48c-2-2.23-2.13-4.2-1.85-6.57,1.85-15.24.55-30.52.69-45.78,0-3.51.25-7,.31-10.53a214.07,214.07,0,0,1,2.9-29.89,12.42,12.42,0,0,0-.45-4.92,50.93,50.93,0,0,1-1.47-11.45c-.26-13-1.4-26-1.22-39,0-2,.17-4,.19-5.94.16-14-2.22-27.84-2.94-41.78-.13-2.49,0-5,0-7.49a1.82,1.82,0,0,1,1.9,0c8.93,7.1,20.75,7.23,30.48,12.9,6.44,3.77,14.85,3.28,22.51,2.12a34.83,34.83,0,0,1,18,2c12,4.52,24.32,6.79,37.18,4.56,9.9-1.72,19.91-.86,29.87-1.2,13.48-.45,26.3-3.55,38.09-10.44,4.61-2.69,7.68-5.77,7.49-11.75-.16-5,2.6-7.28,7.1-7.37-6.7,5.72-3.66,13.41-3.74,20.33,0,1.91.65,4.15.66,6.26,0,12.31.24,24.63,0,36.93a411.41,411.41,0,0,1-4.81,56.7c-2.87,17.71-6.4,35.26-9.9,52.84-2.26,11.37-5.63,22.46-7.66,33.84-1.41,7.87-2.6,15.91-1,23.94.24,1.18.31,2.22-.63,2.45-5.69,1.42-4.78,6.63-5.68,10.38-3,12.61-5.56,25.34-8.24,38-.23,1.09-1.46,1.9-.88,3.2Z" transform="translate(-371.26 -71.89)"/><path class="cls-2" d="M465.07,1260.49c-10.39-.72-19.15-6.16-28.24-10.28a130,130,0,0,1-47-35.92c-7.69-9.31-11.71-20.68-13.59-32.68-.06-.48.68,0,.6-.51l-.29.28c-.48.46.18-.18-.3.28-1.58-1.93-2.72-3.94-2.17-6.65s-1.48-1.53-2.68-1.55v-1a10.24,10.24,0,0,0,0-7v-1c2.42.21,2.77-1.41,3.47-3.28,2.25-6,2-12.21,1.32-18.2-.81-7.44,2.11-14.15,2.59-21.29.62-9.24,2.79-18.25,4.6-27.31,2.19-10.92,6.25-21,13.56-29.65,3.05-3.59,6.66-7,6.58-12.3.79-2.36,2.93-3.43,4.65-4.92a18,18,0,0,1,5.17-6,136.42,136.42,0,0,1,35.79-13.29c1.43-.32,2.86-1.13,4.17.26l-1,1.89a9,9,0,0,1-2.77,3.11c-6,7.06-11.15,14.64-13.19,23.91-.86,11-1.31,22.08,2.2,33,2-.78,1.95-2.75,3.06-3.8l-.09.09c1.49-4,1.79-8.37,4-12.12l-.07.1c.93-3.23,2.79-6.06,4-9.17l.89-1.91c1.74-2.12,2.21-5,4.19-7l-.07.08c1.84-3.78,2.87-8,6-11.12l0,0a29.58,29.58,0,0,1,4.06-6l-.05.07c1.47-2.82,4.34-4.46,6-7.13l.93-.93a19.22,19.22,0,0,1,8.1-7l-.07.05c1.1-1.28,2.73-1.48,4.19-2l1.73-1a72.48,72.48,0,0,1,11.12-3l-.08,0c5.1-2.11,10.25-5.13,14.95.74,2.43,2.66-.56,4.3-1.61,5.74-.77,1.06-1.58,2.24-2.4,3.35-3.1,6.77-6.55,13.37-10,20-4.43,8.33-6.95,17.49-9.85,26.44-4.3,13.25-7.85,26.59-7.17,40.8.43,8.82,2.59,17.26,4.09,25.86-.12,1.62,1,2.74,1.67,4,1.51,1.32,1.33,3.43,2.31,5,.88,2,1,4.36,2.67,6,3.49,3.19,4.36,7.88,5.8,11.92,3.95,11,10.68,19.8,19.35,27.23,11.08,9.51,23.32,17.31,38.23,18.48a47.56,47.56,0,0,0,29-7.18,35.21,35.21,0,0,1,4.63-2.9c1.14-.43,2.15-1.6,3.52-.57.35,9.21-4.15,15.55-11.83,20-3.23,3.29-7.09,4.75-11.71,5.57-6.62,1.17-13.26,2.3-19.87,3.53-3.21.63-4.87,3.83-7.86,4.84-4.84,4.84-9.65,9.52-16.74,11.3-4.12,1-7.82,3.62-11.81,5.25-7.19,2.94-14.28,6.28-22.3,6.32S473.13,1260.35,465.07,1260.49Z" transform="translate(-371.26 -71.89)"/><path class="cls-1" d="M1376,2571.8q0-671.79,0-1343.59c0-2.2,1-4.69-1.12-6.58-.39-10-1-20-.46-30a2.76,2.76,0,0,1,1.36-2c.09-1.82.25-3.64.25-5.47q0-552.65.16-1105.31c0-5.33-1.62-6-6.28-6q-499.24.17-998.49.1c.22-.31-.5-1,.5-1,1.33,0,2.66,0,4,0q498.32,0,996.63-.1c3.74,0,4.58.85,4.58,4.59q-.13,1245.42-.15,2490.82C1376.94,2568.76,1378.09,2570.69,1376,2571.8Z" transform="translate(-371.26 -71.89)"/><path class="cls-3" d="M371.38,1165.47c1.63,2.33,1.78,4.66,0,7Z" transform="translate(-371.26 -71.89)"/><path class="cls-4" d="M1148.26,2286.91c-4.13,1.79-6.82,4.54-5.92,9.45.81,4.47-1.39,6.89-5,9.14a79.18,79.18,0,0,1-38.52,12.19c-12.76.63-25.52.37-38.27,1.85-11.71,1.37-23.21-1.06-34-5.73a22.27,22.27,0,0,0-13.06-1.67c-5.76,1-11.56.64-17.38.25s-10.51-2.86-15.57-5.29c-3.14-1.5-6.33-5.59-10.92-2.75-.47.29-1.8-.62-2.64-1.14-3.8-2.36-7.56-4.78-11.33-7.18-2.86-1.39-2.87-3-.17-4.46,1.68-1,1.75-1.1.73-3.31-2.17-4.68-3-10-3.41-15.31a7.74,7.74,0,0,0,0-5c1.09-4.59,3.1-9,3.06-13.83,0-2.54-1.4-4.8-3.18-4.82-7.07-.06-7.74-5.79-8.78-10.19s-2.5-9.61-1.1-14.2c2.46-8-.15-16.47,2.6-24.39.57-1.63.5-3.5-1.05-4.54-5.08-3.43-4.63-9-5.74-14-.25-1.11.32-2.88-.27-3.36-5.07-4.09-4.91-10.67-7.4-15.91-2.3-4.85-3.87-10.91-1.23-16.63a9.87,9.87,0,0,0,1-4.78c-.46-8.67-1.62-17-5.8-25-1.83-3.47-3-8.19-.06-12.28,11.32-.68,22.62-1.53,34-2,6.28-.25,12.56,0,18.86-.82,4.36-.55,8.85-.11,13.11-1.6,1.71-.17,3.48.32,5.15-.44,10.2-1.25,20.11-3.83,30.11-6.12,11.71-2.7,23.44-5.9,35.69-5a14.83,14.83,0,0,0,2,0c7.82-.41,8.37-1.61,7.94-9.36-.69-12.31-2.76-24.44-4.13-36.66-1.36-12-2.4-24.16-4.86-36.08-.45-2.18.43-4.6-.3-6.88-.82-1.63.22-3.55-.78-5.16q-2.61-21.9-5.21-43.82c-.83-1.63.21-3.55-.78-5.16q-2.61-21.9-5.21-43.81c-.82-1.64.21-3.56-.78-5.17.73-2.66-1.48-4.88-1-7.65.27-1.68-1.87-1.28-3.08-1.47-11-1.67-22-3.14-32.83-5.7a3.72,3.72,0,0,1-3-3.2l-.27-4.81c-.72-1.66.21-3.56-.73-5.19l-.27-4.8c-.72-1.66.22-3.55-.73-5.18l-.28-4.82c-.71-1.66.23-3.55-.72-5.17-.07-1.27-.15-2.55-.22-3.82-.88-2,.27-4.21-.78-6.17-.08-1.27-.15-2.55-.22-3.82-.75-1.73.08-3.68-.74-5.4-.09-1.53-.17-3.06-.26-4.6-.75-1.73.09-3.67-.74-5.39-.08-1.53-.17-3.07-.26-4.6-.75-1.73.09-3.67-.73-5.39l-.27-4.61c-.75-1.72.09-3.66-.73-5.38l-.27-4.61c-.75-1.72.1-3.66-.73-5.37l-.27-4.63c-.75-1.72.1-3.65-.73-5.36l-.27-4.63c-.75-1.72.1-3.66-.73-5.36l-.27-4.64c-.75-1.71.11-3.64-.73-5.34l-.27-4.66c-.75-1.71.12-3.64-.73-5.33l-.27-4.66c-.75-1.71.12-3.63-.73-5.32l-.27-4.68c-.75-1.7.13-3.63-.73-5.32l-.27-4.67c-.74-1.7.13-3.63-.73-5.32l-.27-4.68c-.75-1.7.14-3.62-.73-5.3l-.27-4.69c-.74-1.7.14-3.62-.73-5.31l-.27-4.69c-.74-1.69.14-3.61-.73-5.29l-.27-4.7c-.74-1.7.15-3.62-.73-5.29l-.27-4.71c-.74-1.69.15-3.61-.73-5.28l-.27-4.71c-.74-1.7.15-3.61-.73-5.28l-.27-4.72c-.73-1.69.15-3.6-.73-5.27,0-.33.23-.72.11-1-2.23-4.84-.76-8.84,3.12-11.92,4.31-3.44,1.94-7.94,1.62-11.65s-.16-7.51-1.1-11.16c-.8-1.66.17-3.58-.76-5.23l-.25-3.77c-.79-1.63.22-3.54-.77-5.15q-1.11-10.42-2.23-20.83c-.79-1.65.21-3.56-.76-5.19q-1.11-10.4-2.23-20.8c-.79-1.66.19-3.57-.76-5.21l-2.22-20.77c-.8-1.67.16-3.6-.76-5.25-.09-1.25-.17-2.5-.26-3.75-.79-1.65.21-3.56-.76-5.17q-1.12-10.41-2.23-20.82c-.79-1.65.2-3.57-.76-5.2q-1.11-10.39-2.23-20.79c-.79-1.66.17-3.58-.76-5.23-.08-1.25-.17-2.51-.25-3.76-.79-1.65.22-3.56-.77-5.17l-2.22-20.82c-.79-1.65.2-3.56-.77-5.19.41-3.27-1.54-6.3-.9-9.63.25-1.29-.5-2.15-2-2.15-2,0-4-.54-5.92-.13-6.34,1.38-10.14-1.51-13-6.76-2.51-4.53-6-7.61-11.76-6.2-2.37-1-4.94.09-7.32-.7l-7.76-.28a39.1,39.1,0,0,0-12.59,0c-9,.92-18.08,2-27,3.75-3.32.65-7.08-.73-8.73,4.24-.45,1.37-4.83,2.49-6.58-.87-.89-1.71-2-2.81-3.87-2.16-4.58,1.55-10.22.66-13.33,5.81-.79,1.3-2.49,1.56-4,1.1-6.88-2.06-13.27.46-19.76,2.07-4.47,1.11-9,2-13.43,3.26-1.72.47-3.28.93-4.3,3.27-2,4.59-7.08,2.94-10.59,3.09-8,.35-16.13,2.17-22.51,5.84-5.32,3.06-10.2,3.67-15.67,4.84-8.3,1.78-16.28,5.1-24.38,7.79-.44.14-1.14.47-1.17.76-.58,6.79-6,4.64-9.8,5.22-8.52,1.34-16.38,4.6-24,8.37-3,1.51-3.82,5.59-5.21,8.74-1.2,2.27-3.67.91-5.33,1.86-5.6,1.4-7.76-2.33-9.42-6.51-7.76-19.54-16.11-38.82-24.37-58.15-7.24-16.94-14-34.1-21.65-50.85-1.41-3.08,2.09-8,6.65-8.93,11.94-2.5,23.27-7.06,35-10.08,4.09-1,6.62-4.89,11.42-4.53,12.86,1,24.07-5.75,36.13-8.58a6.74,6.74,0,0,0,5.18-4.26c1.64-3.42,6.31-3,9.59-2.48a13.63,13.63,0,0,0,5.59-.16c9-2.18,18-4.17,27-6.29,2.15-.51,4.53-.56,4.29-4.12-.14-2,5.53-3,7.25-1.13,1.36,1.52,2.32,1.15,3.83.78,9.31-2.26,18.66-4.33,28-6.65,1.54-.39,4.85.11,3-3.75-.74-1.54,1.31-2.43,2.8-2.79a40.84,40.84,0,0,1,5.36-1c3-.31,3.73-1.92,3.73-4.73,0-3.5-1.3-7.19,1.75-10.41,1.46-1.54-.59-3.68-.84-5.59-2.28-17.14-4.94-34.23-7.48-51.34-1.46-9.89-2.87-19.78-4.41-29.66-.84-5.38,1.79-9.88,3.44-14.6,2.34-6.67,4.94-13.25,7.49-19.83a27.37,27.37,0,0,1,2.36-3.7c.27,3.25.46,5.44.65,7.64.89,3.72-.37,7.59.71,11.3-.5,7.37,2.65,14.16,3.33,21.35.2,2.12.63,4.22,1,6.33.8,2.37-.28,4.93.71,7.28l.26,6.71c.94,3.72-.36,7.59.74,11.31q.14,8.84.28,17.68c.92,3.64-.45,7.44.78,11,4,4.43,9,7.63,13.76,11.19,1.82,1.37,12-2,13.44-4.41,8-12.87,16.25-25.63,20.94-40.22a64.81,64.81,0,0,0,2.91-18,35.81,35.81,0,0,1,1.21-8.12c1.83-6.76-1.32-12.75-1.68-19.11-.41-7.46-2.56-14.76-2.67-22.3-.41-1,0-1.19.92-.9a576,576,0,0,0,29.34,65.58,6.26,6.26,0,0,0,3.45,3.24c4.76,1.81,9.48,3.73,14.23,5.54a9.87,9.87,0,0,0,11.4-4.14c1.95-3.38,3.79-6.83,5.67-10.25a31.2,31.2,0,0,0,.06-11.48c-.1-3.23-.19-6.45-.28-9.68-.84-2.35.28-4.91-.73-7.25-3.45-11.56-6-23.51-10.63-34.57-4-9.52-10.63-17.91-15.69-27a259.82,259.82,0,0,1-18.69-41.24c-1.78-5.15-3.89-10.2-5.86-15.29-2.8-7.25-3-15.07-4.9-22.48-2.92-11.4-7.47-21.63-20.41-25.28-4.1-1.15-7.71-4-11.67-5.75-1.68-.76-2.29-1.73-2-3.39.74-5-1.55-9.69-1.24-14.63-.86-1.49.33-3.34-.83-4.77-1-1-2.26-.51-3.29-.19-2.15.67-3.27-.07-3.65-2.17-1.63-9.09-3.19-18.2-4.87-27.28-.66-3.57-2.22-5.78-6.54-4.23-2.75,1-5.76,1.25-8.65,1.83-3.53.91-1.89-2.37-2.86-3.54.75-4.1-1.87-9.25.67-12,2.26-2.48,7.3-2.42,11.13-3.44,1.89-.5,3.15-1.18,3.21-3.59.15-6.37-1.46-12.53-2.31-18.74-.3-2.18-4.13-3.85-6.32-5.79-1.94-1.71-3.67-3.49-1.72-6.31,1-1.41.15-2.44-.87-3.43-6.41-6.19-12.51-12.71-19.45-18.32-2.75-2.22-6-1.14-9-1-3-1.26-6.39.61-9.34-1.12-3.34-5.55-6.56-11.15-8.36-17.47-.47-1.64-1-3.07.36-4.46,3.73-.93,7.6.35,11.32-.73l12.65-.29c1.95-1,4.26.58,6.15-.86-2.32-3.71-6.34-5.59-9.29-8.67C797.26,831.09,788,821,777.86,812c-11.06-9.79-21.3-20.38-31.77-30.75-9.4-9.3-19.61-17.76-28.49-27.6-2.24-1.75-5.88,1.27-7.6-2.24s-1.73-8.65-7.17-9.73c-.43-.08-.54-1.75-.8-2.69,1-2.7-.12-5.58.71-8.3.09-2.91.19-5.81.28-8.72.52-1.75.32-4,3-4.29,8.34-1.64,16.43-4.47,24.95-5.19,2-.83,4.21.27,6.18-.75,12.55-2.11,25.13-4.12,37.66-6.35q46.41-8.25,92.77-16.65c13.67-2.45,27.39-4.71,41-7.38,3-.59,4.78.14,7.14,1.81,13.39,9.43,17.47,24.22,23,38.36,4.45,11.42,5.3,23.39,6.91,35.27q2.89,21.34,5.67,42.7c1.81,13.93,3.53,27.88,5.33,41.81,1.86,14.41,3.8,28.8,5.66,43.21,1.8,13.92,3.52,27.86,5.32,41.79,1.87,14.41,3.81,28.8,5.67,43.21q2.7,20.9,5.31,41.8c1.41,11.32,2.75,22.64,4.2,33.95.38,2.93,1.42,5.31,5.08,5.51,1.74.1,3.4,1.29,5.16,1.53,5.32.72,9.77,2.46,11.29,8.29,1.94,1,2.49,3,3.36,4.81,7.19,15,11.22,31,15.5,46.88,1.66,6.17,1.47,12.85,1.84,19.33.86,15.27,1.38,30.57,2.84,45.8.23,2.45.64,4.53,3.52,5.32,5,1.35,6.14.42,5.87-4.74-.33-6.48-1.14-12.92-1.65-19.39-.38-4.83.52-6.48,5.45-7.1,20.79-2.63,41.54-5.57,62.37-7.9,4.14-.46,5.46,1,6.17,6.52,1.16,8.91,2.16,17.84,3.21,26.77.06.49,0,1,.13,1.49,2.49,16.51-.7,12.19,15.29,14.54a41.92,41.92,0,0,0,4.49.17c3.31.13,5.2,1.86,5.91,5,.84,3.74,1.51,7.51,2.28,11.26.72,3.53-.72,5.75-3.83,7.2-1.81.84-3.71,1.47-5.46,2.46-2.51,1.42-2.65,3.59-2,6s2.46,2.92,4.64,2.79l1-.08c11.08-1,11.08-1,13.11,9.85,2,10.47,3.71,21,5.49,31.49.9,5.28,0,6.44-5.21,7.72-3.72.9-7.41,1.95-11.17,2.66-3.27.61-4.31,2.29-3.91,5.61q2.28,18.84,4.72,37.66a9.91,9.91,0,0,1-2.9,9.06c-18.43,18.28-35.63,37.75-54,56.06-1.93,1.92-3.66,5.09-6.79,4.28s-3.14-4.41-3.83-7.07c-1.06-4.06-2.07-7.92-6-10.48-2.18-1.41-2.13-4.44-2.38-6.89-1.47-14.4-3.26-28.77-4.73-43.17-.21-2.08-.07-4,1.4-5.61,4.81-5.38,1-11.07.48-16.6-.15-1.47-1.63-1.21-2.86-.88-5.15,1.37-6.42,3.29-5.55,9.24,3.62,24.88,7.36,49.74,11,74.62q11.91,80.79,23.85,161.59c2.11,14.33,3.89,28.72,6.49,43,2.18,12,1.8,23.67.09,35.68-2.56,17.92-6.44,35.75-5.72,54.06.21,5.32.89,10.6,1.2,15.92.5,8.77-1.09,17-5.48,24.44-10.55,17.93-13.51,38.13-17.58,58-1.4,6.84,5.35,17.36,12.17,19,15.69,3.84,12.17,5.29,22.12-7.34,2.06-2.61,4-5.33,6.28-7.76,3.52-3.77,7.11-3.1,9.45,1.54a9.72,9.72,0,0,1,.61,7.31c-4.35,14.45-2,28.67,1.08,42.92,2.19,10.26,4.18,20.56,6.2,30.86,1.38,7.06,1,7.93-5.25,11-7.49,3.64-14.51,8.17-22.11,11.57-3.85,1.71-4.74,4.35-4.26,8.41q6.51,55.29,12.79,110.6c2.51,21.82,5,43.66,7.7,65.46.59,4.72,1.55,5.81,6,4.59,6.73-1.82,13.74-2.47,20.29-5,5.63-2.2,7.18-1.05,8.8,4.79,2,7.14,3.39,14.1.74,21.46-1,2.92,1,5.76,2.17,8.5a46.94,46.94,0,0,0,3.33,6.06c4.36,7.14,5.9,15.32,8.42,23.13a109,109,0,0,1,7.43,14.27c7.77,18.4,7.36,36.94,2.15,55.8-2.19,7.9-3.73,16-6.58,23.69a33.27,33.27,0,0,1-2.15,4.93c-6.21,10.86-8.75,22.73-9.74,35-.08,1-.44,2.39.06,2.93,4.7,5.12-1.24,8.1-2.29,12-.79,1-1.07,2.34-2.07,3.21Z" transform="translate(-371.26 -71.89)"/><path class="cls-5" d="M1149.58,2107.06a17.85,17.85,0,0,1-2.12-16.32c1.35-3.75.32-6.76-1.17-9.81s.48-7.71-2.75-9.55-5.79,2.48-9.06,2.64c-6.72.32-12.77,3.71-19.49,4.06-3,.16-4.29-.54-4.67-3.93-4.78-42.5-9.75-85-14.67-127.45-2.06-17.86-4-35.72-6.23-53.56-.41-3.34.53-5,3.6-6.51,8.83-4.25,17.41-9,26.23-13.31,2.83-1.38,3.3-2.89,2.73-5.81-3.45-18-7.77-35.74-10.17-53.91-1-7.75.85-14.84,2.21-22.16.55-2.94,1.27-5.8-.64-8.63-2.06-3.07-4.3-3.41-6.62-.48-4.46,5.6-8.88,11.23-13.09,17-1.63,2.24-3.22,3.07-5.82,1.94a12.46,12.46,0,0,0-3.85-1c-9.22-.78-15.55-5.18-19.23-13.91-1.28-3-2.21-5.5-1.43-8.85,2.66-11.5,4.6-23.18,7.57-34.59,2.56-9.84,8-18.6,12.33-27.74a28.49,28.49,0,0,0,3.11-14.84c-.45-5.8-.2-11.66-.68-17.47-1.53-18.48,1.74-36.61,5-54.53,3.24-17.51.82-34.33-1.78-51.43-6-39.31-11.68-78.65-17.5-118q-8.3-56-16.6-112.06c-2-13.49-3.89-27-6-40.47-.42-2.63.58-3.41,2.7-4.33,8.71-3.81,8.68-3.89,10.32,5.26.44,2.46.79,4.93,1.26,7.38.26,1.37.52,2.87-1,3.45-4.41,1.62-3.27,4.86-2.88,8.22,1.75,14.71,3.29,29.44,5,44.15.14,1.25-.32,3.42,1,3.6,6.56.91,5.31,6.72,6.93,10.64a64.6,64.6,0,0,1,2.17,7.55c2.09-.31,2.79-1.77,3.77-2.8q28.15-29.4,56.29-58.82a8.35,8.35,0,0,0,2.57-7.91c-2-13.49-3.44-27.06-5.27-40.58-.36-2.6.92-3.18,2.85-3.6,5-1.1,10-2.28,15.09-3.29,2.6-.53,3.92-1.12,3.26-4.51-2.47-12.73-4.56-25.54-6.6-38.35-.53-3.32-1.88-4.59-5.2-3.93a51.38,51.38,0,0,1-6,.57c-6.68.53-6.52.5-7.45-6.06-.4-2.9.64-4.09,3.11-5.25,9.68-4.53,9.64-4.62,7.52-14.89-1.72-8.33-1.73-8.12-10.06-8.82-4.89-.4-11.33,1.53-14.24-1.77-2.66-3-1.8-9.18-2.4-14-1.29-10.23-2.6-20.47-3.73-30.72-.29-2.62-1.16-3.2-3.77-2.86-20.6,2.72-41.21,5.37-61.85,7.8-4.53.53-6.1,1.74-5.21,6.72,1.34,7.52,1.53,15.23,2.38,22.84.32,2.84-.48,3.3-3.24,2.84-9.18-1.54-9.44-1.4-10.08-10.76-1.26-18.44-2.28-36.9-3.28-55.35a41.81,41.81,0,0,0-1.59-9.3c-4.76-16.61-9.62-33.19-16.83-49,1.62-1.41,3.34-2.73,4.85-4.24q147.72-147.81,295.42-295.65c1.41-1.4,2.92-2.7,4.39-4.05,4.28,12.06,8.94,24,12.68,36.22,2,6.42,1.73,13.59,4.62,19.72,6.21,13.21,6.62,27.49,9,41.46,1.82,10.5-.74,20.68-.26,31,.85,18.36,3.68,36.46,6.43,54.58a149.47,149.47,0,0,1,1.6,18.74,124.5,124.5,0,0,0,2,20.57,10.32,10.32,0,0,1,0,3,309.8,309.8,0,0,0,0,54c.5,6.39-.46,13.14,1.3,19.12,2.85,9.69,1.58,20,5.59,29.41-.15.08-.4.25-.43.22-5.55-5.44-12.45-1.45-18.65-2.5A26.46,26.46,0,0,0,1315,1085c-4.26,2.36-10,2.06-15.18,1.91-16.68-.47-33.42-.27-49.65,3.43-9.83,2.24-19.8,4.23-29.47,7.22-9.18,2.83-18.9,3.89-27.49,8.74-2.64,1.5-5.87.59-8.76-.42-3.37-.94-3.39-3.89-3.46-6.46-.15-5.68-2.64-10.11-6.62-13.91-1.37-1.32-2.8-2.53-4.81-1.78-2.23.83-2.66,2.74-2.5,4.9.72,9.78,1.25,19.56-.35,29.31a5,5,0,0,0,.62,3.36c4.79,8.43,3.7,18.11,5.76,27.12.69,3-1.49,5.76-1,9.18,2.11,16.32,5.16,32.5,7.08,48.85.7,5.93.16,12,1.67,17.84,1.25,4.85,2.81,5.83,7.82,4.74,10.67-11,24-16.9,38.38-21.28a82.1,82.1,0,0,1,38.47-2.25c10.49,1.81,20.86,4.06,30.61,8.73,5.66,2.71,11.09,5.68,15,10.51,6.73,8.36,14.44,16.41,13.65,28.46-.06.82.19,1.66.1,2.49-.22,1.82-.25,4-2.18,4.72-1.66.66-3.21-.53-4.48-1.63a95.1,95.1,0,0,0-13.91-9.69,47,47,0,0,0-18.21-6.35c-5.61-.71-11.07-2.31-16.51-3.69a143.66,143.66,0,0,0-41.48-4.2,208.27,208.27,0,0,0-25.27,2.45c-5,.83-10.1,2.56-15.1,4-2.52.74-5.06-.42-7.59,1.39-5.34,3.84-9.14,8.11-10.44,15a105.13,105.13,0,0,1-5.73,18.58c-2.9,7.46,1.13,13.53,9,13.75a26.55,26.55,0,0,0,10.82-1.51c14.21-5.74,29.11-5,43.86-4.25a164.73,164.73,0,0,1,57.52,13.44c8.11,3.49,15.66,8.08,23.65,11.83,7.39,3.46,8.91,10.76,7.76,19.35-.79,5.85-1.29,11.73-2.66,17.5-.45,1.9,1.38,1.4,2.23,1.91-.6,2.42-2.19,4.15-3.81,6-3,3.3-6.2,6.31-3.73,11.84.69,1.56-1.68,6.15-3,7.41-5.86,5.42-6.63,13.2-10.46,19.45-6.55,10.7-10.77,22.56-16.6,33.64-3.27,6.2-5.26,13.08-7.9,19.63-4.55,11.29-11.26,21.37-18.3,31.16a59.55,59.55,0,0,0-8,15.28c-2.74,7.89-7.94,14.94-9.22,23.23-2.1,13.6-10,24.61-15.15,36.86-3.83,9.2-8.1,18.21-12.1,27.33-.93,2.11-.76,3.9.48,6.29,1.88,3.64.08,7.92-.75,11.72a52.78,52.78,0,0,0-1.37,12.1,18.57,18.57,0,0,1-1.29,8.14,13.8,13.8,0,0,0-.34,9.3c2.43,8.19,1.48,16.7,2.37,25,.76,7.14,3.66,13.82,3.58,21.11,0,4,1.37,8,1.62,12,1.1,18,2.91,35.88,4.91,53.77.7,6.34.22,12.9,1.94,19.05,2.61,9.31,2.44,18.95,3.93,28.38.66,4.13,1.49,8.46,1.19,12.71a84.66,84.66,0,0,0,1.54,21.17c.77,4.24,2.23,8.62,2.77,13.1.06.58.78,1.18.69,1.67-1.13,6.26,1.94,12.12,1.58,18.37s-.93,12.59,1.17,18.62c1.57,4.52-2.26,8.51-.73,12.91,1.35,3.89.43,8.53,1.55,11.86,3.48,10.31-.27,20.67,1.74,30.66.87,4.33.16,8.05.05,12.13a201.82,201.82,0,0,0,1.56,32.93c.83,6-.78,12.14-1.18,18.21-.3,4.57-.59,9.18-.65,13.77-.13,10.49.07,21-.08,31.48-.1,6.42-2.25,13-.78,19.21,2.19,9.32-1.66,18.5.47,27.8.71,3.12-1.59,6.86-4.12,8.9-7.39,5.95-16.24,8-25.58,7.23s-18.35-4.12-27.93-4c-7.88.13-15.11-3.06-22.24-6.06-1.11-.47-2.22-1.21-3.14-.53-1.08.8-.14,2,0,3.12.22,1.69,2.26,4.18-1.76,4.82-1.5.24-.9,2.52-.32,3.89,2.87,6.76,7.14,12.86,9.52,19.86,1.47,4.33,1.57,9.17,4.62,13,0,0-.86.82-1.32,1.25-4.06-7.34-4.49-16.11-9.14-23.22C1151.37,2110.31,1150.51,2108.67,1149.58,2107.06Z" transform="translate(-371.26 -71.89)"/><path class="cls-2" d="M613.41,2335.94c-.5-2.18-2.45-2.63-4.07-3.64-5.75-3.58-11.45-6.36-12-15.2-.37-6,.76-8.1,6-9.6,2.45-.7,2-3.72,2.21-5.89.06-.91-.75-1.88-.71-2.81.69-16.86-2.78-33.65-1.24-50.45.52-5.64,1-11.26,1.22-16.93a33.74,33.74,0,0,0-3.59-16.07c-2.42-4.93-3-9.9-3.51-15.17a161.5,161.5,0,0,0-3.28-20.39c-.54-2.36-1.11-5-.24-6.68,2.57-5,1.48-10,1.33-15.07-.09-3.21,1.21-6.14,2.32-8.79,3.39-8.07,1.64-15.84-.35-23.6-1.1-4.31-.88-7.35,2.07-11.32a11.19,11.19,0,0,1,7.4-5c3.82-1,4.22-5.75,4.76-9.39a49.55,49.55,0,0,0,0-7.61c.65.48,1,.44,1.38-.42,4.48-9.49,9.83-12.28,20.13-9.66,10.83,2.75,21.92,4.17,32.73,7.34,7.64,2.24,16.14,2.13,24.2,3.46,10.1,1.66,20.25,3.14,30.24,5.33,4.71,1,9.45.88,14.13,1.43,23.54,2.76,47.24,2.39,70.91,2.23,7.9-.05,15.8,0,23.7,0,2,0,3.26-.43,3,3a64.29,64.29,0,0,0,.52,9.26,18.33,18.33,0,0,1-2.05,9.34c-3.53,7.73-4.77,16.19-5.94,24.58-.46,3.25-1,6.48-1.44,9.72-.15,1-.7,2.07-.4,2.86,3.39,8.91-.1,16.5-4.49,23.88-4.77,8-7.13,17.14-11.56,25.32-1.62,3-1.52,6.54-.94,9.71,1.86,10.25.17,20.55.88,30.8.31,4.38-2.91,7.32-4.89,10.35-3,4.67-5.39,8.59-3.26,14.41a27.62,27.62,0,0,1,1.08,12.85c-1.06,8.53,2.75,16.53,2.31,25-.07,1.46,0,2.61-1.25,3.14-17,7.06-31.32,19.78-49.68,23.89-10.86,2.42-21.59,5.23-32.33,8.11-9.9,2.65-20.08,1.85-30.25.94-14.56-1.31-29.17-2.1-43.77-3a29.22,29.22,0,0,1-14-4.35C625.39,2338.52,619.06,2338.23,613.41,2335.94Z" transform="translate(-371.26 -71.89)"/><path class="cls-5" d="M818.67,114.93a12,12,0,0,1,9.51-3c11,1.93,20.94-2.63,31.29-4.56,5.94-1.11,11.92-.76,17.82-.39,7.3.47,14.55,1.82,21.81,2.85,1.59.23,3.4.31,4.65,1.14,9.8,6.48,21.59,8.56,31.61,14.68,7.78,4.75,14.53,9.81,19.81,17.66,4.91,7.32,11,14.06,16.58,21a58.35,58.35,0,0,1,3.9,6c12,19,20.68,39.5,24.64,61.52,2.08,11.57,4.41,23.21,5.46,35,.55,6.16,2.25,12.26,1.79,18.48-.24,3.35,2.93,2.3,4.05,4,3.5,5.21,8.48,8,14.94,7.38,3.07-.3,5.13.68,5.92,3.74,2.58,9.93,3.06,20.34,7.07,30,.4,1-.08,2.29-.16,3.45-1.47-1.34-3-2.62-4.4-4Q929.56,224.36,824.17,118.91C822.57,117.32,821.35,115.07,818.67,114.93Z" transform="translate(-371.26 -71.89)"/><path class="cls-5" d="M588.18,1204.54c-18.53,13.55-40.11,14-59,1.37-5.21-3.49-10.5-6.7-15.36-10.87-12.07-10.38-17.22-24.5-22.91-38.47,4.72,2.62,5.65,8,6.94,12.12,3.84,12.25,11.87,21.35,21.28,28.71,11.43,8.93,24,17,39.67,16,8.82-.55,17.41-2.24,24.85-7.6,1.29-.93,2.48-2.31,4.31-2.35.33.18.48.4.45.67S588.27,1204.54,588.18,1204.54Z" transform="translate(-371.26 -71.89)"/><path class="cls-5" d="M484.21,1141.54c-4.67-14.44-6.68-29.26-3.57-44.14,5.08-24.35,13.61-47.52,26.54-68.91-.87,6.09-4.29,11.15-7.22,16.24-5.62,9.75-8.55,20.45-12.26,30.89a110.94,110.94,0,0,0-6.55,44.39,47.7,47.7,0,0,0,1.52,10.27C483.72,1134,484.59,1137.66,484.21,1141.54Z" transform="translate(-371.26 -71.89)"/><path class="cls-5" d="M453.28,1028.53c-11.66,1.46-22.48,5.62-33.1,10.41-2.23,1-4.19,2.77-6.86,2.62,4.65-4.88,11.07-6.81,17-8.66,8.57-2.66,17-6.21,26.21-6.9A3.24,3.24,0,0,1,453.28,1028.53Z" transform="translate(-371.26 -71.89)"/><path class="cls-5" d="M579.15,1222.57c6.63-4.72,12-10.21,12-19.12a.62.62,0,0,1,1,0c0,2.45.28,5-1,7.21-1.37,2.5.09,3.71,1.93,4.85-3.79.23-3.94,4.15-6.11,6-1.06.93-1.27,3.28-3.56,2-.79.31-1,1.22-1.73,1.6-1.32.73-2.88,2.59-4.16,1.26C576,1224.86,578.6,1223.91,579.15,1222.57Z" transform="translate(-371.26 -71.89)"/><path class="cls-5" d="M441.53,1086.59a19.72,19.72,0,0,1-2.89,7.72c-3.58-12.45-5-24.52-2.37-36.87.17,8.54-.62,17.15,1.17,25.58C437.77,1084.55,436.12,1090.18,441.53,1086.59Z" transform="translate(-371.26 -71.89)"/><path class="cls-5" d="M588.09,1327.3c-2.65-3.91-.38-8.15.45-11.55,2.42-9.8,1.3-19.23-.31-28.81a1.35,1.35,0,0,1,.83-1.59c1.59,9.9,3.13,19.76.69,29.8C588.8,1319.1,588.62,1323.24,588.09,1327.3Z" transform="translate(-371.26 -71.89)"/><path class="cls-5" d="M540.16,1964.11c.26-13.18,1.8-26.26,2.86-39.38.9,13.17-2,26.14-2,39.27,0,.09-.22.23-.34.24A1.23,1.23,0,0,1,540.16,1964.11Z" transform="translate(-371.26 -71.89)"/><path class="cls-5" d="M602.28,2085.1a7.13,7.13,0,0,1-7,.28c-7.26-4.07-15.51-2.57-23.11-4.53,4.13-1.85,8,.94,12,.67C590.54,2081.08,595.89,2085.71,602.28,2085.1Z" transform="translate(-371.26 -71.89)"/><path class="cls-5" d="M551.19,1864.13c2-2.86.76-6.09,1-9.15.52-5.39-1-10.87.77-16.21,0,7.15.11,14.3.11,21.45C553.12,1861.79,553.66,1863.74,551.19,1864.13Z" transform="translate(-371.26 -71.89)"/><path class="cls-5" d="M576.22,1553.27a68.4,68.4,0,0,0-.11-20C579.15,1539.92,578.91,1546.59,576.22,1553.27Z" transform="translate(-371.26 -71.89)"/><path class="cls-5" d="M555.29,1815.16c2-3.93.53-8.12,1-12.17s-.83-8.21.76-12.2c0,6.8.12,13.6.11,20.39C557.11,1812.72,557.72,1814.68,555.29,1815.16Z" transform="translate(-371.26 -71.89)"/><path class="cls-5" d="M574.07,1575.28c1-7-1-14.23,2.15-21,1.33,1.27,1,2.74.29,4.08a12.56,12.56,0,0,0-.82,10C576.49,1571.06,575.63,1573.24,574.07,1575.28Z" transform="translate(-371.26 -71.89)"/><path class="cls-5" d="M565.18,1712.21c2.09-3.53.62-7.39,1.05-11.08.47-4-.92-8.13.84-12,0,6.26.08,12.51,0,18.77C567.07,1709.49,567.91,1711.69,565.18,1712.21Z" transform="translate(-371.26 -71.89)"/><path class="cls-5" d="M523,1989c1.12-3.79,4.45-5.1,7.57-4.92s4.74-1.49,6.5-3.36c-.62,2.9-2.06,4.84-5.38,4.38C527.91,1984.55,525.8,1987.55,523,1989Z" transform="translate(-371.26 -71.89)"/><path class="cls-5" d="M591.75,1381.26c1-6.94.16-13.92.45-20.87C593.38,1367.38,594.24,1374.36,591.75,1381.26Z" transform="translate(-371.26 -71.89)"/><path class="cls-5" d="M537,2040.43c-1.5-6.35-3.15-12.68-3.15-19.28.26.19.76.38.76.56C534.45,2028.08,537.79,2034,537,2040.43Z" transform="translate(-371.26 -71.89)"/><path class="cls-5" d="M511.19,1019.4c-4.76-4.68-9.9-1.85-14.95-.74C502.49,1014.08,508.32,1014.37,511.19,1019.4Z" transform="translate(-371.26 -71.89)"/><path class="cls-5" d="M570.13,1606.32c2.74-4.41,1.92-9.3,1.91-14.08C574.13,1597.51,573.24,1604.12,570.13,1606.32Z" transform="translate(-371.26 -71.89)"/><path class="cls-5" d="M559.18,1770.18c2.09-3.55.59-7.44,1.07-11.14.27-2.07-.72-4.3.74-6.23,0,4.49.13,9,.12,13.46C561.1,1767.84,561.65,1769.78,559.18,1770.18Z" transform="translate(-371.26 -71.89)"/><path class="cls-5" d="M567.3,1683.2c-1-3.28.38-6.32.86-9.47a8.58,8.58,0,0,0-.49-5.39c1.92.73,1.56,2.44,1.39,3.8C568.6,1675.85,567.9,1679.52,567.3,1683.2Z" transform="translate(-371.26 -71.89)"/><path class="cls-5" d="M460.35,1045.56q-3,5.57-6,11.12C455.34,1052.42,456.17,1048.08,460.35,1045.56Z" transform="translate(-371.26 -71.89)"/><path class="cls-5" d="M564.13,1728.22c.65-5.11-.83-10.34.86-15.39q0,7.64,0,15.28c0,.09-.22.23-.34.24A1.19,1.19,0,0,1,564.13,1728.22Z" transform="translate(-371.26 -71.89)"/><path class="cls-5" d="M445.47,1074.56c-1,4.15-1.78,8.39-4,12.12C442,1082.38,442.21,1078,445.47,1074.56Z" transform="translate(-371.26 -71.89)"/><path class="cls-5" d="M547.6,1896c1.89-5-.64-10.43,1.41-15.42,0,3.91.12,7.82.11,11.73C549.12,1893.72,549.53,1895.37,547.6,1896Z" transform="translate(-371.26 -71.89)"/><path class="cls-5" d="M545.3,1911.11c1.76-3,.63-6.27,1-9.4.19-1.71-.59-3.57.74-5.11,0,3.55.13,7.11.12,10.66C547.12,1908.78,547.66,1910.67,545.3,1911.11Z" transform="translate(-371.26 -71.89)"/><path class="cls-5" d="M479.35,1024.61l-8.1,7A9.61,9.61,0,0,1,479.35,1024.61Z" transform="translate(-371.26 -71.89)"/><path class="cls-5" d="M567,1646.61a26.78,26.78,0,0,1,0-13.74Z" transform="translate(-371.26 -71.89)"/><path class="cls-5" d="M496.32,1018.61a33.89,33.89,0,0,1-11.12,3A17.7,17.7,0,0,1,496.32,1018.61Z" transform="translate(-371.26 -71.89)"/><path class="cls-5" d="M591,1344.76c-1.9-3.94.23-8.28-1.2-12.27C592.63,1336.34,590.45,1340.68,591,1344.76Z" transform="translate(-371.26 -71.89)"/><path class="cls-5" d="M470.32,1032.51c-1,3.19-3.95,4.79-6,7.13C464.88,1036.05,467.86,1034.5,470.32,1032.51Z" transform="translate(-371.26 -71.89)"/><path class="cls-5" d="M449.38,1065.49c-.56,3.39-2.24,6.29-4,9.17C445.36,1071,447.15,1068.15,449.38,1065.49Z" transform="translate(-371.26 -71.89)"/><path class="cls-5" d="M907.31,1399.25c4.2-1.55,8.39-.91,12.59,0Z" transform="translate(-371.26 -71.89)"/><path class="cls-5" d="M592,1261.4q1-5.16,2-10.33C594.24,1254.69,594.09,1258.23,592,1261.4Z" transform="translate(-371.26 -71.89)"/><path class="cls-5" d="M550.15,1875.15c.42-3.45-.71-7,.86-10.39,0,3.43,0,6.86-.06,10.29,0,.08-.21.22-.34.24A1.35,1.35,0,0,1,550.15,1875.15Z" transform="translate(-371.26 -71.89)"/><path class="cls-5" d="M797.17,850.72c-3.71,1.13-7.53.72-11.32.73C789.53,849.75,793.4,850.92,797.17,850.72Z" transform="translate(-371.26 -71.89)"/><path class="cls-5" d="M408.15,1047.52a11.8,11.8,0,0,1-4.65,4.92c0-1-.05-2-.08-2.93Z" transform="translate(-371.26 -71.89)"/><path class="cls-5" d="M950.69,1194.1c.67,3.83,1.74,7.66-.06,11.48Z" transform="translate(-371.26 -71.89)"/><path class="cls-5" d="M830.65,1165.81c-1.08-3.71-.77-7.51-.71-11.3C831.6,1158.19,830.45,1162,830.65,1165.81Z" transform="translate(-371.26 -71.89)"/><path class="cls-5" d="M836.65,1218.79c-1-3.73-.74-7.53-.74-11.31C837.61,1211.15,836.44,1215,836.65,1218.79Z" transform="translate(-371.26 -71.89)"/><path class="cls-5" d="M596,1234.5c-2-2.77.42-6.45-1.94-9.13,2.61-.1,1.89,1.88,1.95,3.26C596.14,1230.58,596.05,1232.54,596,1234.5Z" transform="translate(-371.26 -71.89)"/><path class="cls-5" d="M596,1245.44l0-11A12.48,12.48,0,0,1,596,1245.44Z" transform="translate(-371.26 -71.89)"/><path class="cls-5" d="M837.71,1247.52c-1.62-3.59-.68-7.36-.78-11C838.67,1240.05,837.34,1243.85,837.71,1247.52Z" transform="translate(-371.26 -71.89)"/><path class="cls-5" d="M454.46,1056.6c-1,2.57-1.88,5.2-4.19,7C451.06,1060.88,451.6,1058,454.46,1056.6Z" transform="translate(-371.26 -71.89)"/><path class="cls-5" d="M589.74,1403.25c1.37-3.36-.64-7.11,1.21-10.41C590.51,1396.3,592.56,1400.06,589.74,1403.25Z" transform="translate(-371.26 -71.89)"/><path class="cls-5" d="M561.79,1751.09c1.35-3.32-.68-7,1.2-10.27C562.58,1744.24,564.56,1747.94,561.79,1751.09Z" transform="translate(-371.26 -71.89)"/><path class="cls-5" d="M585.11,1420.35l1.22-9C588,1414.65,586.85,1417.54,585.11,1420.35Z" transform="translate(-371.26 -71.89)"/><path class="cls-5" d="M543.81,1923c1.36-3.31-.67-7,1.21-10.27C544.6,1916.16,546.58,1919.86,543.81,1923Z" transform="translate(-371.26 -71.89)"/><path class="cls-6" d="M592.08,1203.45l-.49,0-.48,0-2.93,1.09-.27-1.1,2.17-2c1.17-.38,2.68-1.72,2.76,1Z" transform="translate(-371.26 -71.89)"/><path class="cls-5" d="M567.17,1632.24c2.39-2.77-.17-6.51,1.81-9.37C568.34,1626,571,1629.75,567.17,1632.24Z" transform="translate(-371.26 -71.89)"/><path class="cls-5" d="M589.1,1268.65c1.27-.07,2.19-.34,2.13-2s-.35-3.67.81-5.29c0,2,.12,4,0,5.92S590.88,1269.89,589.1,1268.65Z" transform="translate(-371.26 -71.89)"/><path class="cls-5" d="M579.16,1476.32c2.39-2.78-.18-6.52,1.81-9.37C580.32,1470.06,583,1473.82,579.16,1476.32Z" transform="translate(-371.26 -71.89)"/><path class="cls-5" d="M464.38,1039.57a13.93,13.93,0,0,1-4.06,6C460.64,1042.9,461.79,1040.75,464.38,1039.57Z" transform="translate(-371.26 -71.89)"/><path class="cls-5" d="M531,2012.58c-1.56-2.71-.37-5.71-.87-8.53C532.28,2006.71,530.72,2009.74,531,2012.58Z" transform="translate(-371.26 -71.89)"/><path class="cls-5" d="M710,751.43c1.89,2.93,5.44.19,7.6,2.24C715.13,752.69,711.43,755.91,710,751.43Z" transform="translate(-371.26 -71.89)"/><path class="cls-5" d="M583.12,1428.34c1.18-2.53-2.22-6.2,2-8C583.12,1422.69,585.22,1426,583.12,1428.34Z" transform="translate(-371.26 -71.89)"/><path class="cls-5" d="M592.84,1202.41c-.51-1.47-1.76-.85-2.76-1,.8-1.1,1.38-3,3.12-2.06C594.42,1200.07,594.49,1201.57,592.84,1202.41Z" transform="translate(-371.26 -71.89)"/><path class="cls-5" d="M793.85,873.38l9.33,1.12C800.08,874.12,796.72,875.83,793.85,873.38Z" transform="translate(-371.26 -71.89)"/><path class="cls-5" d="M534,2021.32c-1.72-.22-2-1.27-1.84-2.82.15-1.78.47-3.64-.56-5.32C534.69,2015.23,532.2,2018.91,534,2021.32Z" transform="translate(-371.26 -71.89)"/><path class="cls-5" d="M575.74,1512.19c1.5-2.26.93-4.87,1.2-7.33C578.24,1507.58,579,1510.22,575.74,1512.19Z" transform="translate(-371.26 -71.89)"/><path class="cls-5" d="M702.74,730.71c.07,2.79.33,5.6-.71,8.3C702.21,736.24,701.11,733.36,702.74,730.71Z" transform="translate(-371.26 -71.89)"/><path class="cls-5" d="M571.09,2080.84c-2.59.25-5.1.2-7.15-1.74A17.23,17.23,0,0,1,571.09,2080.84Z" transform="translate(-371.26 -71.89)"/><path class="cls-5" d="M528.06,2000.39c-2.27-.69-3.45-2.7-5.06-4.19C525.78,1996.27,527.1,1998.11,528.06,2000.39Z" transform="translate(-371.26 -71.89)"/><path class="cls-5" d="M591.55,1392.24a8.06,8.06,0,0,0,0-6.76Q595,1388.86,591.55,1392.24Z" transform="translate(-371.26 -71.89)"/><path class="cls-5" d="M572.24,1584.25c.3-2.49-.81-5.11.72-7.48C572.83,1579.27,573.93,1581.9,572.24,1584.25Z" transform="translate(-371.26 -71.89)"/><path class="cls-5" d="M816,849.57c-1.82,2-4.1.61-6.15.86C811.69,848.91,813.93,849.93,816,849.57Z" transform="translate(-371.26 -71.89)"/><path class="cls-5" d="M927.66,1399.55c2.46-.08,5-.32,7.31.7C932.53,1400.09,930,1401.12,927.66,1399.55Z" transform="translate(-371.26 -71.89)"/><path class="cls-5" d="M949.68,1177.17c1.3,2.31.75,4.81.73,7.25C948.81,1182.14,949.86,1179.59,949.68,1177.17Z" transform="translate(-371.26 -71.89)"/><path class="cls-5" d="M835.65,1200.77c-1-2.35-.8-4.82-.71-7.28C836.5,1195.79,835.48,1198.34,835.65,1200.77Z" transform="translate(-371.26 -71.89)"/><path class="cls-5" d="M523.06,1996.23a7.83,7.83,0,0,1,0-7.32Q523.05,1992.57,523.06,1996.23Z" transform="translate(-371.26 -71.89)"/><path class="cls-5" d="M539,2048.57c-1.56-1.92,0-4.66-1.71-6.52C540.77,2043.46,538.56,2046.36,539,2048.57Z" transform="translate(-371.26 -71.89)"/><path class="cls-5" d="M611,2090.79c-3.16-.3-3.46-.88-1.95-3.75C609.68,2088.32,609.27,2090.12,611,2090.79Z" transform="translate(-371.26 -71.89)"/><path class="cls-5" d="M703,592.92a5.24,5.24,0,0,1,3.9-1.91C705.89,592.26,704.87,593.48,703,592.92Z" transform="translate(-371.26 -71.89)"/><path class="cls-5" d="M737.1,711.76c-2,1.16-4.08.8-6.18.75C732.83,711,735,711.92,737.1,711.76Z" transform="translate(-371.26 -71.89)"/><path class="cls-5" d="M559,1777.67a7.24,7.24,0,0,1,0-6.87Z" transform="translate(-371.26 -71.89)"/><path class="cls-5" d="M706,717.7c-2.16.61-2.34,2.6-3,4.29C702.88,719.78,702.48,717.4,706,717.7Z" transform="translate(-371.26 -71.89)"/><path class="cls-5" d="M827.86,947.17c.88,1.25,0,3.87,2.86,3.54C826,952.59,828.39,948.69,827.86,947.17Z" transform="translate(-371.26 -71.89)"/><path class="cls-5" d="M1005.58,1837.94c1,2,.88,4.07.78,6.17C1004.8,1842.22,1005.76,1840,1005.58,1837.94Z" transform="translate(-371.26 -71.89)"/><path class="cls-5" d="M559,2076.28c-2.4.29-2.91-1.89-4.11-3.16C557,2073.18,558,2074.82,559,2076.28Z" transform="translate(-371.26 -71.89)"/><path class="cls-5" d="M488.19,1150.57a12.57,12.57,0,0,1-2.31-5C488,1146.6,488.21,1148.54,488.19,1150.57Z" transform="translate(-371.26 -71.89)"/><path class="cls-5" d="M609.08,2086c-1.33-.47-3.21,1.42-4.09-1C606.33,2085.49,608.14,2083.89,609.08,2086Z" transform="translate(-371.26 -71.89)"/><path class="cls-5" d="M588.07,1272.44c-.39-1.62-2.51-2.63-1.67-4.68,0,0,.3,0,.42,0a1.31,1.31,0,0,1,.34.36Z" transform="translate(-371.26 -71.89)"/><path class="cls-5" d="M589,1279c-1.16-2.06-.55-4.37-.94-6.55C590,1274.38,588.75,1276.78,589,1279Z" transform="translate(-371.26 -71.89)"/><path class="cls-5" d="M687.62,1466.23c1.66-1,4-.11,5.33-1.86C692.1,1467.63,689.5,1465.89,687.62,1466.23Z" transform="translate(-371.26 -71.89)"/><path class="cls-5" d="M577.86,1483.24c1-2-.54-4.43,1.11-6.3C578.73,1479.06,580.15,1481.48,577.86,1483.24Z" transform="translate(-371.26 -71.89)"/><path class="cls-5" d="M572.23,1591.25c.46-1.73-2.91-3.33-.18-5.14C571.84,1587.83,574.19,1589.46,572.23,1591.25Z" transform="translate(-371.26 -71.89)"/><path class="cls-5" d="M996.63,1748.82c1,1.68.84,3.51.73,5.33C995.91,1752.54,996.71,1750.62,996.63,1748.82Z" transform="translate(-371.26 -71.89)"/><path class="cls-5" d="M978.62,1512.1a8.85,8.85,0,0,1,.76,5.17C978,1515.72,978.73,1513.84,978.62,1512.1Z" transform="translate(-371.26 -71.89)"/><path class="cls-5" d="M997.63,1758.81c1,1.68.84,3.51.73,5.34C996.91,1762.53,997.71,1760.61,997.63,1758.81Z" transform="translate(-371.26 -71.89)"/><path class="cls-5" d="M998.63,1768.79c1,1.68.84,3.52.73,5.36C997.91,1772.52,998.71,1770.6,998.63,1768.79Z" transform="translate(-371.26 -71.89)"/><path class="cls-5" d="M979.64,1521a9,9,0,0,1,.76,5.25C978.93,1524.69,979.73,1522.79,979.64,1521Z" transform="translate(-371.26 -71.89)"/><path class="cls-5" d="M999.63,1778.78c1,1.69.84,3.53.73,5.36C998.9,1782.52,999.71,1780.59,999.63,1778.78Z" transform="translate(-371.26 -71.89)"/><path class="cls-5" d="M1000.63,1788.77c1,1.69.84,3.53.73,5.37C999.9,1792.51,1000.71,1790.58,1000.63,1788.77Z" transform="translate(-371.26 -71.89)"/><path class="cls-5" d="M971.62,1451.13a8.94,8.94,0,0,1,.77,5.17C971,1454.75,971.74,1452.87,971.62,1451.13Z" transform="translate(-371.26 -71.89)"/><path class="cls-5" d="M1001.63,1798.75c1,1.7.84,3.54.73,5.38C1000.9,1802.5,1001.71,1800.57,1001.63,1798.75Z" transform="translate(-371.26 -71.89)"/><path class="cls-5" d="M1002.63,1808.74c1,1.7.84,3.54.73,5.39C1001.89,1812.5,1002.71,1810.56,1002.63,1808.74Z" transform="translate(-371.26 -71.89)"/><path class="cls-5" d="M982.62,1547a8.76,8.76,0,0,1,.76,5.21C981.94,1550.69,982.73,1548.8,982.62,1547Z" transform="translate(-371.26 -71.89)"/><path class="cls-5" d="M1004.62,1828.72c1,1.7.84,3.55.74,5.4C1003.89,1832.49,1004.71,1830.54,1004.62,1828.72Z" transform="translate(-371.26 -71.89)"/><path class="cls-5" d="M582.12,1444.4c.62-1.13,1.24-2.27,1.87-3.4C583.74,1442.34,585,1444.53,582.12,1444.4Z" transform="translate(-371.26 -71.89)"/><path class="cls-5" d="M985.61,1573.05a8.85,8.85,0,0,1,.76,5.19C984.94,1576.69,985.72,1574.8,985.61,1573.05Z" transform="translate(-371.26 -71.89)"/><path class="cls-5" d="M1006.58,1847.93a9.09,9.09,0,0,1,.72,5.17C1005.93,1851.53,1006.69,1849.67,1006.58,1847.93Z" transform="translate(-371.26 -71.89)"/><path class="cls-5" d="M1007.58,1857.92a9.13,9.13,0,0,1,.73,5.18C1006.93,1861.53,1007.69,1859.67,1007.58,1857.92Z" transform="translate(-371.26 -71.89)"/><path class="cls-5" d="M968.63,1425.12a8.84,8.84,0,0,1,.77,5.19C968,1428.75,968.75,1426.87,968.63,1425.12Z" transform="translate(-371.26 -71.89)"/><path class="cls-5" d="M1008.58,1867.9a9.17,9.17,0,0,1,.73,5.19C1007.92,1871.52,1008.68,1869.65,1008.58,1867.9Z" transform="translate(-371.26 -71.89)"/><path class="cls-5" d="M1009.58,1877.9a5.22,5.22,0,0,0,3,3.2C1010.16,1881.37,1009.24,1880.23,1009.58,1877.9Z" transform="translate(-371.26 -71.89)"/><path class="cls-5" d="M975.63,1486.08a8.88,8.88,0,0,1,.76,5.2C975,1489.72,975.74,1487.84,975.63,1486.08Z" transform="translate(-371.26 -71.89)"/><path class="cls-5" d="M1049.52,1895.92a8.78,8.78,0,0,1,.78,5.17C1048.85,1899.55,1049.64,1897.66,1049.52,1895.92Z" transform="translate(-371.26 -71.89)"/><path class="cls-5" d="M587.09,1409.37c.51-1.35-.63-3.07.93-4.19C587.61,1406.55,589.22,1408.38,587.09,1409.37Z" transform="translate(-371.26 -71.89)"/><path class="cls-5" d="M988.6,1599.07a8.88,8.88,0,0,1,.77,5.15C987.94,1602.68,988.72,1600.81,988.6,1599.07Z" transform="translate(-371.26 -71.89)"/><path class="cls-5" d="M989.62,1608a8.91,8.91,0,0,1,.76,5.23C988.92,1611.66,989.72,1609.76,989.62,1608Z" transform="translate(-371.26 -71.89)"/><path class="cls-5" d="M1055.51,1944.9a8.68,8.68,0,0,1,.78,5.16C1054.84,1948.53,1055.63,1946.65,1055.51,1944.9Z" transform="translate(-371.26 -71.89)"/><path class="cls-5" d="M908.61,1982.18a3.53,3.53,0,0,1,0-5.2Z" transform="translate(-371.26 -71.89)"/><path class="cls-5" d="M1061.5,1993.88a8.67,8.67,0,0,1,.78,5.16C1060.83,1997.5,1061.62,1995.62,1061.5,1993.88Z" transform="translate(-371.26 -71.89)"/><path class="cls-5" d="M986.63,1648.93a9.18,9.18,0,0,1,.73,5.27C985.94,1652.6,986.71,1650.71,986.63,1648.93Z" transform="translate(-371.26 -71.89)"/><path class="cls-5" d="M449.46,1033.53a6.64,6.64,0,0,1,2.77-3.11A2.75,2.75,0,0,1,449.46,1033.53Z" transform="translate(-371.26 -71.89)"/><path class="cls-5" d="M987.63,1658.92a9.21,9.21,0,0,1,.73,5.28C986.94,1662.6,987.71,1660.7,987.63,1658.92Z" transform="translate(-371.26 -71.89)"/><path class="cls-7" d="M886.54,1145.61l-.92.9a3.06,3.06,0,0,1-.68-3.39A3.32,3.32,0,0,1,886.54,1145.61Z" transform="translate(-371.26 -71.89)"/><path class="cls-5" d="M910.36,2038.16c.09-1.42,0-2.91,1.28-3.93C911.53,2035.65,912.07,2037.27,910.36,2038.16Z" transform="translate(-371.26 -71.89)"/><path class="cls-5" d="M988.63,1668.91c1,1.66.84,3.47.73,5.28C987.94,1672.59,988.71,1670.69,988.63,1668.91Z" transform="translate(-371.26 -71.89)"/><path class="cls-5" d="M913.62,2055.09c-1.19-1.37-2.77-2.74,0-4.13C913.61,2052.34,913.61,2053.72,913.62,2055.09Z" transform="translate(-371.26 -71.89)"/><path class="cls-5" d="M989.63,1678.9c1,1.66.84,3.48.73,5.29C988.93,1682.59,989.71,1680.68,989.63,1678.9Z" transform="translate(-371.26 -71.89)"/><path class="cls-5" d="M483.47,1022.62a8.22,8.22,0,0,1-4.19,2C480,1022.57,481.65,1022.44,483.47,1022.62Z" transform="translate(-371.26 -71.89)"/><path class="cls-5" d="M563,2078.29c-1.54-.36-3.18-.54-4.11-2.1C560.67,2076.14,562.17,2076.59,563,2078.29Z" transform="translate(-371.26 -71.89)"/><path class="cls-5" d="M990.63,1688.89c1,1.67.84,3.48.73,5.29C989.93,1692.58,990.71,1690.68,990.63,1688.89Z" transform="translate(-371.26 -71.89)"/><path class="cls-5" d="M991.63,1698.87c1,1.67.84,3.49.73,5.31C990.93,1702.57,991.71,1700.66,991.63,1698.87Z" transform="translate(-371.26 -71.89)"/><path class="cls-5" d="M992.63,1708.87c1,1.67.84,3.49.73,5.3C991.92,1712.57,992.71,1710.66,992.63,1708.87Z" transform="translate(-371.26 -71.89)"/><path class="cls-5" d="M857.72,982.75c1.22,1.42.86,3.13.83,4.77C857.15,986.13,857.91,984.35,857.72,982.75Z" transform="translate(-371.26 -71.89)"/><path class="cls-5" d="M995.83,2099.12c-1.64,1.08-3.41.61-5.15.44C992.33,2098.59,994.1,2099.15,995.83,2099.12Z" transform="translate(-371.26 -71.89)"/><path class="cls-5" d="M993.63,1718.85c1,1.68.84,3.5.73,5.32C992.92,1722.56,993.71,1720.65,993.63,1718.85Z" transform="translate(-371.26 -71.89)"/><path class="cls-5" d="M994.63,1728.84c1,1.68.84,3.5.73,5.32C993.92,1732.55,994.71,1730.64,994.63,1728.84Z" transform="translate(-371.26 -71.89)"/><path class="cls-5" d="M995.63,1738.84c1,1.67.84,3.5.73,5.32C994.92,1742.55,995.71,1740.63,995.63,1738.84Z" transform="translate(-371.26 -71.89)"/><path class="cls-5" d="M972.64,1460.06a8.82,8.82,0,0,1,.76,5.23C972,1463.72,972.74,1461.83,972.64,1460.06Z" transform="translate(-371.26 -71.89)"/><path class="cls-5" d="M1003.62,1818.73c1,1.7.85,3.55.74,5.39C1002.89,1822.49,1003.71,1820.55,1003.62,1818.73Z" transform="translate(-371.26 -71.89)"/><path class="cls-2" d="M1184,1104.7c6.72,3.11,12-1.71,17.71-3.46,12.75-3.87,25.84-6.37,38.66-9.89,6.37-1.76,12.78-2.65,19.2-3.89,13-2.49,26-1.73,39.08-2,5.1-.1,10.19-.54,15.26-1,2.56-.23,3.26-3.78,6.1-3.77,5.8,0,11.62-.17,17.41.17,2.75.16,5.37,2.34,7.39-1.77.67-1.37,3-.39,4.31,1.48.9,1.28-.2,4.14,2.75,3.91,3.65,11.43,6,23,6,35.15,0,3.6,1,7.22,0,10.85a29,29,0,0,0,0,11l1.14,4a3.57,3.57,0,0,1,.27,3.32c-1.92,4-.14,6.91,2.41,9.71.85,2.17,3.8,2.56,4.27,5.06,2.42,2.25.72,5.51,2,8a88.65,88.65,0,0,0,4.89,15.75,3,3,0,0,0,2.85,2.3,196.4,196.4,0,0,0,.26,22.76,23,23,0,0,1-1.16,9.23c-1.59,3.47-3.5,6.82-4.7,10.41-3.22,9.61-5.27,19.62-10.8,28.36-3.29,5.21-5.09,11.17-8.38,16.48-1.81,2.91-4.45,4.46-6.45,6.86-1.73,2.08-3.13,3.86-2.83,7,.28,2.84-.7,5.64-2,8.47-3.92,8.41-6.06,17.47-8.43,26.44-1.59,6-2.77,12.66-9.32,15.7-3.2,1.49-3.42,5.08-5.83,7-1.39,1-2.62,3.31-4.52,1.62-1.47-1.29.64-2.48,1.08-3.75,1.31-3.78.61-8.15,3.31-11.55-5-4.51,2.27-8.78.27-13.45-.87-2-.46-4.53-3.49-5-.75-.13-2-.86-2-1.26.26-5.47-4.75-4.9-7.59-6.49-10.63-5.93-21.46-11.39-33.16-15.1a177.81,177.81,0,0,0-31.44-6.82c-9.7-1.24-19.53-1.3-29.35-1.34-10.06,0-19.37,2.87-28.77,5.68-4.07,1.21-8.29.92-12.32.36-4.58-.64-7.87-9.34-6-14.17a159.38,159.38,0,0,0,7.3-24.16c.63-2.91,1.9-5.8,5-7.51a42.16,42.16,0,0,0,6.57-5.13c1.26-1.08,1.82-2.2,2.47.64.44,1.94,2.35,0,3.2-.45,2-1.21,3.81-2.63,6.35-1.07a2.31,2.31,0,0,0,2.74-.68c5.28-5.72,12.54-2.71,18.76-3.87a111.92,111.92,0,0,1,23.21-1.4c10.2.25,20.1,2,30.09,3.88,7.28,1.39,14.41,3.43,21.8,4.54,8.15,1.23,15.56,5.61,22.29,10.62,3.51,2.61,6.94,5.32,11,8.49.71-9.88.75-18.13-6-26-4.4-5.17-7.82-11-13.59-15.07-9-6.38-19.33-8.88-29.74-11.55-22.08-5.65-43.06-2.28-63.46,6.92-8.07,3.64-14.91,9-21.2,15.19-1.29-1.65-.91-3.46-.5-5.25,2.31-10,2.86-20.06,0-30.1a16.68,16.68,0,0,1-.44-7.43c2.09-11.92-.29-23.59-2.47-35.14-1.1-5.81.74-11.21.27-16.82-.2-2.4-.37-4.38-2.27-6.23-3.36-3.25-2.36-7.89-2.57-11.87C1180.8,1113.16,1181.18,1108.53,1184,1104.7Z" transform="translate(-371.26 -71.89)"/><path class="cls-8" d="M1361.78,1158.47c-4.43-1.56-6-4.44-3.76-8.77a10.25,10.25,0,0,0,1.08-4.26C1361.12,1149.55,1363.11,1153.67,1361.78,1158.47Z" transform="translate(-371.26 -71.89)"/><path class="cls-1" d="M1358,1141.48a13.73,13.73,0,0,1,0-11C1358,1134.15,1358,1137.82,1358,1141.48Z" transform="translate(-371.26 -71.89)"/><path class="cls-9" d="M1368,1171.58c-1.71-2.43-.81-5.49-2-8C1369.66,1165.49,1367.4,1168.88,1368,1171.58Z" transform="translate(-371.26 -71.89)"/><path class="cls-10" d="M579.15,1222.57c-.44,1.12-.88,2.23-1.35,3.44,2.42.23,3.54-2.17,5.59-2.44-1.95,5.31-7.55,4.76-11.37,6.06a72.52,72.52,0,0,1-24.85,3.88.73.73,0,0,1-.3-.75c.08-.26.16-.4.25-.4,1.47-1.6,3.47-1.72,5.44-2,6.38-1,12.76-2,19.14-3C574.9,1226.8,576.64,1224.1,579.15,1222.57Z" transform="translate(-371.26 -71.89)"/><path class="cls-11" d="M465.07,1260.49c8.05-1.87,16.11-1.57,24.18-.12-6.37,1.79-12.83.81-19.27.7-1.53-.47-3.18.24-4.67-.51Z" transform="translate(-371.26 -71.89)"/><path class="cls-12" d="M547.12,1232.36c0,.39,0,.77,0,1.15-.69.59-1.95,1.15-2,1.75-.15,4.53-2.68,3.18-5.1,2.23A10.48,10.48,0,0,1,547.12,1232.36Z" transform="translate(-371.26 -71.89)"/><path class="cls-2" d="M465.31,1260.56c1.58,0,3.23-.65,4.67.51C468.38,1261.29,466.76,1261.67,465.31,1260.56Z" transform="translate(-371.26 -71.89)"/><path class="cls-13" d="M1148.28,2287a3.13,3.13,0,0,1,2.07-3.21C1150.62,2285.49,1150.09,2286.66,1148.28,2287Z" transform="translate(-371.26 -71.89)"/><path class="cls-14" d="M952.74,2267.92a3.77,3.77,0,0,1,0,5Z" transform="translate(-371.26 -71.89)"/><path class="cls-15" d="M379.41,1188.06c-.47-1.93-1.17-3.24,0-3.74s.87.87.87,1.52A9.47,9.47,0,0,1,379.41,1188.06Z" transform="translate(-371.26 -71.89)"/><path class="cls-16" d="M376.23,1181.66c.27-.61,0-1.92,1.31-1.29a1.59,1.59,0,0,1,.62,2.13l-1.93-.89Z" transform="translate(-371.26 -71.89)"/><path class="cls-1" d="M1149.58,2107.06c1.75,1.14,3,2.57,2.75,4.83A4.46,4.46,0,0,1,1149.58,2107.06Z" transform="translate(-371.26 -71.89)"/><path d="M1184,1104.7a51,51,0,0,0-1.09,21.14c.14.81.09,2.15.53,2.34,8.08,3.54,2.28,10.18,3,15.2.25,1.77-.59,4.56-.11,6.76,2.12,9.68,4.35,19.61,3.31,29.31-1.12,10.35,2.07,20,2,30,0,4.63.06,9.55-1.61,14.12a14,14,0,0,0-1,6.79c-4.7,2-8.79-.56-9.94-5.54-1.44-6.26-.21-12.68-1.7-18.91-2.11-8.82-2-17.84-2.49-26.84-.23-4.34-4.08-8.18-4.07-13.15,0-4,1.68-8.26-1.59-11.81,6-8.18-1.25-16.32-.06-24.48a.94.94,0,0,0,0-.5c-1.86-5.23-5.12-9.71-3.31-16.27,1.58-5.72.36-12.23.31-18.38,0-1.63.4-3.32-.43-4.9-1.9-3.66.11-6.4,2.93-7.77,3.28-1.6,5.7.81,7.95,3.29,4.78,5.26,6.25,11.56,6.11,18.33C1182.67,1105,1183.58,1104.33,1184,1104.7Z" transform="translate(-371.26 -71.89)"/><path class="cls-1" d="M1188.33,1137.94c2.8-3.82,4.7-8.39,9.1-10.63,17.39-8.84,36.1-13.4,55.14-17,13.18-2.47,26.31-4.8,39.79-5,14.84-.24,26.88,6.2,38.37,14.7-6.16-1.48-12.49-.59-18.59-2-.15,0-.3-.22-.44-.21-8.33.74-16.44-3.73-24.54-2-7.72,1.66-15.72.15-23,2.08a230.61,230.61,0,0,1-26.1,5c-10.55,1.55-20.14,5.89-30,9.09C1201.63,1134,1194.23,1133.42,1188.33,1137.94Z" transform="translate(-371.26 -71.89)"/></svg>