<svg id="Layer_1" data-name="Layer 1" xmlns="http://www.w3.org/2000/svg" viewBox="0 0 2926 2500"><defs><style>.cls-1{fill:#fefefe;}.cls-2{fill:#404040;}.cls-3{fill:#fff;}.cls-4{fill:#8e8e8e;}.cls-5{fill:#e5e5e5;}.cls-6{fill:#737373;}.cls-7{fill:#a7a7a7;}.cls-8{fill:#5e92be;}.cls-9{fill:#eff3f7;}.cls-10{fill:#a2b5c5;}.cls-11{fill:#a0b5c7;}.cls-12{fill:#fdfefe;}.cls-13{fill:#eef4f8;}.cls-14{fill:#edf3f8;}</style></defs><path class="cls-1" d="M2261,232v18c-2.21,6-.46,12.16-1,18.22v16.71c.41,7.59-3.79,11-10.79,11.5-43.83,2.88-87.64,6.83-131.61,2.52-3.66-.35-7.33-.26-11-.26q-109.49,0-219-.06c-10.17,0-19.54,1.53-28.79,6.49-11.25,6-24.17,4.5-36.31,3.83-14.77-.82-29.26,1.08-43.85,2-6.82.43-9.72,4.8-10,11.42-.81,17.57-9.71,27.75-27.52,27.74-12.2,0-16.71,4.95-19.89,15.67a129.42,129.42,0,0,1-16.83,35A22.43,22.43,0,0,1,1689.13,411c-17.68,3.41-35.11,1.13-52.66-1.23-19.07-2.55-27.13-.13-33.88,14.74-3.32,7.3-9,13.06-16,17.39-6.74,4.13-9.58,11.83-14.67,17.52-2.69,3-5.12,5.8-9.51,6.68-22.46,4.48-42.77,14.41-62.89,24.93-13.87,7.26-29,11.59-43.25,18.17-35.62,16.47-71.54,32.28-107.18,48.71-20,9.21-36.37,21.91-50.86,37.78-11.63,12.74-26.69,20.89-40.58,30.6-18.69,13.07-31.94,32-49.84,45.92-24.38,19-46.2,41-71.32,59.32-15,11-31.92,20-45.13,32.77-35.84,34.74-81.67,50.54-126,68.91q-52.24,21.64-102.41,47.38c-17.07,8.77-34,10.21-52.27,7.57a184,184,0,0,1-45.94-13.37c-20.58-8.8-42.31-14.23-63-22.69-27.41-11.22-55-21.88-81.29-35.81-12-6.37-24.39-12.17-36.62-18.15-18.33-9-34.9-20.74-52.18-31.2a450.87,450.87,0,0,1-61.22-44.81c-2.63-2.27-5-6.22-9.29-4.08-3.91,2-3.52,6.24-3.35,9.81.82,17.29,3.07,34.55,1.83,51.87-1.49,20.93,1.45,41.88-1.16,62.86-1.09,8.75.73,17.92,1.45,26.84,2.73,33.75,2.27,67.69,9.87,101.17,3.47,15.27,5.57,31.26,8.06,46.93,2.9,18.24,5.18,36.86,12.19,54.27,1.91,4.72,2.11,9.78,2.86,14.68,2.4,15.59,7.32,30.51,13.05,45,9,22.86,12.49,46.9,17.28,70.7q7.27,36.21,12.54,72.74c2.25,15.83,11.25,30,19.57,43.4,11.54,18.61,23.52,37.11,37.62,54a5.61,5.61,0,0,1,1.12,1.65c6.49,18.46,17.4,35.25,21.9,54.37A312.07,312.07,0,0,0,643,1502.25c11.23,21.47,21.54,43.49,32.86,64.84,11.41,21.5,20.83,43.88,32.19,65.36,5.91,11.17,12.19,22.31,17.17,33.79,14.54,33.51,37.11,63.29,46.54,99,9.86,37.45,25.34,73,36.78,109.85,1.59,5.11,3.63,10.2,2.33,15.62-2.67,11.21-.06,21.75,3.27,32.36,7.39,23.58,11,47.87,12.94,72.43a52.6,52.6,0,0,0,2.87,12.64c14.51,43.07,21.21,88,31.72,132,1.93,8.1,3.87,16.2,5.68,24.33.86,3.81,2.68,7.73-.37,11.45H-313c-4.3-6.83-3.71-14.77-4.45-22.23-4.45-45-6.82-90.22-10-135.34-1.72-24.32,1.3-48.55,2.76-72.78a491.26,491.26,0,0,1,8.54-68.34,24.68,24.68,0,0,0-3-17.41c-5.35-9.32-4.73-18.17.5-27.44,6.29-11.16,5.62-11-3-21.21-8.35-9.86-11.66-21.42-8.81-34.49,3.18-14.59,10.53-27.33,17.58-40.14,3.5-6.35,4.95-12.12,1.78-18.87a35.21,35.21,0,0,1-2.24-21.61c5-26.49-1.46-52.4-3.2-78.53-.84-12.6-2.39-25.18-3.06-37.8-.69-13.13-5-23.73-17-30.67-9.21-5.31-9.65-8.81-6.28-18.94,5-15.14,7.33-31.12,14-45.78,1.26-2.78.54-5.92.09-8.9-.5-3.34-1.14-7.06.74-9.8,7.39-10.73,8.49-23.73,13.37-35.28,3.3-7.81.55-12-5.38-15.74-3.74-2.38-8-3.3-12.33-3.75a141.38,141.38,0,0,1-17.71-3.1c-10.51-2.48-16.5-8.86-18.62-19.66-2.9-14.8-3-28.84,4.76-42.57,10.22-18,10.9-37.31,5.57-57.08a48.52,48.52,0,0,1-.38-21.84c2-10.57.39-21.31,1.84-31.89.23-1.68.26-4-1.1-4.68-8.88-4.74-9.33-13.79-11.7-21.92-8.1-27.8-21.22-54-26.8-82.62a55.4,55.4,0,0,0-9.89-22.78c-11.32-15.12-18.79-32.14-25.31-49.69-13.47-36.25-27.43-72.37-49.47-104.46-11-16-15.77-34.9-26-51.35s-17.1-35-29.45-50.4c-3.75-4.66-5.73-10.54-7.61-16.24-5.71-17.29-14.86-32.69-25.76-47.12-7.27-9.63-12.56-20.45-18.16-31a135.33,135.33,0,0,0-17.23-25,163.66,163.66,0,0,1-35.41-69.64c-3.27-13.95-6.73-27.76-7.49-42.21-.55-10.6-3-21-5.75-31.37-6-22.6-10-45.55-8.86-69.12v-20c-.43-21.7,1-43.13,6.87-64.26,4.55-16.3,3.27-33.85,10.16-49.76,9.93-22.88,19.24-45.93,37-64.55,8.89-9.34,16.13-20.33,23.22-31.23,17.34-26.64,44.36-37.82,73.36-45.78,1.91-.53,3.94-.61,5.54-2,14.82-12.45,33.06-16.45,51.19-20.73,7.87-1.86,15.38-4.42,20.9-10.85,4.22-4.91,9.79-6.85,16.06-6.64,6.88.22,12.56-2.57,18.81-5.13,14.34-5.88,29.92-5.51,45.12-4.15,9.43.85,18,.82,27.22-2.81,10.49-4.13,22.3-1,33.49-2a35.52,35.52,0,0,1,9,.2c39.66,6.37,54.63-26.68,53-54.24-.85-14.54-1.47-29.25-4.7-43.63-2.42-10.75-2.95-21.7-3-32.74-.1-15.32-3.65-30.27-6.27-45.29-.63-3.64-1.59-7.14-.79-10.83,3.77-11.49,6.33-12.59,15.56-5A207.24,207.24,0,0,0-192,19.33C-128.78,50.6-73.45,94.4-13.49,130.83q26,15.81,52,31.79c9.71,6,18.91,12.7,25.23,22.39,4.15,6.37,9.82,8.27,16.95,8.45,7.74.2,15.31-.85,22.86-2.05,7.24-1.15,13,.79,14.91,8.12,4,15.34,14.77,21.54,29.09,26.34,22.37,7.5,43.75,17.75,67.33,21.93,19.13,3.39,37.82-.78,56.72-1.05,17.66-.24,31.54-6.51,41.69-21,1.52-2.18,4-4.38,6.7-3.58,3.47,1,3.21,4.68,3.43,7.6a106.6,106.6,0,0,1-.08,12c-.3,8.67,1.62,10.5,10.43,10,12.39-.74,23.77-6.25,36-7.67,19.57-1.88,39.33.63,58.83-2.7,1.31-.22,2.91.26,4-.35,13.63-7.91,29.42-6.85,44-10.78,7.74-2.09,11.92-6.81,11.9-15a34.8,34.8,0,0,1,1.1-6.9c4.18-21,6.16-23.82,27.23-19,34.5,7.86,69,1.06,103.4,3.1,27.93,1.66,55.88.42,83.83,1.6,12.42.52,25.1.41,37.51-.1,23.24-.95,46.5,2,69.67-.94a13.11,13.11,0,0,1,7.71,1.71c3.27,2,5.18,5.21,6.45,8.62,3.59,9.53,11,11.71,20,10.76a121.29,121.29,0,0,1,20.87-.42c13.9.91,15.12.26,19.23-12.75,1.61-5.11,3.45-9.5,10-8.83,15.43-.91,30.92-.23,46.29.06s30.28-4.14,45.5-1.14c4.7.93,9.17-1.22,13.8-1.51,21.8-1.38,43.57.07,65.32,1.08a54.17,54.17,0,0,0,20.53-2.85c3.84-1.32,7.53-2.7,11.56-.92a15.6,15.6,0,0,1,6.85,12.72c.34,7.35,4.47,9.72,11.09,9.84,9.32.17,18.64-.15,28,.83,7.19.76,11.86-3.61,15.48-9.17,2.17-3.32,3.52-7.28,7.76-8.76,10.46-3.82,21.18-.69,31.64-.41,14,.38,27.86-1.6,41.69-2.49,14.49-.93,29,0,43.5-1.83,17.32-2.17,34.92-1.3,52.37-1.2,9.85.05,19.61,1.72,29.68,1.42,21.42-.62,43.31.53,64.14-2.73,14.52-2.28,29.88,2.54,43.58-5.05a2.47,2.47,0,0,1,1.94-.28c13.23,6.15,27,1.14,40,0,13.82-1.16,27.27,5.77,40.86.33,2.43-1,5.32-.09,7.84.79,5.22,1.84,10.3,2.47,15.47-.23a8.15,8.15,0,0,1,5.85-.83c12.71,3.77,25.91.17,38.67,2.78a15.48,15.48,0,0,0,9.78-.88,23.8,23.8,0,0,1,17.55-.91,17.6,17.6,0,0,0,10.79-.15,28.74,28.74,0,0,1,15.79-.34,23.09,23.09,0,0,0,14.66-1c2.47-1,5.33-2.06,7.79-1.36,10.65,3,21.1.28,31.58-.72,17.53-1.66,33.35,5.42,49.7,9.54,8,2,12,9.32,15.81,15.92s8.46,9.23,16.21,8.79c16.71-1,33.38-.88,47.67,10.27,2.64,2,6.41,1.5,9.74,1.51,46.63,0,93.31,1.35,139.87-.39,44.54-1.66,89.09-1.78,133.56-1.05,30.61.5,61.14-1.78,91.7-.46C2246.35,221.66,2256.12,221.54,2261,232Z" transform="translate(665 324)"/><path class="cls-2" d="M867,2176c-6.38-28.12-13-56.19-19-84.39-4.66-21.74-9.4-43.45-14.59-65.07-2-8.12-6.06-15.43-8.06-23.49-.95-3.82-2.55-7.5-.8-11.59,1.08-2.53.4-5.38-.3-7.87a200.14,200.14,0,0,1-6.43-36.06c-.93-9.9-4.41-18.69-7.48-27.72a56,56,0,0,1-2.12-29.4c1.22-6.25-1.34-11.85-3.16-17.46-4.39-13.55-8.34-27.37-14.12-40.34-11.27-25.32-15.81-52.73-25.59-78.46-7-18.36-14.94-36.23-27.17-51.83-1-1.32-2.21-2.43-2.47-4.14-2.5-16.61-12.55-29.69-20.22-44-7.85-14.62-14.65-29.82-21.68-44.86-6.15-13.16-11-26.9-20-38.66a24.32,24.32,0,0,1-5.06-12.61c-.64-7.07-6.5-12.11-9.69-18.26a83,83,0,0,1-5.12-10.67c-2.2-6.26-5.9-11.83-8.93-17.69-9.22-17.86-20.11-35-24.13-55.25-2.19-11-7.13-21.36-8-32.74-.15-1.84-1.69-3.55-2.52-5.35-4.66-10.19-11.24-19.51-13.29-30.88a22.7,22.7,0,0,0-5.36-11.68c-12-12.83-19.93-28.56-30.28-42.58-6.32-8.55-13.86-17-16.31-28.22-1.06-4.8-3.93-8.88-6.59-13.15-4.3-6.87-7.49-14.55-6.32-23.37.51-3.8-.53-7.89-1.3-11.76-2-10-4.72-19.76-4.91-30.22-.15-7.74-3.61-15.38-5.42-23.12-2.8-12-4.07-24.16-6.71-36.16-3.5-16-9.49-31-14.62-46.28-4.66-13.93-8.4-27.93-9.95-42.53-.17-1.64-.11-3.69-1.05-4.79-6.59-7.71-5.33-17.39-6.82-26.33a63.75,63.75,0,0,0-3.44-12.45,51.74,51.74,0,0,1-3.15-25.24c.39-3-.83-5.08-1.92-7.44a41.19,41.19,0,0,1-3.72-17.34c-.12-13-3.49-25.61-6.47-38.13a136.54,136.54,0,0,1-3.31-33.32c.23-21.87-2-43.56-3.9-65.29a40.5,40.5,0,0,1,.48-10.92,86.39,86.39,0,0,0,.16-30.76,15.71,15.71,0,0,1-.49-4.88,226.52,226.52,0,0,0-.12-59.6c-.94-6.87.07-14-.29-21-.22-4.29,2.83-5.88,5.45-7.55,3.23-2.06,5.45.58,7.66,2.7,9,8.7,19.18,16.08,29,23.9,11,8.78,23.63,15.25,34.3,24.58,4.1,3.6,9.72,5.46,14.64,8.12,6.66,3.6,13.41,7,19.36,11.85,4.84,4,10,7.63,16.29,9.46a28.51,28.51,0,0,1,8.57,4.68c7.5,5.45,16,8.95,24.71,12.14,2.49.92,5.24,1.63,7.25,3.23,11.43,9.07,25.4,13.21,38.4,18.76,16.09,6.87,32.45,13.33,48.82,19.67,14.88,5.77,30.64,8.89,45.2,15.41,18.19,8.13,36.92,14.78,56.49,18.17,16,2.78,31.84,2.44,47.13-6,26.35-14.5,53.71-27.1,81.27-39.14C959.7,832,980.93,826,1000.5,816c12.65-6.49,25.82-12,38-19.42,1.42-.87,2.79-2,4.34-2.43,11.09-2.83,20.08-9.42,29.32-15.68a28,28,0,0,0,5.77-5.23c10-11.81,22.85-19.94,36.1-27.54a40.77,40.77,0,0,0,6.46-4.61c10.2-9,21.13-17,32-25.09,9.18-6.87,19.15-13.24,25.9-23,2.07-3,5.08-5,8-7.21,15.75-11.61,31.22-23.53,43.49-39.12,4.06-5.17,9.3-9.57,14.56-13.6,8.4-6.43,16.21-13.71,25.73-18.61,14.41-7.42,25.54-19,36.21-30.65a100.73,100.73,0,0,1,31.75-23.54c6.9-3.23,13.46-7.07,20.29-10.41,5.37-2.62,11-4.56,16.28-7.18,16.57-8.23,34.58-13.34,50.33-23.31a31.51,31.51,0,0,1,4.55-1.88c16.48-7,32.86-14.17,49.45-20.84,17.39-7,33.67-16.4,51-23.41,10.52-4.26,21.15-9.71,33.09-9.68,2.31,0,3.54-.92,4.75-2.78,2.71-4.15,5.72-8.1,8.58-12.15,3.17-4.5,6.08-8.61,11.95-10.87,4.85-1.87,7.59-7.78,10.66-12.34,2.2-3.27,4.39-6.83,5.34-10.58,1-4,4.43-4.52,6.7-6.7,3.62-3.46,7.22,2.08,10.16-.1,2.57-1.91,4-4,8.1-2.78,16,4.85,32.84,5.08,49.3,4.95,9.51-.09,19.66-2.16,25.38-13.54,7.32-14.6,14.69-29.07,19-44.83,1-3.51,2.37-4.17,5.31-4.08s6-.31,9,.12c10.67,1.54,18.61-4.24,26.06-10.24,3.89-3.13,3.64-8.65,2.36-13.46-1.12-4.2-.06-7.71,2.18-11.31a9,9,0,0,1,8.12-4.65c16.26-.47,32.46-1.88,48.81-1.33a208.87,208.87,0,0,0,24.66-1.06c3.41-.29,6.88-1.13,9.24-3.29,5.44-5,12-5.29,18.62-5.51,37-1.23,73.9-.63,110.85-.73,35-.09,69.93-.3,104.89.11,26.94.32,53.87,1,80.81,1.07,25.32.09,50.47-3.06,75.76-3.1,5.6,0,8.54-3,9.58-8.21.54-1,1.13-1,1.77-.08V2176Z" transform="translate(665 324)"/><path class="cls-2" d="M819.13,196.58c-6.52-3-13.07,0-19.51.35a50.21,50.21,0,0,1-11.55-.34c-6.77-1.12-13.79-1.83-20.59.49-.31.11-.65.46-.9.4-11.16-2.88-22.49-.26-33.7-1.06-7-.49-14.14-4.73-20.65,1.6-1.19,1.15-3.15.78-4.8.36-13-3.34-26.23-1.87-39.35-2.71-13.52-.87-27.2,2.59-40.56-1.58-19.8,2.14-39.78-.53-59.57,2.11-11.26,1.5-22.55-.61-33.79.51-2.81.28-3.77-2.14-5.93-2.89-9.34-3.24-19-2.32-28.51-2.91-3.14-.19-3.89,1.6-4.38,4.15-1.44,7.42-3.79,14.67-3.86,22.35-.09,9.45-1.56,10.91-10.43,14.43-8.46,3.37-17,5.28-26.16,4.48-4.46-.39-8.41.2-11.58,4.07-3,3.64-7.4,3.84-11.86,3.94-17.92.44-35.82,1.06-53.73,1.68-3,.1-5.94.5-8.91.77-22.15.66-21.64.17-22.93-22.35-1-17.3,4.24-31.27,16.07-43.1,9.07-9.08,8.66-21.1,11-32.31a65.36,65.36,0,0,0,1.86-8.06c3.23-13.85,3.3-28.2,6.76-42a5.19,5.19,0,0,1,4.91-2.87c13.35.78,26.1-4.34,39.47-3.73,10.19.46,18.07-6.41,26.78-10.19a248.83,248.83,0,0,0,43.61-24.08c13.52-9.44,21.11-22.8,27.35-37.24,2.92-6.77.47-11.8-6.93-13.65-34.15-8.57-64.91-25.63-97-39.2-13.87-5.86-28.62-8.53-42.42-14.53-16.43-7.15-31.41-17.26-48.67-22.77C322-71.43,317.09-77,315-84.25c-8.51-14.81-17.36-29.41-25-44.69a20,20,0,0,1-1.06-2.58,64.61,64.61,0,0,0-9.81-19.22c-2.08-2.6-3-5.73-4.15-8.78a289,289,0,0,1-12-30.86c-6.8-13.7-12.47-28.18-26.19-37a7.51,7.51,0,0,1-2.5-3.09c-13.76-28.28-41.76-37-67.44-48.71-5.71-2.6-11.84-4.34-17.24-7.72-18.89-11.81-39.57-19.22-61.28-23.35-13.36-2.55-26.19-7.9-40.15-7.59-3.45.07-7.61-.83-7.08-6.18H2261V232c-7.5-5.93-16-8.46-25.57-8.4-16.62.1-33.23-1.07-49.81,1.5a71,71,0,0,1-17.9.29c-20.29-2.1-40.65-1.8-60.91-1.06-24.63.9-49.23-1-73.8-.08-55.29,2.07-110.58.36-165.86,1-4.45.05-7.94.08-11.66-4.77s-12-5.34-18.43-5.82a187.74,187.74,0,0,0-29.9.29c-4.09.35-5.5-.08-7.31-3.83a84.28,84.28,0,0,0-10.57-16.6c-2.85-3.48-7.09-5.61-11.87-6.68-7.75-1.75-15.42-4.39-23.08-5.95-11.45-2.33-23.6-4-35,1.22-2.89,1.31-5.08.38-7.58-.51-7.78-2.76-15.51-3.68-22.61,1.73-2.08,1.58-3.77.32-5.57-.09-8.09-1.85-16.13-4.33-24,1-2.21,1.48-4.52-.07-6.64-.94-6.49-2.66-12.82-3.9-18.37,1.93-1.74,1.82-3.37,1.09-5.37.47-8.27-2.55-16.35-4.28-25.18-.95-4.49,1.7-9.55-2-14.39-3-4.24-.93-8.37-2.62-11.27,2.63-1.14,2.07-3.45,1.47-5.42.86-3.18-1-6.38-1.86-9.54-2.86-2.9-.92-7.44-2.3-8.55-.53-4.78,7.62-10.1,1.49-15,1.26-2.88-.13-5.73-1.41-8.51-2.4-1.63-.58-3.71-1.51-4.56.06-3,5.6-7.19,3-11,1.68-3.28-1.1-6.63-.5-9.86-1.15-5.31-1.06-8.27,1-8.94,6.51a30.73,30.73,0,0,0-20.54-6.32c-1.6.07-4,.18-4.66,1.18-4.35,6.33-9.67,3.84-15.11,2.29-7.21-2.05-14.26-2.49-20.28,3.29-2,1.92-4.34,1.24-6.56.47-6.53-2.26-13-2.56-19.27.75a6.54,6.54,0,0,1-6.6-.17c-5.35-2.78-10.88-2.6-16.45-.82-5.14,1.65-10.28,2.5-15.65,1a11.14,11.14,0,0,0-5-.24c-9.56,1.87-18.92,1.64-28.17-1.77-1.43-.52-4.06-.59-4.78.27-4.86,5.76-9.31,1.6-14.28.29a30.34,30.34,0,0,0-19.49,1.05c-2.8,1.18-4.54.61-7.09.38-7.42-.67-15.21-2.83-22.16,1.89-2.73,1.86-5.14.78-7.55-.16a25.26,25.26,0,0,0-18.52-.1c-7.23,2.73-14.42-.66-21.67.85-7.75,1.61-15.62,2.48-23.71,1.25-7.57-1.14-15.34,2.35-23.12-1.26-2.42-1.12-6.37,1.05-9.62,1.72-5.59.93-5.75-3.4-6.32-6.87-1.81-11.17-3.06-22.4-5.29-33.53-2.35-11.74,4.82-20.23,17.09-20.74a216.53,216.53,0,0,1,43.77,3.09c25,4.07,50.06,7.45,74.71,13.54,27.18,6.71,55,3.24,82.55,2.74,4.66-.08,8.16-2.58,10.92-6.2,3.88-5.08,7.44-10.52,8.49-16.83,4.09-24.53,4.82-49-2.69-73.14-2.48-8-8.74-11-16.06-11.22-19-.7-37.95-.74-56.95.21-22.58,1.13-43.19,10.16-64.81,15.12-29,6.65-58.18,11.42-88.07,10a17.64,17.64,0,0,1-7.74-1.82c-20.72-11.29-42.16-8.56-64.23-4.82-16.92,2.86-34.34,2.64-51.5,4.46-7.43.79-11.76-3.68-12.27-11.38-.27-4,0-8-.7-12-1.47-8.73-5.92-14.65-15.16-16.23-11.15-1.9-22.17-4.78-33.66-4-12.46.88-18,6.26-18.86,18.59-1.27,18.59-10,27.13-28.58,27.29-17.66.16-35.44,1.32-53-.42-14.21-1.41-28.25-4.37-42.65-3.53-3,.17-6.39-.72-8.91.63-15.08,8.07-30.46,5.28-45.69,1.32-12.74-3.31-25.09,1.61-37.7.61-20-1.59-39.13-8-58.93-10.64-2.28-.31-4.49-1.5-6.81-1.53-30.62-.36-61.29-1.94-91.84,1.32-10.49,1.12-13.32,4.56-12.65,15.21,1.67,26.64-.29,53.3.69,79.94.45,12.14,3,14.53,15.15,13.48,33.16-2.88,66.16-6.85,99.16-11.19,20.1-2.65,40.33-4.55,60.39-7.77a14.44,14.44,0,0,1,5-.25c19,3.67,37.69-1,56.48-2.67a70.63,70.63,0,0,1,12-.27c4.36.36,7,3.05,6.82,7.15-.71,14-1.32,28-6.07,41.36A4.25,4.25,0,0,1,819.13,196.58Z" transform="translate(665 324)"/><path class="cls-2" d="M-661.31,516.14c.92,14.21,2,28.36,4.61,42.43,1.5,8.17,2.84,16.4,5.28,24.3,3.75,12.13,5.13,24.54,6.3,37.08A219.37,219.37,0,0,0-627.57,688a94.37,94.37,0,0,0,8.15,14.77c5.45,8.06,9.95,16.76,16.25,24.24.85,1,1.51,2.65,2.55,2.94,7.9,2.21,8.48,9.14,11.66,15.2,6.86,13.05,13.11,26.56,22.57,38.28,10,12.42,17.39,26.75,23,41.64,2.69,7.17,4.62,15.09,9.4,20.6,5.81,6.69,11.63,12.7,12.41,22,13.86,16.39,19.7,37.31,31.05,55.15,3.56,5.6.86,13.44,8.3,18.64,5.12,3.58,6.77,11.91,10.49,17.79,3.92,6.19,7.22,12.74,11.17,18.86,4.56,7.07,7.88,14.64,11,22.32,9,22.15,17.57,44.45,26.39,66.66,4.4,11.1,9.47,21.89,17,31.32,8.53,10.72,12.22,23.45,15.17,36.43,3.4,14.9,7.59,29.46,14.15,43.33a84.93,84.93,0,0,1,5.83,16.93c1.37,5.88,2.93,11.53,5.91,16.82,1.11,2,3.43,3.93-.12,6.69-2.09,1.63.86,4.29,2.74,4.7,8.87,1.93,9.07,6.85,8.19,15.06-1.1,10.14-1.66,20.5-2,30.77-.28,8.89-1.28,17.95,3.12,26.46,1.12,2.16.68,5.21.68,7.85,0,2.32-1,4.78-.53,6.93,3.46,14.94-3.8,27.43-10,39.56-8,15.44-4.34,30.33-.87,45.45,1.08,4.7,5.22,7.57,10.15,8.59,5.52,1.15,11,2.46,16.59,3.32,11.32,1.76,22.3,4,29.4,15.75-5.94,6.71-6.83,16.25-8.71,25.51-.87,4.29-3.14,7.92-5.74,11.47-3.67,5-5.69,10.56-3,16.85,1.72,4.1.13,7.6-1.68,11.34a109.8,109.8,0,0,0-9.64,32.21,38.42,38.42,0,0,1-8.1,18.6c4.94,4.13,11,6.81,14.84,10.57,7.1,6.9,13.37,15.71,13.43,26.77.1,20.31,2.45,40.5,4.51,60.62,1.28,12.46,3.33,24.8,3.67,37.42.24,9.4-2.95,18.36-2.27,27.76.4,5.66.15,11.19,3.23,16.37,3.38,5.69,2.08,10.91-1.55,16.48a131.8,131.8,0,0,0-18.1,40.73c-3.6,14.71-.86,27.34,11.54,37.22,6.47,5.15,6.55,7,2.88,14.47a14.55,14.55,0,0,1-1.33,2.68c-7.9,10.12-8.6,20.45-1.39,31.31,4,6,3.34,12.65,1.89,19.29-3.9,17.86-5.79,35.94-7.33,54.16-1.09,13-.12,26.12-2.31,38.73-2.08,12-2.28,23.83-2,35.73.4,16.56,2.85,33,3.42,49.59s2,33.18,3.2,49.75c.78,10.26,2.33,20.46,2.87,30.73.65,12.22,3.82,24.26,2.58,36.6H-665V512C-661,510.92-662.7,514.9-661.31,516.14Z" transform="translate(665 324)"/><path class="cls-2" d="M-244.58-2.42c0,1.33-.43,2.76-.09,4,2.85,10.23,3.71,20.74,5.22,31.19,1.08,7.55,2.7,15,2.17,22.61-1,14.78,3,28.94,5,43.33,1.55,11.16,2.27,22.42,3.37,33.58,1.69,17.1-5,32.4-16.12,45.5-5.68,6.67-12.88,9.63-21.79,10.31-9.95.76-19.69-1.25-29.56-.7-3.55.2-7.35-1.35-10.28,2-2,2.28-3.6-.08-5.25-.64-5.65-1.91-11.66-2.44-16.23,1.3-7.49,6.13-16,4.64-23.71,3.3a80.51,80.51,0,0,0-25.63-.32c-3.63.52-7.39,1.63-10.85.49-5.76-1.9-10.09.84-13.07,4.54-2.55,3.18-5.08,3.66-8.46,3.58a81.18,81.18,0,0,0-10,.06c-5.36.54-10.12,1.75-13.15,7.39-4.29,8-13.4,8.78-20.77,9.79-12.11,1.66-22.88,6.5-34,10.68-7,2.64-14.89,4.41-18.1,12.72a2.79,2.79,0,0,1-2.56,1c-7.35-3.29-14,.32-19.89,3.24-11.85,5.87-24.37,10.57-35.31,18.2-8.24,5.76-14.62,13.43-19.88,21.84-7.76,12.41-16.81,23.78-26.16,35-8.94,10.73-15.86,22.54-22.09,35.19a320.61,320.61,0,0,0-15.76,38.54c-2.94,8.61-2.22,17.44-3.5,26.12-1.35,9.2-4.55,17.87-5.83,27.11-1.87,13.45-4.14,26.77-3.77,40.4a23.27,23.27,0,0,1-.91,4.88c-1.14,1.43.55,5.21-3.51,4.2V-324H-7c.31,4.66-3.54,5.21-6.51,6.11-9.22,2.8-18.31,6.09-27.89,7.67-33.24,5.49-64.91,16.64-96.73,27.17-10.6,3.5-18.93,10.45-26.61,18.72-22.55,24.25-36.58,53.8-52.43,82.23a51.91,51.91,0,0,0-5.38,16c-.91,4.93-2.07,9.8-5.8,13.55-7.85,3.49-10.25,9.59-11.33,18-3.73,29.27-5.77,58.8-12.58,87.63-2.52,10.69-.63,20.62,5.7,29.31C-242.9-12.5-243.89-7.61-244.58-2.42Z" transform="translate(665 324)"/><path class="cls-3" d="M-229.28-153.88c4.17-7,4.45-15.25,7.3-22.65,5.37-13.9,13.7-26.33,20.25-39.67,9.69-19.76,24-36.39,37.81-53.3,8.6-10.54,20.82-15.2,33.36-18.66a377.67,377.67,0,0,0,38.19-12.93A44.89,44.89,0,0,1-78-304.61c2-.1,4.14-.1,5.89-.88,12-5.31,24.93-6,37.46-8.69,7.77-1.7,15.42-4,23.09-6.22A7,7,0,0,0-7-324H41c2.56,4.71,7.38,3.78,11.45,4.33,3.24.44,6.57-.28,9.86.75,18.92,6,38.91,7.67,57.61,14.79a191.19,191.19,0,0,1,33.62,16.72c3.14,2,6.15,3.86,9.74,4.61a92.78,92.78,0,0,1,42.58,21.44c3.61,3.14,8.41,5.09,12.92,7,6.6,2.76,10.75,7.55,13.25,14,2.42,6.27,5.33,11.87,12.08,14.85,4.78,2.11,6.43,7.56,9.08,11.61A108.27,108.27,0,0,1,265.07-190c-28.46,4.65-49.6,25.85-76.85,33.73-13.25,3.82-14,10.56-11,24.51,5.29,24.16,16.12,45.5,29.71,65.86,12.47,18.7,26.23,23.56,46.95,14.55,19.54-8.5,38.87-17.47,54.83-32.16,2.07-1.91,4.29-4.55,7.84-2.73,3.56,9.11,10,13.88,19.44,17.44,8.92,3.37,18.17,6.57,26.55,12.63,9,6.52,20.53,11,32,13,11,1.91,20.74,6.52,30.53,11.06,11.72,5.42,24.11,9.34,35.53,15.24C480.44-6.67,501.31.52,522.79,6.3c5.56,1.5,4.72,6.68,4.19,10.5-1.2,8.65-5.2,16.48-10.14,23.48C509,51.42,499.55,61.14,487,67.28c-13.92,6.84-26.8,15.68-41.59,20.9-5.51,1.94-10.06,6.6-16.22,7.09-6.87.54-13.77.7-20.66.8-2.34,0-5.19-.68-6.7,1-3.15,3.44-6.33,2.81-10,1.47a13.5,13.5,0,0,0-8.83,0c-17.45-5.73-35.49-3.34-53.34-3.92-45.72-1.51-90.94-7-135.16-19-19.72-5.36-39.94-7.34-60-10.63-6.33-1-10.85,1.39-14.26,6.83-2.91,4.64-4.35,11.85-11,11.81-8.76-.06-18,1.24-26-4.62C35.62,43.81-14.52,12.13-63.92-20.63-90.3-38.11-116.33-56.08-142.39-74c-2.77-1.91-5.68-3.83-7.23-6.79-9.9-18.89-27-27.5-46.38-33.09a14.52,14.52,0,0,1-6.78-4c-8.85-9.5-18.07-18.68-25.32-29.55C-229.43-149.46-230.7-151.41-229.28-153.88Z" transform="translate(665 324)"/><path class="cls-4" d="M-665,498c1.73-.93,1.38-3.6,3.51-4.2a105.59,105.59,0,0,1,.18,22.34c-1.56-1.09-1.43-3.68-3.69-4.14v-2a10.84,10.84,0,0,0,0-10Z" transform="translate(665 324)"/><path class="cls-5" d="M2259.17,268.29c.44-6.12-1.94-12.51,1.83-18.29v18A1.07,1.07,0,0,1,2259.17,268.29Z" transform="translate(665 324)"/><path class="cls-6" d="M2259.17,268.29A3.48,3.48,0,0,1,2261,268v18l-.89,0-.88.12Z" transform="translate(665 324)"/><path class="cls-7" d="M-665,500q4.39,5,0,10Z" transform="translate(665 324)"/><path class="cls-8" d="M-229.28-153.88c7.82,12.82,18.59,23.21,28.34,34.45,1.67,1.92,3.53,2.56,6,3,9,1.55,16.25,6.68,24.17,10.79,11.35,5.88,19,13.78,24.29,24.91A9.77,9.77,0,0,0-143-77.26Q-86.74-39.4-30.37-1.62q51,34.17,102,68.27c1.38.92,2.66,2,4,3C90.57,81.25,90.57,81.18,108.53,82c2.8.13,4.2-.8,5.35-3.24,1.83-3.91,4.26-7.54,6-11.48,2.28-5.16,6-6.46,11.25-5.55,21.28,3.64,42.79,5.85,63.75,11.4C230.32,82.48,266.45,87.43,303,90.22c21.26,1.63,42.53,1.61,63.8,2.4,6,.23,12,.67,16.29,5.9-1.15,14.54-2.15,29.1-6,43.27-1.93,1.94-.55,4.83-2,6.92-.74,14-2.16,27.53-14,37.67-3.88,3.33-6.16,8.55-9.1,13-.91,1.37-2.14,2.85-2.27,4.36a227.58,227.58,0,0,0-.3,35.7c.28,4,3.82,6.81,8.48,6.87,3.63,0,7.29-.55,10.86.51-11.87,2-23.08,7-35.27,7.48-2.3.09-4.49.67-6.88.09-6.53-1.61-7-2.6-6.6-9.34.45-7.16,1.62-14.37.73-21.8-3.82.06-4.94,2.84-6.41,4.77a101.15,101.15,0,0,1-12.38,13c-5.7,5.27-12,7.26-19.86,7.47-11.91.32-23.82,1.54-35.71,2.92-23.32,2.7-45.59-2.71-67.4-10.48-16.28-5.8-31.81-13.59-48.48-18.36-4.46-1.28-7.42-3.64-8.52-8.59-1.29-5.87-4.55-11-7.08-16.47-1.7-3.66-4-4.5-7.85-4-9.22,1.23-18.42,2.66-27.78,2.64-7.8,0-14-1.64-17.86-9.69-2.19-4.63-6.23-8.48-10.5-11.83a194.64,194.64,0,0,0-24.12-16C-5.86,140-36.74,118.46-68.42,98.19c-35.88-23-71.43-46.4-107.12-69.64-.56-.37-1-1.08-1.57-1.22C-200.42,21.73-217.83,6-236.77-7.2c-1.6-1.11-3.06-2.63-5.31-2.42-2.61,1.78-.58,5.19-2.5,7.21-.92-5.61-1.48-10.54-5.84-15.76-5.2-6.23-7-15.52-5.35-24.47,2.42-13.34,6.56-26.44,7.16-40,.85-19.13,6.56-37.66,6.41-56.88C-242.26-148-237.43-152.56-229.28-153.88Z" transform="translate(665 324)"/><path class="cls-8" d="M819.13,196.58c3.51-8.66,4.46-17.89,5.69-27,.71-5.24.57-10.58,1.46-15.87.91-5.46-.15-5.88-5.68-6.18-11-.59-21.56,4-32.62,2.48-2.7-.37-5.18,1.16-7.51,2.45-2.78,1.54-5.68,2.15-8.64,1-11-4.16-22-2.13-33.23-.63-14.1,1.88-28,6.12-42.46,4.77a22.34,22.34,0,0,0-7.95.57c-19.94,5.6-40.9,4.63-61,9.56-2.83.7-6,.3-9,.14-10.39-.56-20.57,1.13-30.78,2.63-2.64.38-5.14.76-7.86,0-7.49-2-8.58-3-8.6-10.9-.07-23.59-.25-47.19.11-70.78.11-7.59-2.63-14.93-.63-22.73,2.21-8.65,2.79-9.59,11.6-10.58,22.59-2.52,45.26-1,67.89-1.56,13.22-.32,26.16.1,39.45,2.86,13.89,2.88,27.73,6.66,41.83,8.36,10,1.21,20.15,3.12,30.51-.25,9.08-2.95,18.24,1.68,27.43,2.27,7.13.47,13.69,5.51,21.29,2.69,1.54-.58,3.58-.42,4.73-1.38,6.84-5.73,15-4.7,22.84-4.51,11.86.28,23.56-.54,35.46,3.32,8.15,2.63,17.82.56,26.81.58,11,0,22,.08,33,0,15.48,0,23.87-8.71,23.64-24.31-.17-11.69,4.79-19.61,14.86-21.14,8.47-1.29,17.2-1.72,25.79.39,4.82,1.19,9.74,2.9,14.59,2.83,12-.19,18,10.3,18.71,20.58.28,4-.18,8,0,12,.31,6.46,1.39,7.37,7.74,7.67,8.09.38,15.85-1.82,23.71-3.09,3.31-.54,6.68-1.44,9.88-.8,9.1,1.79,17.53-.52,26.35-2.41a109.43,109.43,0,0,1,45.58.37c2.9.61,6.53,1.1,8.32,3,5.06,5.47,11.41,4.74,17.62,4.89,22,.55,43.72-2.76,65.37-6.48,14.72-2.54,28.48-9.19,43.58-10a2.52,2.52,0,0,0,.94-.33c19-10.22,39.93-8.48,60.41-9.11,9.65-.3,19.33.08,29-.26,5.88-.21,11.08,1.9,16.44,3.61,4.36,1.39,6.27,5.06,7,9.06,3.13,18.53,9.5,36.81,4.53,56.06a35.12,35.12,0,0,0-.66,10.94c.51,7.69-2.25,14.36-5.68,20.9-5,9.55-11.76,15.15-23.73,13.91-10.51-1.09-21.2.11-31.84.85-11.47.79-23.29-.55-34.71-2.46-21.52-3.59-42.75-9.1-64.34-12.17-13.39-1.91-26.63-5.53-40.51-4.78-7.49.4-15.13-1.66-22.81-1.61-11.27.08-18,7-15.29,17.87a208.24,208.24,0,0,1,5.28,36.42c.16,2.47,1.78,3.34,3.65,4.14-2.54,4.14-4.81,8.46-7.67,12.36-3.59,4.87-9.15,7.67-14.75,6.34-8.62-2.05-17.16-1.07-25.73-1.5-2.32-.11-4.68.11-7-.22-7.58-1.09-8.82-2.17-8.51-10.13.2-5.07-2.37-8.75-4.23-12.89-2.71-3.53-2.36-7.46-1.52-11.47.68-3.25,1.63-6.47,1.81-9.81.86-16.89-4.21-22.1-21-22.39a153.38,153.38,0,0,0-26.85,2.08c-26.93,4.3-53.79-1.26-80.73-.24-27.58,1-55,6.07-82.71,4-4.58-.35-8.11,1.86-7.26,7.12a172.88,172.88,0,0,1,1.93,19.86c.39,8.41,9.59,9.48,12,15.94-2.74.71-5.95.51-5.92,5,0,2.9-.88,5.85-1.66,8.69-1.56,5.73-7.39,10.87-13.05,10a101.29,101.29,0,0,0-31.38-.05c-9.26,1.47-15.6-3.7-19.43-12.77C822,201.74,821.17,198.84,819.13,196.58Z" transform="translate(665 324)"/><path class="cls-2" d="M1192.38,356.74c1.62,4.74,3.09,8.42,4.14,12.22,1.65,6-.9,10-7,10.25-21.87.84-43.5,5.38-65.48,4.21a14.9,14.9,0,0,0-11.66,4.3c-10.52,9.68-19.23,21.21-30.62,30a7.3,7.3,0,0,0-2.7,4.09c-1.84,12.33-5.52,24.6-1.56,37.19.88,2.81,2.62,4.07,5.44,5.09,7.6,2.75,15.09,1.19,22.57.08a149.86,149.86,0,0,1,46.79.73c1.63.27,3.41,1.08,4.86.69,11.31-3,21.7,1.37,32.4,3.53,5.22,1.05,10.39-1.92,15.76-.93,1.56.29,3.25-.16,5.87-.34-2.89,4.71-7.21,5.78-11,6.84-12.27,3.43-22.66,10.16-33.45,16.63-18.69,11.22-38.22,21-57.8,30.68-18.62,9.2-37.9,17.15-55,29.31-10.62,7.53-23.58,10.52-35.73,14.95-9.06,3.3-18.31,6-26.59,11.25a24.24,24.24,0,0,1-10.18,3.83c-11.25,1.06-20.57,7.15-30.69,11-8,3.1-15.88,6.43-24.36,8.38-5.73,1.32-11,4.71-16.59,6.64-22.63,7.72-45.24,15.49-68.06,22.6-4.91,1.52-7.91,5.73-13.1,6.63-8.61,1.48-17.24,1.55-25.88,1.62a16.15,16.15,0,0,1-6.69-1.75c-16.75-7.83-32.89-16.33-45.39-30.75-6.17-7.13-14.36-12.44-21.24-19.09S715.54,573.5,709,566.47c-1.11-1.21-1.91-3-3.26-3.63-5.32-2.48-5.11-6.24-3.07-10.72a30,30,0,0,0,1.1-3.82c2.41-8.15,1.76-15.54-4.38-22.14-3.78-4.06-3-5.71,1.75-7.91,3.69-1.69,6.94-.91,10.57.17,9.13,2.69,17.91,6.45,27.76,6.77,10.06.34,19.88-1.45,29.39-3.53,13.24-2.9,26.66-4.8,39.94-7.37,11.09-2.15,21.45-6.68,32.71-8.13,20.71-2.67,41-7.75,61.51-11.64,8.45-1.6,17.25-.68,25.73-2.65,10-2.33,20.07-4.67,30.49-4.15a2.78,2.78,0,0,0,1.9-.47c7.65-7.53,17.4-4.6,26.37-5.2,10.32-.69,20.07-4.3,30.39-5.28,8.34-.8,11-9.22,4.43-14.77-4.94-4.17-4.77-8.42-5.32-13.56-.84-7.89-2.23-15.75-3.81-23.54a188.27,188.27,0,0,1-4-30.43c-.52-13.89,7.46-22,18.08-28.23,6.21-3.66,12.68-4.05,20.39-2.46,16.18,3.32,32.82,5.21,49.32,1.12,2.44-.6,4.59-.06,6.86,0,11.67.18,23.2-.45,33.92-5.73a7.06,7.06,0,0,1,4.82-.52,34.69,34.69,0,0,1,4.81,1.36c7.86,2.9,15.09-3.51,22.37-2C1177.5,359.57,1184.69,361.15,1192.38,356.74Z" transform="translate(665 324)"/><path class="cls-2" d="M894.53,193.58c-11.85-3.63-14.77-7.17-15.48-19.44-.35-5.94,0-11.77-2.31-17.65-2.08-5.36,2.77-10.23,9.22-9.44,4.32.53,8.6.65,12.91.79,21.33.71,42.42-2.88,63.65-3.52,19.24-.57,38.53-.95,57.76,1.47,12.65,1.6,25.19-1.18,37.7-2.69,10.64-1.28,21.25-1,31.89-1.19,4.73-.09,7.59,2.27,8.84,6.53,2.43,8.26,5.28,16.49,2.19,25.31a40.85,40.85,0,0,0-2,14.75,23,23,0,0,0-11.66,2.15c-5.66,2.46-12.66,5.34-19.78,3.13-6.1-1.88-12.28-2.32-18.46,0a9,9,0,0,1-6.79-.45c-6.41-3-12.84-2.14-19.5-1.26-4.89.65-10-.26-14.9.16-5.11.43-10.54-1.81-15.32,2.26-2.13,1.82-5.17.21-7.57-.49-7.51-2.18-14.77-2.34-21.72,1.62-2.29,1.31-4.46.73-6.73.31-7.28-1.34-14.6-4.67-21.64,1-1.46,1.16-3.12-.48-4.66-.85-7.76-1.88-15.38-3-23.26-.06C902.62,197.56,898.4,195.74,894.53,193.58Z" transform="translate(665 324)"/><path class="cls-8" d="M316.56-86.26c-13,12.64-28.69,21.14-44.53,29.45-10.28,5.39-20.68,10.45-32.36,12.2-9.13,1.37-16.82-1.12-23.94-7-9.55-7.9-13.7-19.46-20.75-29-7.34-10-12.89-20.61-14.93-33.14-1.22-7.46-4.38-14.6-6.44-21.94-3-10.77-.2-16.84,9.93-21.85a118.36,118.36,0,0,1,13.77-5.7c12.24-4.25,24.11-9.2,34.94-16.65,9.73-6.69,19.68-13.92,32.82-10.1,2.11,10.8,9.36,19.62,11.66,30.34-2.24,5.46-9.29,5.63-13.13,12.25,6.53-3.55,11.89-4.9,17.58-4.15,4.84,5.68,7.66,12.35,9.55,19.47-1,1.63.51,1.63,1.31,2.1,3.7,5.84,7.17,11.77,9.52,18.36,1.66,4.67,4.59,8.74,7.8,12.57A34.28,34.28,0,0,1,316.56-86.26Z" transform="translate(665 324)"/><path class="cls-9" d="M281.18-151.58c-.52.77-1.2,2.27-1.55,2.19-4.92-1-9,0-12.41,3.94-1.66,1.91-3.93,2.47-5.82-.13-2-2.76-1.24-4.66,1.53-6.46,4.42-2.9,8.77-5.87,13.8-7.64Q279-155.63,281.18-151.58Z" transform="translate(665 324)"/><path class="cls-10" d="M375.11,148.71c0-2.49-.78-5.21,2-6.92C377.45,144.39,377.37,146.86,375.11,148.71Z" transform="translate(665 324)"/><path class="cls-11" d="M292-130c-1.19-.23-2.88-.14-1.31-2.1C291.16-131.41,291.6-130.71,292-130Z" transform="translate(665 324)"/><path class="cls-12" d="M205.38-125.38c-.34-2.17,0-4,2.47-4.64s4.7-.18,5.39,2.78c1.23,5.3,4.53,7.93,9.95,7.76,3.08-.09,4.84,2,6.63,3.89Q241-103.53,252.05-91.38c1.09,1.2,2.77,2.61,1.59,4.24s-3.46,1.83-5.45,1.13a37.26,37.26,0,0,1-5.48-2.33c-8-4.32-14.64,1.71-21.89,2.9-2.15.35-1.53,3.38-1.93,5.25a2.85,2.85,0,0,1-2.72,2.41,3.72,3.72,0,0,1-3.93-2.39,6.6,6.6,0,0,1-.59-1.89Q208.5-103.72,205.38-125.38Z" transform="translate(665 324)"/><path class="cls-13" d="M240.41-140.08c4-1.12,4.82.41,5.55,1.88q10.14,20.47,20.15,41a9.17,9.17,0,0,1,.62,3.82c0,.51-.58,1.17-1.07,1.52a1.81,1.81,0,0,1-2.57-.38,15.27,15.27,0,0,1-1.57-2.53Q251.23-114.59,241-134.46C239.77-136.79,238.08-139.35,240.41-140.08Z" transform="translate(665 324)"/><path class="cls-14" d="M288.17-106.07c-.16,1.5-1.23,2.24-2.43,2.87-1.39.75-2.64.51-3.34-.88-4.37-8.59-8.73-17.2-13-25.85-.85-1.74.08-3.26,1.69-4.14s3.15-.86,4.12,1.09c4.15,8.34,8.33,16.67,12.46,25A8.44,8.44,0,0,1,288.17-106.07Z" transform="translate(665 324)"/></svg>