<svg id="Layer_1" data-name="Layer 1" xmlns="http://www.w3.org/2000/svg" viewBox="0 0 2926 2500"><defs><style>.cls-1{fill:#fefefe;}.cls-2{fill:#fff;}.cls-3{fill:#686868;}.cls-4{fill:#ddd;}.cls-5{fill:#444;}.cls-6{fill:#898989;}.cls-7{fill:#2c699f;}.cls-8{fill:#b7cbde;}.cls-9{fill:#ecf0f4;}.cls-10{fill:#8f9fac;}.cls-11{fill:#829eb6;}.cls-12{fill:#8ba5bc;}.cls-13{fill:#aabccc;}.cls-14{fill:#7e8a94;}.cls-15{fill:#82a2bd;}.cls-16{fill:#f3f6fa;}.cls-17{fill:#f4f7fa;}.cls-18{fill:#91afca;}</style></defs><path class="cls-1" d="M2289,759v18c-2.21,6-.46,12.16-1,18.23v16.7c.41,7.59-3.8,11-10.8,11.5-43.83,2.89-87.64,6.8-131.61,2.51-3.65-.35-7.32-.26-11-.26q-109.49,0-219-.06c-10.17,0-19.54,1.54-28.78,6.5-11.25,6-24.17,4.45-36.31,3.8-14.77-.79-29.26,1.08-43.86,2-6.79.44-9.75,4.76-10.06,11.4-.82,17.59-9.67,27.56-27.47,27.81-11.29.16-16.43,4-19.59,14.72a128.74,128.74,0,0,1-17.75,36.78,21.09,21.09,0,0,1-13.73,9.1c-18,3.76-35.73,1.2-53.64-1-20.59-2.49-26.84-.14-33.83,14.71a40.43,40.43,0,0,1-16.1,17.36c-6.46,3.92-9.14,11.32-14,16.75-2.66,2.95-4.7,6.5-9.17,7.19-19.41,3-37,11.39-54.15,20.06-24.12,12.21-49.68,20.89-74,32.48-33.32,15.88-67.57,29.74-100.45,46.56-5.93,3-11.85,6.31-16.58,11.07-18.11,18.21-36.58,35.71-58.78,49.29-20,12.21-33.24,32.46-51.58,46.88-24,18.91-45.65,40.65-70.48,58.75q-23,16.74-46.23,33.07c-1.09.76.14-.34-.79.6-35.76,35.69-82.73,51-127.7,69.74-21.25,8.83-42.16,18.3-63,28.08q-22.14,10.41-43.89,21.61c-14,7.2-29,6.23-44,4.28-16.67-2.17-32.58-7.34-47.85-13.88-19.66-8.43-40.4-13.63-60.18-21.63-28.08-11.35-56.26-22.36-83.17-36.49-12-6.32-24.39-12.17-36.6-18.18-18.3-9-34.88-20.76-52.17-31.21a455.63,455.63,0,0,1-61.25-44.78c-2.64-2.27-5.07-6.17-9.32-4.08-3.95,1.94-3.49,6.23-3.33,9.8.76,17.28,3.06,34.54,1.84,51.86-1.47,20.94,1.4,41.89-1.18,62.87-1.07,8.75.74,17.92,1.45,26.85,2.72,33.74,2.36,67.66,9.83,101.16,3.55,15.93,6,32.54,8.45,48.9C508.81,1564,511,1582,518,1598.77c2,4.69,2.08,9.77,2.86,14.67,2.41,15.25,7.19,29.85,12.76,44.07,9.08,23.16,12.62,47.54,17.54,71.65s9,48.34,12.55,72.72c2.29,15.8,11.22,30,19.55,43.42,11.56,18.6,23.58,37.07,37.64,54A6,6,0,0,1,622,1901c6.55,18.44,17.47,35.26,21.85,54.38,6.54,28.51,17.17,55.23,30.8,81,9.62,18.18,18,37.16,27.83,55.06C721,2125,734.09,2161.2,754.06,2194c4.86,8,9.24,16.29,11.19,25.53,1.66,7.91,7.62,13.2,11.49,19.73,13.22,22.3,22.07,46.35,28.43,71.27,4.73,18.49,12,36,18.58,53.78,5.11,13.75,9,27.9,14,41.67,1.39,3.8,2.11,7.82,1.14,11.8-2.72,11.2-.07,21.75,3.26,32.36,7.39,23.58,11,47.86,12.91,72.42a39.74,39.74,0,0,0,2.06,9.76c14.41,42,21,86,31.23,129.07,2.39,10.05,4.59,20.14,7,30.19.91,3.79,2.7,7.72-.35,11.44H-285c-4.28-6.84-3.7-14.77-4.44-22.23-4.44-45-6.82-90.22-10-135.34-1.71-24.32,1.3-48.54,2.76-72.78a492.77,492.77,0,0,1,8.54-68.34,24.69,24.69,0,0,0-3-17.41c-5.36-9.31-4.74-18.16.49-27.43,6.31-11.17,5.63-11-3-21.21-8.37-9.86-11.68-21.41-8.83-34.49,3.18-14.58,10.53-27.33,17.58-40.14,3.48-6.34,4.95-12.12,1.79-18.86a35.23,35.23,0,0,1-2.25-21.61c5.05-26.49-1.47-52.4-3.19-78.53-.84-12.61-2.4-25.18-3.06-37.8-.7-13.13-5-23.74-17-30.68-9.23-5.32-9.67-8.8-6.3-18.94,5-15.13,7.31-31.11,14-45.77,1.26-2.78.54-5.92.09-8.9-.5-3.33-1.12-7,.72-9.8,7-10.53,9-22.8,12.84-34.43,3.35-10.08,1-15.63-9.48-18.26-7.75-1.93-15.67-3.21-23.52-4.72-12.34-2.39-18.8-9.68-20.94-22.15-2.45-14.25-2.07-27.59,5.24-40.6,10.16-18.08,10.84-37.33,5.52-57.1-2-7.51-1.62-15.22-.22-22.83,1.87-10.23.28-20.65,1.7-30.9.23-1.68.22-3.94-1.14-4.66-8.94-4.72-9.31-13.83-11.68-21.94-8.12-27.79-21.22-54-26.8-82.61a55.55,55.55,0,0,0-9.9-22.78c-11.11-14.84-18.48-31.54-25-48.75-13.53-35.83-26.71-71.94-48.77-103.66-11.49-16.52-16.49-36-27-53-10.2-16.52-17.08-35-29.44-50.4-3.75-4.66-5.72-10.55-7.61-16.25-5.7-17.29-14.86-32.68-25.75-47.11-7.28-9.64-12.57-20.45-18.16-31a135,135,0,0,0-17.24-25,163.79,163.79,0,0,1-35.4-69.65c-3.27-13.95-6.73-27.75-7.48-42.2-.56-10.6-3-21-5.76-31.37-6-22.6-10-45.55-8.87-69.11v-20.06c-.43-21.72,1.14-43.13,6.85-64.3,4.66-17.29,3.62-35.88,11.21-52.6,9.76-21.49,18.63-43.34,35.37-61,10.5-11.09,18.76-24.2,27.41-36.85,7.32-10.7,16.56-19,28.62-24.14,14.29-6,26.8-16.35,43.27-17.29,5.07-.29,7.62-6.16,12.32-8.15,13.5-5.73,27-11.29,41.59-13.85,8.31-1.45,16.08-4.36,21.82-11.11,1.74-2.05,3.81-4.23,6.4-4.62,24.9-3.75,48.65-15.52,74.73-11a43.12,43.12,0,0,0,25.27-2.72c10.19-4.34,21.61-.83,32.46-2.16,7.56-.94,15.27.89,23,.41,19.74-1.24,35.1-15.54,39.11-35.07,3.51-17.1.43-33.89-1.42-50.64s-4.54-33.54-5.1-50.62c-.45-13.47-3.11-27-6-40.35-1.59-7.34-4-15,1.9-21.75,4.91-1.3,8.29,1.76,11.62,4.41A257.68,257.68,0,0,0-162.85,546C-93,582.18-30.49,630,36.34,670.91c13,8,27,14.42,39.25,23.77,6.4,4.88,12.49,10,16.65,17,4.29,7.26,11.1,9.46,18.86,8.21,6.93-1.12,14-.87,20.81-2.36,7.53-1.65,13.21,1.24,15,8.1,4.17,16.48,16,22.62,30.84,27.17,14,4.28,27.32,10.44,41.18,15.21a130.1,130.1,0,0,0,62.88,5.83c7.3-1.11,14.59-1.91,21.86-1.29,12.39,1.07,21.72-3.79,30.06-12.57,4.13-4.37,6.58-11.18,14-11.83,2.95,1.13,3.42,3.74,3.84,6.38a86.84,86.84,0,0,1,0,13.78c-.68,7.45,2.83,10.62,9.8,9.66,7.42-1,15.12-.94,22-4.59a150.79,150.79,0,0,1,37.72-3.1c13,.63,25.93-1.18,38.87-2.17a19.55,19.55,0,0,0,10.26-3.55c4.83-3.54,10.3-4.41,16.09-4.31a55.46,55.46,0,0,0,13.85-1.53c10.08-2.38,17.23-7.07,16.66-18.81a16.5,16.5,0,0,1,.7-3.93c4.39-21.87,7.77-25.23,29.56-19.35,17.26,4.65,34.35,4,51.45,3.37,40.63-1.58,81.21.77,121.81.36,28.11-.29,56.25-.29,84.31.43,14.15.36,28.45-2.93,42.5.91a13.39,13.39,0,0,1,5.51,6.91c3.77,10.67,12.23,12.43,21.76,11.21a73.57,73.57,0,0,1,20.8,0c11.3,1.71,14.6-.62,18.25-11.76,1.65-5,3.27-9.64,9.89-9,15.42-.7,30.9-.26,46.26.07s30.28-4,45.49-1.09c4.74.91,9.17-1.23,13.8-1.52,21.8-1.36,43.57-.09,65.32,1a54.37,54.37,0,0,0,20.54-2.76c3.83-1.3,7.5-2.74,11.58-1.33,5.14,2.37,7,6.83,7.18,12,.24,6.94,4,10.18,10.52,10.61,9.87.64,19.77.51,29.65,1,6.81.3,11.51-4.46,14.86-10.08,1.88-3.16,3.45-6.42,7.21-7.77,10.13-3.81,20.56-.86,30.64-.41,14.08.64,27.91-1.43,41.7-2.39,14.49-1,29,0,43.5-1.86,17.63-2.21,35.61-1.91,53.35-1.16,10.88.46,21.69,1.57,32.68,1.24,20.76-.62,41.59-.94,62.26-2.22,10.4-.64,20.55-4,31.3-1.62,4.26.92,7.86-4.7,12.09-3.87,12.45,2.46,24.75,1.79,37.12-.1,14.89-2.29,29.75,4.26,44.7.19,2.92-.8,6,.13,8.83,1.1,4.56,1.55,9,2.14,13.55-.19,2.09-1.07,4.61-1.78,6.8-1.14,12.71,3.72,25.91.16,38.66,2.78a15.49,15.49,0,0,0,9.78-.9,23.72,23.72,0,0,1,17.54-.89,17.6,17.6,0,0,0,10.79-.16,28.77,28.77,0,0,1,15.8-.34,23.06,23.06,0,0,0,14.65-1c2.48-1,5.34-2.06,7.79-1.36,10.66,3.06,21.1.26,31.58-.72,17.53-1.64,33.34,5.43,49.7,9.55,8,2,12,9.33,15.8,15.93s8.47,9.22,16.21,8.77c16.71-1,33.38-.88,47.67,10.28,2.63,2.06,6.4,1.5,9.73,1.5,46.63,0,93.31,1.35,139.87-.38,44.54-1.67,89.08-1.79,133.55-1.06,30.61.5,61.14-1.78,91.7-.46C2274.34,748.68,2284.11,748.55,2289,759Z" transform="translate(637 -203)"/><path d="M895,2703q-9.57-42.14-19.12-84.27c-5-22-9.57-44-14.78-65.95-1.76-7.37-4.94-14.4-7.38-21.61-1.48-4.37-3-8.65-1.17-13.48.74-2,.33-4.69-.29-6.86a193.24,193.24,0,0,1-6.46-36c-.91-10.25-4.68-19.28-7.75-28.65a56.62,56.62,0,0,1-2-28.41,19.47,19.47,0,0,0-.78-9.81c-6.83-21.09-13.07-42.39-22.17-62.69-6.56-14.63-9-30.52-13.68-45.73-6.57-21.37-15-41.88-26.57-60.93-4.77-7.83-9.37-15.3-12.11-24.34-3.32-11-9.68-21-15.91-30.84a103.57,103.57,0,0,1-7-13.12c-9.28-20.57-18.89-41-28.55-61.4a56,56,0,0,0-5.94-9c-3.34-4.52-6-9.16-6.6-15-.68-6.59-6.37-10.7-8.94-16.46-2-4.48-5.09-8.47-6.49-13.28-2-6.79-6.5-12.28-9.62-18.43-9.68-19.1-20.63-37.72-24.64-59.25-1.69-9.06-4.7-17.81-6.61-26.88-1.51-7.22-6.24-13.82-9.9-20.51a34.22,34.22,0,0,1-4.07-10c-1.95-10-6.63-18.22-13.72-25.86-6.64-7.15-11.37-16.13-16.49-24.58a153.63,153.63,0,0,0-11.67-16.86c-6.3-7.77-9.84-16.48-13.15-25.5a24.66,24.66,0,0,0-3.17-6.06c-5.71-7.91-9.51-16.44-8.09-26.63.3-2.17-.75-4.51-1-6.79-1.11-11.8-5.66-22.93-5.53-35.12.08-7.34-3.45-14.7-5.2-22.09-2.83-11.94-4.09-24.13-6.71-36.12-3.63-16.57-9.82-32.18-15.19-48.09a200.46,200.46,0,0,1-9.45-40.58c-.19-1.64.09-3.73-.8-4.84-6.94-8.65-5.79-19.26-7.37-29.19-.59-3.68-2.06-7-3.29-10.44a53.36,53.36,0,0,1-3-25.21,8.21,8.21,0,0,0-1.07-5.63c-3.81-6.53-3.95-13.73-4.68-21.07a252.84,252.84,0,0,0-6.35-36.12c-2.85-11.36-3.44-22.75-3.34-34.26.19-21.5-2-42.84-3.89-64.21a38.51,38.51,0,0,1,.47-10.91,83.82,83.82,0,0,0,.2-30.74,15.56,15.56,0,0,1-.56-4.86,223.09,223.09,0,0,0-.12-60.53c-.89-6.55.15-13.33-.25-20-.29-4.81,3.21-6.37,6.17-8,2.74-1.55,4.88.92,6.79,2.81,9.14,9,19.7,16.37,29.69,24.39,10.69,8.59,23.22,14.59,33.24,24.07,2.71,2.57,6.27,3.6,9.45,5.34,10.09,5.49,19.77,11.68,29.58,17.61,15.07,9.11,30.38,18,47,24.52,10.35,4.08,19.89,10.35,30.21,15,20.56,9.2,41.68,17,62.42,25.67,14.72,6.18,30.77,8.59,45.05,15.62,9.56,4.71,19.69,7.84,29.57,11.14,17.44,5.82,35.51,10,54.42,7.76,10.63-1.28,19.07-7.16,28.23-11.53,26.81-12.78,53-27,80.75-37.66,18.57-7.16,37.5-13.55,55.19-22.65,11.75-6,24.15-10.83,35.24-18.14,1.66-1.09,3.35-2.46,5.21-2.87,11.6-2.53,20.25-10.43,30.14-16.09,1.84-1,2.78-2.72,4.06-4.23,10.21-12,23.23-20.49,36.9-28,3.9-2.13,7-5.14,10.12-8,12.33-11.57,26.94-20.15,39.82-31,2.8-2.35,6.07-4.35,8.21-7.2,6.29-8.38,15.23-13.59,22.88-20.31,11.65-10.23,24.83-18.82,34-31.86,3.76-5.33,9.19-9.63,14.39-13.73,8.81-7,17.33-14.32,27.37-19.66,13.94-7.42,24.88-18.72,35.23-30.21a97.18,97.18,0,0,1,31.78-23.44c6.92-3.2,13.38-7.17,20.23-10.46,5.37-2.57,11-4.54,16.27-7.14,16.56-8.19,34.48-13.41,50.26-23.28a34.53,34.53,0,0,1,7.23-3.16c17-5.74,32.77-14.27,49.42-20.76s32.32-16,49-22.52c10.5-4.14,21-9.94,33.06-9.37,2.64.13,3.45-1.63,4.37-3.32,2.67-5,6.7-9,9.65-13.8,2.21-3.62,5.09-7,10.14-8.5,5.3-1.59,7.45-7.79,10.87-12,2.64-3.24,4-7.54,5.85-11.41,2.59-5.41,6.75-7.55,13-6.64,1.28.19,3.5.69,3.75.23,3.48-6.59,8.74-2.72,12.72-1.69,14.64,3.78,29.67,3.56,44.43,3.77,9.56.13,19.6-2.29,25.32-13.41,7.62-14.81,15.13-29.53,19.29-45.7.63-2.44,1.48-3.42,3.81-3.39,2.66,0,5.39-.34,8,.12,8.44,1.47,15.58-1.46,22.52-5.81,8.9-5.58,9.86-7.45,8.14-18.27-1.53-9.64,3.18-15.25,12.83-15.61,15.91-.6,31.74-1.91,47.76-1,6.24.34,13.07-.65,19.65-.93,4.68-.21,9.61-.67,13.14-3.81,5.52-4.89,12-5.14,18.66-5.36,42.91-1.36,85.85-.54,128.77-.72,32-.14,63.93-.73,95.86.16s63.82,1.38,95.72.43c17.25-.52,34.47-2.25,51.76-2.49,5.63-.08,8.51-3,9.53-8.24.55-1,1.14-1,1.78-.08V2703Z" transform="translate(637 -203)"/><path d="M847.41,723.71c-7.18-3-14.26-.05-21.32.62a28.7,28.7,0,0,1-8.69-.37c-7.48-1.49-15-2.28-22.4.43a8.94,8.94,0,0,1-5.8.06c-6.69-1.91-13.27-3-20.05.16-2.32,1.07-5.14-.39-7.75-.84-7.19-1.24-14.7-5.08-21.47,1.45a3.65,3.65,0,0,1-2.85.46c-23.52-5.33-47.4-1.75-71.05-3.11-10.88-.63-21.71-.42-32.56-.66a359.66,359.66,0,0,0-40.7,1.59c-9.86.91-19.87.1-29.82,0-.94,0-2.12.29-2.79-.16-9.73-6.51-20.78-4.81-31.51-5.4-3.42-.19-4.7.83-5.33,4.09-1.48,7.74-3.83,15.3-3.83,23.31s-1.84,10.28-9.42,13.13c-8.73,3.29-17.56,5.84-27.07,4.83-4.41-.47-8.48-.06-11.59,4-2.35,3-6,3.93-9.83,4-17.24.44-34.48.76-51.71,1.48-8.92.37-17.81,1.49-26.71,2.28-5.65.72-7.09-3.4-8.44-7.47-2.19-6.64-2.06-13.39-.66-20.16a49.19,49.19,0,0,0,.27-6.31c0-2.59.06-5.18.29-7.77a26.06,26.06,0,0,1,2.74-8.74,20.66,20.66,0,0,1,3-5.07,78.47,78.47,0,0,0,19.82-41,47.36,47.36,0,0,0,2-6.8c.28-2.37.26-4.75.35-7.13.23-5,2.27-9.5,3.42-14.24a25.43,25.43,0,0,0,.07-7.34c.28-6.6-1.17-13.61,4.46-18.94A166.7,166.7,0,0,1,436.83,621a107.38,107.38,0,0,0,44.77-11.85c14.49-7.47,29.1-14.62,42.61-24s21.23-22.74,27.48-37.2c3.12-7.23,1.07-11.64-6.68-13.63-34.46-8.86-65.53-26.07-98-39.71-13.89-5.83-28.69-8.36-42.47-14.51-16.07-7.17-30.88-16.9-47.81-22.36-8-2.58-12.28-9.86-15.12-17.64-7.69-11.39-17.5-21.53-20.87-35.45a40.29,40.29,0,0,0-5.44-11c-3.89-5.18-5.45-11.46-8.25-17.16-1.82-2.64-2.81-5.71-4.36-8.5-5.69-9.24-11-18.63-12.2-29.72-4.82-14.37-11-27.81-23.85-37-4.56-3.27-6.67-8.24-8.7-13.13a25.18,25.18,0,0,0-13.52-13.88c-12.72-5.81-22.55-16.72-36-21.19-29.89-10-55.6-30.29-87.41-35.34-15.07-2.39-29.39-8.51-44.94-8.57-3.47,0-7.6-.84-7.07-6.18H2289V759c-7.49-5.86-15.89-8.43-25.48-8.39-16.61.06-33.22-1-49.8,1.46a86.38,86.38,0,0,1-18.89.31,641.27,641.27,0,0,0-82.83-.2c-14,.83-27.88-1.39-41.9-.93-57.6,1.92-115.24.68-172.86,1-5.31,0-11.57,1.91-13.79-5.71-6.65-2-13.12-5-20.12-5.06-9.95,0-20-1.09-29.86.78-2.16.41-4.09.7-4.66-2-1.44-6.8-7.64-10.61-10.29-16.78-2.18-5.07-7.44-7.14-12.7-8.49-8-2.06-16-4.79-24-6.26-11.43-2.1-23.59-4-35,1.62-2.46,1.22-4.46.2-6.65-.57-8.06-2.84-16-4.19-23.39,1.85-1.66,1.36-3.13.12-4.62-.23-8.39-2-16.66-4.57-24.94.85-2.77,1.81-5.69-.89-8.45-1.83-5.65-1.91-11.09-2.49-15.68,2.27-1.92,2-3.6,1.75-6.11,1-8.21-2.61-16.27-4.33-25.11-.87-4.34,1.69-9.52-2-14.36-3.1-4.17-.92-8.38-2.87-11.18,2.64-1.07,2.09-3.39,1.49-5.37.87a89.07,89.07,0,0,0-10.47-3.13c-4-.76-8.7-2.74-11,3.11-.59,1.46-1.46,1.5-3,.63-5.21-2.88-11.28-3.1-16.81-5-2-.7-4.46-1.73-5.38.23-2.38,5.06-5.77,3.1-9,1.84-3.52-1.36-7.16-1.2-10.79-1.58-5.18-.54-9.72-.42-9.18,7.23-7-6.1-14.21-7.39-21.93-7-1.27.06-3.15.29-3.68,1.12-4.21,6.62-9.63,3.76-15,2.3-7.19-2-14.24-2.65-20.19,3.28-2,2-4.34,1.33-6.54.54-6.51-2.33-13-2.67-19.23.63a6.35,6.35,0,0,1-6.57,0c-5.65-3.08-11.53-2.63-17.38-.73-4.84,1.57-9.66,2.3-14.65.79a7.84,7.84,0,0,0-3-.18c-10.48,1.07-21,2.35-31.1-2a1.25,1.25,0,0,0-1-.05c-7.6,5.64-15.24.8-22.89.2-5.2-.4-10.65-.73-15.23,2.44-2.25,1.55-3.61-.29-5.35-.36-7.74-.29-15.79-3.23-23,2-2.31,1.69-4.39.29-6.62-.15-3.57-.69-7-2.75-10.7-2-8.73,1.84-17.46,2.2-26.4,2.42-10.53.25-21,2.25-31.68,1.31-6-.53-11.9,2.17-18.13-1.1-2.53-1.33-7,1-10.53,1.64-5.35,1.46-7.83-1.51-7.86-6.13-.06-11.75-3.23-23.08-4.17-34.67-1.24-15.3,5.56-22.37,21.24-21.85a486.79,486.79,0,0,1,96.87,13c26.07,6.21,52.29,10.09,79.16,6.5a46.49,46.49,0,0,1,12,.37c13.36,1.7,19.38-1.88,25.08-14.18,4.51-9.72,3.31-20.29,4.87-30.44,2.58-16.77-1.24-33.17-4.59-49.47-1.7-8.24-8.35-11.22-15.82-11.08-21.32.4-42.66-.42-64,.47-16.18.68-31.17,7.17-46.28,11.82-27.41,8.44-55.4,11.32-83.6,13.69-10.38.88-20.33-1.18-30.15-5.4-17.19-7.39-35.37-5.47-53.12-2.64-18.76,3-37.8,2.52-56.53,5.81-7.94,1.39-13.21-3.77-12.93-11.65,1.06-29.44-8.32-26.66-33.49-33.25-6.85-1.79-14-.52-20.68,1.83-9,3.17-11.88,7.53-11.53,17.22.56,15.13-10,28-25,27.9-24.85-.1-49.66,1.5-74.58-2.89-14.33-2.53-29.87-3.23-44.33,2.82-7.36,3.08-15,2.59-22.6.93-13.69-3-27.23-4.72-41.53-2.72-13.51,1.88-27.32-1.4-40.49-4.8-12.3-3.19-24.87-4.56-37.19-7.41-2-.45-4-1.13-5.9-1-28.25,2.11-56.57.91-84.84,1.86-7.43.25-11.06,5.42-10.2,12.19,3.64,28.52-1.12,57.16,1.57,85.69.71,7.47,4.33,9.86,11.16,9.13,33.42-3.59,66.85-7,100.2-11.36,22-2.86,44.26-4.79,66.34-7.68a11.15,11.15,0,0,1,4,0c18.3,4.38,35.91-1.22,53.73-3.67,14.91-2,18.66,1,18.59,16.15a92.86,92.86,0,0,1-3.58,25.62c-1.17,2.29-2.62,4.46-3,7.09C850.58,721.4,849.8,723.28,847.41,723.71Z" transform="translate(637 -203)"/><path d="M-633.3,1043.15c.94,14.2,2.09,28.34,4.6,42.41,1.4,7.85,2.63,15.81,5,23.33,4,12.77,5.3,25.81,6.65,39,2.42,23.53,8.06,46.34,17.87,67.94,2.58,5.69,6.18,10.93,9.41,16.31,4,6.62,7.73,13.33,12.91,19.24,2.83,3.23,4.52,7.12,9.34,8.23,3.1.71,4.56,3.51,4.8,6.67a18.3,18.3,0,0,0,3,9.39c6.27,9,9.81,19.65,16.4,28.24a197.2,197.2,0,0,1,16.82,25.58c4.76,8.72,9.59,17.24,12.53,26.86,1.91,6.26,5.49,12,8.27,18,.76,1.63,1.91,2.92,3.67,3,2.54.08,3.51,1.62,4.05,3.64,3.33,12.49,12,22.28,17.16,33.81,5.31,11.83,12,22.9,18.09,34.31.32.59,1,1.19,1,1.72-1,8.55,4.72,13.89,9.1,20.09,4.58,6.48,8.3,13.58,12.29,20.47a381.72,381.72,0,0,1,22.19,44.48c11.26,26.92,18.39,55.85,34.35,80.44a161.7,161.7,0,0,1,23.2,55.13,159.51,159.51,0,0,0,12.45,35.5,68.61,68.61,0,0,1,5.92,19,36,36,0,0,0,5.12,12.88c.82,1.37,2.18,3.79,1.7,4.35-6.42,7.48,1.9,8.12,4.95,8.91,5,1.31,5.05,3.57,4.73,7.83-1.16,15.52-1.83,31.07-2.64,46.62-.11,2-.7,4.39.15,5.93,6.18,11.2,1.52,23.57,4.11,35.13.68,3-.75,5.88-1.92,8.64-3.24,7.64-6.56,15.25-9.79,22.9-3.52,8.34-6.56,16.6-3.15,26,1.54,4.26.77,9.16,1.85,13.74,1.62,6.91,5.46,11.12,12.49,12.45,4.88.92,9.71,2.13,14.6,3,17,3.08,17,3,30.87,15.16-5.63,6.56-7.47,14.83-8.83,23.17a32.24,32.24,0,0,1-6.22,14.41c-3.68,5-5.7,10.5-3.1,16.85,1.32,3.19.95,6.24-.73,9.53a111.51,111.51,0,0,0-10.66,34.93,32.27,32.27,0,0,1-8.62,18.14c5.94,1.78,7.68,9.31,14.73,8.82.7-.05,1.7,1.11,2.19,1.93,5.73,9.5,12.53,18.09,12.34,30.57-.24,14.89,2.06,29.8,3.07,44.72.66,9.59,3,19,4,28.43a141.21,141.21,0,0,1-.36,34.73c-1.44,10.13-3.08,20.45,2.32,30.17,3.26,5.88,1.74,10.88-1.91,16.44-8.59,13.08-15.29,27.24-18.53,42.63-2.83,13.49.16,25.47,11.47,34.58,7.22,5.81,7.48,7.73,3.06,16-1.09,2-2.52,3.92-3.67,5.93-4.23,7.41-5.64,15.1-.74,22.65,5.71,8.8,5.32,17.72,3.24,27.66-3.54,16.85-4.64,34.12-6.74,51.2-1.95,15.84-.87,31.72-3.52,47.61a113.9,113.9,0,0,0,1.05,44.63,24.47,24.47,0,0,1,.91,5.9c-.51,26.33,3.25,52.42,4.3,78.67.68,17.18,3.6,34.27,5.48,51.4A35.29,35.29,0,0,1-285,2703H-637V1039C-633,1037.92-634.7,1041.92-633.3,1043.15Z" transform="translate(637 -203)"/><path d="M-215.07,514.89c-2.34,7.07-2.57,14.14.21,21.14a36.59,36.59,0,0,1,2.43,15.64c-.13,2.31-.48,4.89.33,6.93,4,9.93,3,20.26,2.83,30.49-.17,11.7,3.14,22.86,4.78,34.27a99,99,0,0,1,1.31,15.83c0,2.65-.42,5.56.48,7.92,4.25,11.22,2.66,22.67-.65,33.22-3.83,12.21-10,23.88-21.64,31.1-4,2.5-8.6,3-13.28,3.64-9.9,1.27-19.64-1.24-29.47-.69-3.81.22-8-1.68-11.15,2.29-1.5,1.89-3-.07-4.35-.6-7.06-2.72-13.49-1.9-19.68,2.61-6.54,4.76-14.33,2.92-21.07,1.68a80,80,0,0,0-23.61-.56c-4.91.54-9.69,1.72-14.77.35-4.64-1.26-8.7,1.7-11,4.94-2.44,3.41-5.05,3.62-8.4,3.58a108.41,108.41,0,0,0-11,.12c-4,.36-8.76,1-10.51,4.75-4.75,10.23-14.64,11.11-23.3,12.39-11.38,1.69-21.62,6.21-32.07,10.14-7.13,2.67-15.77,4.15-19,13a2.41,2.41,0,0,1-3.39,1.13c-7.41-3.54-14,.71-19.78,3.53-11.27,5.5-23.14,10-33.55,17.16a75.26,75.26,0,0,0-21.36,23c-7.46,12.19-16.4,23.21-25.49,34.16a171,171,0,0,0-22.22,35,320.13,320.13,0,0,0-16.14,39.38c-3,8.92-1.92,18-3.47,27s-4.65,17.8-5.88,27.06c-1.66,12.43-3.88,24.73-3.61,37.34a41.72,41.72,0,0,1-1,6.87c-1.15,1.42.54,5.22-3.52,4.21V203H21c.31,4.65-3.54,5.2-6.5,6.1-9.22,2.79-18.29,6.09-27.87,7.66-33.21,5.43-64.83,16.62-96.62,27.12-10.59,3.5-19,10.38-26.63,18.63-22.55,24.2-36.46,53.77-52.52,82.05-5.31,9.37-4.42,20.88-10.56,29.94-8.17,5-9.83,12.7-10.89,21.81-3.15,27-4.9,54.22-11.17,80.77-2.89,12.23-2.89,23.64,6.58,33.35A3.09,3.09,0,0,1-215.07,514.89Z" transform="translate(637 -203)"/><path class="cls-2" d="M-201.55,373.61c4.63-7.49,4.85-16.44,8.07-24.39,5.44-13.44,13.46-25.57,19.83-38.55,9.66-19.67,24-36.18,37.62-53.08,8.32-10.29,20.17-14.89,32.23-18.42,13.79-4,27.49-8.18,40.66-14a16.44,16.44,0,0,1,5.6-1.72c9.66-.42,18.48-4.36,27.75-6.33,14.17-3,28.62-4.71,42.4-9.55,3.13-1.1,6.52-1.32,8.39-4.59H69c2.91,4.94,8,4.13,12.4,4.23,6.37.15,12.32,1.66,18.39,3.35,7.62,2.12,15.51,3.21,23.24,5,21.14,4.8,41.12,12.52,59.22,24.58a25.57,25.57,0,0,0,8.93,4,91.54,91.54,0,0,1,42.49,21.42c3.8,3.34,9.08,5,13.78,7.3a22.93,22.93,0,0,1,12.06,12.59c2.68,6.79,5.64,13.2,13.18,16.37,4.12,1.73,5.47,6.63,7.68,10.2,5.16,8.3,10.88,16.48,12.28,26.57-15.68.39-27.42,9.84-40.13,17.23-11.55,6.72-24.62,10-36.84,15.23-11.38,4.88-13.81,10.09-10.27,22,.85,2.87,2.31,5.63,2.7,8.56,3.18,23.67,16.82,42.34,29.43,61.42,10.43,15.77,23.88,20.33,41.37,13.05,21.47-8.95,42.79-18.5,59.58-35.46,1.19-1.2,2.5-2.21,4.35-1.92,1.25,1.95,3.21,3.76,3.63,5.87,1.48,7.39,8.13,9.3,13.28,12.06,2.94,1.58,6.61,2.57,10,3.91a182.16,182.16,0,0,1,21.76,10.94c9.84,5.54,20.66,10.62,32.21,12.53,11.9,2,22.24,7.76,33,12.5,7.55,3.32,15.32,6.15,22.82,9.6,23.13,10.64,46.19,21.41,71.21,27.11,5.75,1.32,4.78,6.72,4.22,10.32-1.47,9.61-5.88,18.27-11.65,26A91.41,91.41,0,0,1,511,596.76c-15.27,7.75-30.45,15.72-45.92,23a34.65,34.65,0,0,1-14.4,2.86c-7.88.12-16.38-2-23.64,3.55-1.53,1.18-3.82.49-5.77-.23-3.49-1.29-7-2.12-10.49.17-17.38-3.24-35-3.85-52.59-4.49-42.34-1.57-84.41-5.41-125.62-15.67-23-5.73-46.23-10-69.66-13.41-6.49-1-10.87.41-14,6.39-2.57,4.85-3.68,12.33-10,12.74-9.09.59-19,1.82-27.1-4.18C49.27,561.37-17,520.86-81.35,477.38c-11.87-8-22.32-18-35.14-24.68a11.58,11.58,0,0,1-4.91-4.89c-10.07-19.61-27.9-28.42-47.71-34.49a15.9,15.9,0,0,1-6.74-4.09,317.36,317.36,0,0,1-22.3-25.62C-200.42,380.79-202.68,377.71-201.55,373.61Z" transform="translate(637 -203)"/><path class="cls-3" d="M-637,1025c1.66-1,1.08-3.87,3.52-4.21a103.82,103.82,0,0,1,.18,22.36c-1.55-1.11-1.24-3.86-3.7-4.15v-2a10.84,10.84,0,0,0,0-10Z" transform="translate(637 -203)"/><path class="cls-4" d="M2287.17,795.29c.43-6.11-1.93-12.51,1.83-18.29v18A1.07,1.07,0,0,1,2287.17,795.29Z" transform="translate(637 -203)"/><path class="cls-5" d="M2287.17,795.29A3.29,3.29,0,0,1,2289,795v18l-.89,0-.89.13Z" transform="translate(637 -203)"/><path class="cls-6" d="M-637,1027q4.39,5,0,10Z" transform="translate(637 -203)"/><path class="cls-7" d="M-201.55,373.61c7.32,13.64,19.12,23.63,28.74,35.4,1.11,1.37,2.56,1.75,4.31,2,9.7,1.47,17.34,7.34,25.84,11.51,11.42,5.59,18.3,13.53,23.42,24.22.88,1.84,2.57,2.94,4.25,4.09q50.68,34.61,101.84,68.51c37,24.37,73.58,49.24,110.35,73.89a21.74,21.74,0,0,1,4.08,2.86c9.39,10,21,13.74,34.54,13.49,3.64-.07,5.41-.52,6.83-3.71,1.75-3.94,4.15-7.59,5.82-11.56,2-4.84,5.24-6.11,10.28-5.17,22.19,4.17,44.7,6.61,66.63,12.34,34.19,9,69.07,13.58,104.29,16.18,22.23,1.65,44.49,2.08,66.74,3,5.46.21,10.58,1.06,14.37,5.51-2.24,5.43-2.54,11.11-2.15,16.87-1.09,2.68-.8,5.39-.18,8.1-1.67,4.6-3.26,9.22-3.73,14.13-1.4,1.86-.31,4.18-1.17,6.14-.64,2.49-2.34,4.84-1,7.59-2.24,14.29-6.86,27.42-17.54,37.85-2.3,2.25-3.74,5.37-5.57,8.09-2,2.36-4.58,4.56-2.74,8.21l-.08,7.82a6.6,6.6,0,0,0,.29,6.48,63,63,0,0,0-.68,16.65c.58,5.21,2.51,8.65,6.9,11-10.05,5.75-20.75,6.75-31.89,4.3-2.72-.6-3.46-2.31-3.15-5.2.67-6.27.84-12.59,1.21-18.89.35-2.63,2.84-6.1-2.53-6.51-5.72,6.47-11.1,13.23-17.62,19-5.19,4.59-10.77,7.25-18,7.1-13-.26-25.9,1-38.76,2.64-15.46,2-30.43-.61-45.3-4.32-18.16-4.51-35.07-12.48-52.5-19-6.84-2.58-14.58-3.79-20.37-7.84-6-4.17-5.28-13.13-9.06-19.41-4.75-7.88-4.32-7.86-13.73-6.67-8.56,1.08-17.19,1.91-25.8,2.14-6.54.17-11.71-2.09-15.3-8.8C84,701.72,72.63,694.8,61.3,688.44,41,677,21.5,664.24,2,651.58Q-68.46,606-138.93,560.48c-5.73-3.7-10.73-8.86-18.44-8.6-1.81.06-3.93-1-5.48-2.18-14.2-10.42-30.49-17.72-43.84-29.44-2.47-2.16-5.57-3.6-8.38-5.37-.48-1.59-.8-3.32-2.78-3.73a5.94,5.94,0,0,1-4.93-4.42c-2.09-8.25-5.2-16.27-3-25.21,7.4-30.31,9.63-61.39,12.93-92.29C-212,381.35-209,376.13-201.55,373.61Z" transform="translate(637 -203)"/><path class="cls-7" d="M850.92,713.82c3.54-11.57,3.65-23.53,4.1-35.46.14-3.65-1.15-5.71-5.19-5.27-5.84.65-12-1.28-17.43,2.69a8.06,8.06,0,0,1-7.72.65c-5.92-2.3-11.23-.6-16.21,2.24-3.52,2-6.52,2.35-10.29.62-7.9-3.61-16.2-2.82-24.49-1.39-12.43,2.14-24.94,6.22-37.3,5.83-23.85-.74-46.67,5.31-70,7.86-17.47,1.91-35.13,1.46-52.48,5.09-9.22,1.92-13.41-2.6-13.51-11.84-.12-10.3.06-20.53-1.08-30.87s1.32-21.14,1.26-31.82c0-8-1.76-15.86-1.63-23.84.21-11.88,3-14.89,14.62-15.19,14.31-.38,28.64-.41,42.95-.67,9.64-.18,19.26.37,28.9-1.14,5.5-.86,11.2-.24,16.87.75,16.58,2.9,33,6.68,49.45,10,7.79,1.55,15.75,2.2,23.62,3.38a10.15,10.15,0,0,0,4.9-.09c15.3-5.28,30.16-1.07,44.86,2.62,7.67,1.93,14.44.47,21.32-2.25,1.51-.6,2.79-2.49,4.21-2.53,14.5-.39,29.07-2.75,43.45,1,3.5.92,6.67,2.79,10.56,2.51,19.28-1.37,38.59.16,57.89-.23,15.82-.32,25.16-11,23.08-26.63-1.12-8.4,4.45-16.67,13.81-18.93,9-2.18,18.26-3.26,27.5,0,5,1.73,10.31,2.56,15.44,4,10.46,2.84,14.68,8.13,15.12,19,.17,4.32-.38,8.68,0,13,.58,6.7,2.18,8,8.74,7.69a78.18,78.18,0,0,0,8.91-.91c11.49-1.79,22.9-4.31,34.68-2.65a23.94,23.94,0,0,0,9.83-1.14,100.8,100.8,0,0,1,56,.18c.64.18,1.47.07,1.93.44,10,8,21.93,6.52,33.26,5.81,22.54-1.43,45.37-2.92,66.87-9.84,14.17-4.56,29.1-6,42.9-12.49,8.06-3.79,18.21-3.22,27.54-3.3,17.32-.17,34.64-.43,52-.4,14.15,0,19.14,4.7,20.88,18.6,1.52,12.16,5.91,23.91,4.47,36.49-1.13,9.9-1.2,19.93-2.56,29.79s-6.8,17.89-13.64,25c-3,3.07-6.72,3.23-10.22,2.57-11.66-2.19-23.18.29-34.74.29-18.53,0-37.13-1.34-55.26-5.92s-36.36-7.42-54.71-10.37A429.43,429.43,0,0,0,1201,662c-11.84-.41-16.25,4.28-16.15,16.1a41.36,41.36,0,0,0,1.54,9.8,108.67,108.67,0,0,1,3.1,26.71c0,3.83.84,6.45,5,7-2.3,3.72-4.58,7.44-6.88,11.15a14.51,14.51,0,0,1-15.47,6.91c-8.66-1.65-17.24-1.09-25.87-1.43a58.3,58.3,0,0,1-7.94-.54c-6.93-1.24-7.26-1.62-7.28-9.1,0-4.76-.62-9.22-4-12.89-2.76-3.15-2.25-6.76-1.48-10.42s1.86-7.1,2.08-10.77c1.16-18.69-5.33-25.14-23.89-23.69-12.6,1-25.11,2.93-37.69,4.07-20.25,1.84-40.44-1.93-60.73-1.71-6.3.07-12.63-.22-18.86.61-21.87,2.92-43.85,1.69-65.78,2.05-12.46.2-13.83,2-11.73,14.21a65,65,0,0,1,.84,9.94c.13,7.51,2.21,13.78,10,16.76,1.49.58,3,1.6,2.49,3.71-2.47,1-6.26.23-5.93,5,.16,2.24-.65,4.57-1.18,6.82-1.79,7.6-6.57,12-14,11.15-10.27-1.11-20.27-1.59-30.67,0-9.93,1.47-15.71-3.32-19.52-12.69-1-2.45-1.77-5-3.61-7,1.6-1.12,2-2.78,2-4.58C850.5,717.52,849.37,715.29,850.92,713.82Z" transform="translate(637 -203)"/><path d="M1220.39,883.66c1.69,5,3.15,8.63,4.2,12.42,1.61,5.88-1,9.9-7.12,10.11-22.17.8-44.09,5.59-66.4,4.12a13.1,13.1,0,0,0-9.94,3.69c-10.89,9.77-19.59,21.77-31.35,30.66a6,6,0,0,0-2.3,3.18c-2.6,12.91-6,25.83-1.74,39,.76,2.37,2.63,3.31,5,4.19,7.91,2.88,15.7,1.08,23.5,0a156.73,156.73,0,0,1,45.67.68c1.62.26,3.36,1.19,4.82.84,11.56-2.79,22.2,1.8,33.26,3.47,6.56,1,13.55-.79,20.59-.58-3.35,3.87-7.77,5.75-12.4,6.82-10.16,2.35-19,7.67-27.51,13.11-4.74,3-10,5.23-14.41,8.49-11,8.18-23.87,12.79-35.76,19.22-14.17,7.67-28.74,14.64-43.34,21.46a70.3,70.3,0,0,0-12.18,6.68c-14.65,10.82-31.5,16.8-48.47,22.58-8.5,2.9-17.08,5.57-24.69,10.56a15,15,0,0,1-5.49,2.26c-17.82,3.11-33.18,12.92-50.16,18.32-27.44,8.72-54.09,19.73-81.67,28.11-7.7,2.33-15.66,4.35-22.78,9.27-4.85,3.34-12.13,2.62-18.48,2.87-8.76.36-16.48-1.56-24.76-5.28-9.5-4.26-17.55-10.21-26-15.82a55.16,55.16,0,0,1-10.82-10.07c-6.6-7.68-15.37-13.22-22.52-20.54-6.67-6.82-13.16-14-20.49-20-7.73-6.27-7.45-12-4.43-20.31,2.44-6.66.91-13.67-4.16-19.49-4.72-5.42-4-7.06,2.82-9.23,3.22-1,5.84.06,8.68.91,8.81,2.64,17.37,6.28,26.73,6.79,10.63.58,21.07-1.54,31.28-3.67,13.88-2.89,27.93-4.73,41.79-7.65a43.3,43.3,0,0,0,6.76-1.51c12.48-4.83,25.51-6.94,38.73-8.27a27.93,27.93,0,0,0,4.93-.74c22-6.54,44.79-8.75,67.44-11.74,9.83-1.29,19.39-4.55,29.5-3.88a3.74,3.74,0,0,0,2.81-.74c5.26-6.5,12.73-5.08,19.36-4.78,12.55.57,24.09-4.7,36.4-5.36,2.46-.13,6.37-.14,7.8-4.48a9.64,9.64,0,0,0-3.53-11.34c-3.3-2.19-4.59-4.61-4.49-7.74.46-15.09-4.76-29.29-6.75-44-1-7.35-1.86-14.77-.73-21.77,1.59-9.88,8.67-16.88,17.46-21.29a28.73,28.73,0,0,1,20.25-2.62c16.11,3.55,32.71,5.09,49.3,1.54,7.44-1.59,15.12.52,22.69-1.06,6.11-1.28,12.51-1.35,18-4.77,3-1.89,5.79-.68,8.58.22a18.35,18.35,0,0,0,10.69.65c7-1.8,13.87-3.47,21.4-.49C1210.42,888.48,1215.76,886.54,1220.39,883.66Z" transform="translate(637 -203)"/><path d="M922.33,720.48c-14.91-3.41-13.93-7.55-15.46-19-.73-5.55-.13-11.16-2.18-16.69-2.46-6.64.65-10.84,7.76-11.41,3-.24,6,.1,9,.13,24.61.26,49.11-1.52,73.67-2.93a256.19,256.19,0,0,1,51.64,1.8c12,1.76,23.85-.9,35.69-2.28,10.55-1.23,21.09-2.37,31.7-2.2,9.51.16,12.5,2.52,14.45,11.54,1.76,8.09,3.66,16.28.17,24.5-1.59,3.74-1.61,7.79-1.66,11.79-4-.23-7.13-.92-11.63,1.78-5.07,3-12.6,5.09-19.42,3.35-6.54-1.66-12.83-2.42-19.36,0a9.52,9.52,0,0,1-5.79-.27c-15.27-5-30.81.5-46.14-1.34-5.41,4.35-10.85,1.95-16.5.44a21.1,21.1,0,0,0-14.33,1.3c-4.41,2.32-7.69,1.83-12,1.31-6.14-.74-12.82-4.4-18.63,1.45-1.42,1.43-3.08-.18-4.58-.55-8-2-15.88-3.33-24.09-.11C930.47,724.68,926.16,722.66,922.33,720.48Z" transform="translate(637 -203)"/><path class="cls-8" d="M346.8,748.8c.26-1.4,1-2.7,2.35-2.84,1.89-.2,1.7,1.49,1.55,2.7-.29,2.25.14,4.66-1.37,6.65C348.3,753.21,349.47,750.26,346.8,748.8Z" transform="translate(637 -203)"/><path class="cls-7" d="M342.84,438.76c-4.59,8.13-12.12,13.21-19.77,17.72-14,8.27-28.17,16.35-43.37,22.31a42.73,42.73,0,0,1-20.37,2.9c-10.12-1.07-17.1-7.2-22.49-14.95-8-11.44-15.2-23.37-22.63-35.16a19,19,0,0,1-2.61-6.44c-2.21-11.79-6.1-23.1-9.46-34.56-2.91-9.89-.2-15.35,9-20.3,8.26-4.43,17.33-6.69,25.93-10.19a135.94,135.94,0,0,0,23.75-12.45c5-3.28,10.37-5.95,15.43-9.11,5.56-3.47,10.93-1.06,16.38.09,1.71,10.37,7,19.27,11.83,28.31-3.2,5.34-10.78,6.12-14,13.66,7.13-1.55,12.5-5.6,18.87-5,2.63,5.59,4.09,11.7,7.63,16.88l0,1.12c-1.12,1.4,1.17,1.46,1,2.5,1.19,2.66,2.32,5.36,4.8,7.14a87.57,87.57,0,0,0,17.31,30.61C341.39,435.25,343.24,436.41,342.84,438.76Z" transform="translate(637 -203)"/><path class="cls-9" d="M309.39,375.57c-.51,1.12-.49,3.42-1.81,3-5.16-1.46-8.83.49-12.35,4-1.48,1.47-3.82,3.6-5.8.67-1.79-2.66-3.9-5.77.39-8.4,4.74-2.9,8.91-6.88,14.66-7.93Q306.93,371.25,309.39,375.57Z" transform="translate(637 -203)"/><path class="cls-10" d="M322.84,403.21c-4.52-.52-5.09-4.18-6-7.56a1.93,1.93,0,0,1,0-1.93,2.23,2.23,0,0,0,.22-1.27C320.14,395.4,321.59,399.25,322.84,403.21Z" transform="translate(637 -203)"/><path class="cls-11" d="M402.58,679c-2.45-2.77-2-5.54,0-8.32,1.4.16,1.55,1.48,2.19,2.35Q403.67,676,402.58,679Z" transform="translate(637 -203)"/><path class="cls-11" d="M376.73,733.13c-3.24-4.12-1.23-6.49,2.74-8.21C379.42,727.94,377.78,730.44,376.73,733.13Z" transform="translate(637 -203)"/><path class="cls-12" d="M408.45,651.12c-2.39-2.75-2.05-5.45.18-8.1A9.56,9.56,0,0,1,408.45,651.12Z" transform="translate(637 -203)"/><path class="cls-13" d="M404.76,673l-2.19-2.35c.27-2,.32-4,2.15-5.41C405.43,667.84,405.84,670.42,404.76,673Z" transform="translate(637 -203)"/><path class="cls-14" d="M850.92,713.82c0,1.9.41,3.93-1.49,5.3C849.2,717.16,847.92,714.89,850.92,713.82Z" transform="translate(637 -203)"/><path class="cls-15" d="M376.94,747.43c-2.49-2-2.54-4.21-.29-6.48A8.85,8.85,0,0,1,376.94,747.43Z" transform="translate(637 -203)"/><path class="cls-1" d="M283.6,439.13c-3.59,3.52-6.5,4.5-10.16,1.59-8-6.36-15.67-.3-23.44.94-1.82.29-2.31,2.24-2.3,4,0,3.16-1.12,5.23-4.64,4.84s-3.58-3.28-3.95-5.93q-2.15-15.24-4.36-30.48c-.61-4.25-1.18-8.52-1.89-12.76-.55-3.29.92-5,4-5.67s4.36.92,4.83,3.54c1.07,5.91,4.66,8.43,10.5,8a4.32,4.32,0,0,1,3.6,1.25C265.5,418.25,275.18,428.13,283.6,439.13Z" transform="translate(637 -203)"/><path class="cls-16" d="M270.08,385.41c2.3-.5,3.4.75,4.14,2.27q10.62,21.84,21.18,43.71c1.05,2.15.71,3.75-1.53,4.83-2.05,1-3.14-.32-3.92-1.81q-11.25-21.53-22.4-43.12C266,388.26,267.15,386.25,270.08,385.41Z" transform="translate(637 -203)"/><path class="cls-17" d="M311.25,426c-4.87-9.52-9.42-18.38-13.92-27.27-1.28-2.53-1.94-4.87,1.4-6.7,3.67-2,4.74.56,5.92,2.95,3.68,7.46,7.08,15.06,11,22.41C318.09,422,316.23,424.16,311.25,426Z" transform="translate(637 -203)"/><path class="cls-18" d="M316.8,393.72a12.43,12.43,0,0,1,0,1.93C315.44,394.22,315.44,394.22,316.8,393.72Z" transform="translate(637 -203)"/></svg>